<svg xmlns="http://www.w3.org/2000/svg" viewBox="0 0 204.57 222.17"><defs><style>.cls-1{opacity:0.4;}.cls-2{fill:#c6c4c4;}</style></defs><title>Recurso 3</title><g id="Capa_2" data-name="Capa 2"><g id="Layer_1" data-name="Layer 1"><g class="cls-1"><path class="cls-2" d="M105.36,60.36q15.65,0,15.65,6.43a3.83,3.83,0,0,1-1.12,2.8q-3.65,6.15-15.79,6.15a35.87,35.87,0,0,1-21.94-7.27Q67.07,72.94,47,87.47,15.64,110.68,15.65,133q0,24.89,33.81,27.67,6.72-41.35,40.25-62a74.92,74.92,0,0,1,23.47-9.92q12.57-2.94,17.19-3.91T146,82l12.71-2.09q26-4.47,33.4-10.06t7.4-10.63a12.74,12.74,0,0,0-.41-3.07c-.28-1.12-.05-1.77.7-2a3,3,0,0,1,2.51.83,12.53,12.53,0,0,1,2.24,7.55q0,4.47-5.59,10.9-8.39,8.39-23.2,11.74-5.59,1.4-14.95,3.21t-13.55,2.94q5.31,5,5.31,15.09,0,20.68-24.59,40.52-27.12,21.8-72.67,21.8a61.38,61.38,0,0,0-.28,7q0,19.56,13,30.89T100.89,218a17.14,17.14,0,0,0,12-4.61q5-4.6,5-10.48a11.31,11.31,0,0,0-1.11-4.47c-.75-1.68-.06-2.51,2.09-2.51s3.22,2.46,3.22,7.4-2.15,9.32-6.43,13.14a21.64,21.64,0,0,1-14.81,5.72q-21.81,0-36.33-12Q48.06,197,48.07,175.78a69.67,69.67,0,0,1,.28-7.26Q24,166.29,11.46,156.22,0,146.44,0,134.7,0,107.6,41.36,83A175.08,175.08,0,0,1,79.09,65.4q-7.83-8.67-7.82-22.64,0-7.27,3.35-12,9.21-13.14,27.95-21A109.42,109.42,0,0,1,147.28,0q29.9,0,29.34,18.73a21,21,0,0,1-6.84,14.1q-6.3,6-13.84,6t-7.55-3.92c0-1.86,1.22-2.79,3.64-2.79l4.75.84q3.91,0,7.68-4.75t3.78-9.5q0-7.56-8.67-10.91A32.24,32.24,0,0,0,149,5.87q-23.47,0-39.12,9.78T86.92,37.45A27.82,27.82,0,0,0,82.72,52q0,7.55,3.35,11.46A72.21,72.21,0,0,1,105.36,60.36Zm38,44.16q0-12.3-10.63-12.3-3.35,0-13.69,2.52Q65.11,114.87,56.17,161a90.79,90.79,0,0,0,12.3-.84q36-3.9,57.29-22.91Q143.37,121.29,143.37,104.52ZM112.62,67.63c0-1.68-2.47-2.51-7.4-2.51a81.25,81.25,0,0,0-15.79,1.67,27.37,27.37,0,0,0,15.09,4.48C109.92,71.27,112.62,70.05,112.62,67.63Z"/></g></g></g></svg>