<svg xmlns="http://www.w3.org/2000/svg" viewBox="0 0 72.89 64.24"><defs><style>.cls-1{fill:#473315;fill-rule:evenodd;}</style></defs><title>Recurso 4</title><g id="Capa_2" data-name="Capa 2"><g id="Layer_1" data-name="Layer 1"><g id="stemware"><path class="cls-1" d="M39.23,5.75c-.74-.7-1.76-1.64-1.89-2.68C37.12,1.2,39.85-1.29,40.42.78,40.9,2.55,38.92,3.63,39.23,5.75Zm-.6-2.29A1.94,1.94,0,0,0,39.23,1C37.94.79,37.62,3.12,38.63,3.46Z"/><path class="cls-1" d="M56.71,3.17c.11,0,.17,0,.19.1-.73,1.08-.78,2.85-1.39,4.07C54.42,6,56.25,4.29,56.71,3.17Z"/><path class="cls-1" d="M30.09,9.92c-1.77.48-4.89-2.77-3.67-4.57C28.26,2.62,29.68,9,30.09,9.92Zm-2-2.09c1-3.18-2.81-1.09,0,0Z"/><path class="cls-1" d="M67.33,9.82a25.28,25.28,0,0,1-2.88,2.38A4.69,4.69,0,0,1,67.33,9.82Z"/><path class="cls-1" d="M43.6,10.32c.74,1.23.09,3.6.2,5.16C41.61,15.82,40.37,9.51,43.6,10.32Zm-.8,3.08a2.46,2.46,0,0,0,0-2.09h-.39C42.27,11.93,42.11,13.28,42.8,13.4Z"/><path class="cls-1" d="M37.14,19.75c-1.61.28-3.88-3.69-2.68-5.06C36.43,12.45,37.45,18.12,37.14,19.75ZM36,17.57c.23-.75,0-1.86-.6-2.09C34.58,15.83,35,17.68,36,17.57Z"/><path class="cls-1" d="M24.23,19.35c-.67.38-.75-.61-1.39-.59C21,19,18.06,18.53,18,16.57a2.2,2.2,0,0,1,3.37-1.88C22.67,15.57,23.61,18.35,24.23,19.35Zm-2-1.39a5.53,5.53,0,0,0-1.59-2.88C16.94,15.17,20.16,19.09,22.25,18Z"/><path class="cls-1" d="M58.29,16.28C57,21.13,57.51,27.43,56,32.17c-.18.56-.82,1.11-.89,1.68-.47,3.75,3.53,8.08,4.66,10.93.55,1.36,1,4.31,2.29,4.57,1.61.33,6.66-2.34,7.65-.2.59,1.29-4,4.12-5.57,4.76A27.31,27.31,0,0,1,59,55.7c-1.44.29-4.47.77-4.87-.3-.31-.83,1.31-3.32,2.09-3.87s1.94-.43,2.08-1.29c.28-1.63-2.52-5.87-3.27-7.45-1.26-2.61-1.8-4.77-3-7.65-5.51-.72-10-5.88-13.9-8-1.42-.78-1.43-.84-1.2-2.78C43.23,21,49.77,16.36,58.29,16.28ZM38.14,24.52c5.5-2.14,12.29-3.86,17-7.15C48.63,18.13,42.74,21.21,38.14,24.52Zm18.37-1.69c.07-.5,1.34-5.52.2-5.06C53.62,19,51,20.37,47.17,21.84c-2,.77-8.77,2.48-8.84,4.27,0,1.23,4.08,3.5,5.17,4.17a62.21,62.21,0,0,0,6.35,3.08c3,1.39,6.26-.4,5.66-4.67-2,1.78-2.76,5-6.35,3.08-2.58-1.41-7.43-3.6-8.64-5.76,4.73.24,10.12,1.53,15.09,2.18A29.42,29.42,0,0,0,56.51,22.83ZM43.2,27.4c2.75,1,8.58,7.27,10.13,1.59C50.25,28.35,46.09,27.24,43.2,27.4Zm10.73,6.75c-.31-.07-.3.17-.6.1a33,33,0,0,0,4.07,12c1,1.89,1.56,4.63,3.68,5.16C59.56,45.2,56.16,40,53.93,34.15ZM62.47,50c-.79,1.08-.18,2.14-1.59,2.38s-1.28-1-2.49-1.19c-1.52-.27-4,2.54-3.37,3.68.47.84,3.48.16,4.17,0,3.52-.83,7.37-2.78,9.23-5.27C67.25,48.58,63.27,48.94,62.47,50Z"/><path class="cls-1" d="M33.37,22.53c-1.22-.88-5,.18-5.27-1.39C27.7,18.67,34.48,20.42,33.37,22.53Zm-4-1.69a1.37,1.37,0,0,0,1.68.2C31.09,20.27,29.54,20.07,29.4,20.84Z"/><path class="cls-1" d="M72.89,20.75c-.53,1-2.58,1.9-4,2.08C69.79,21.68,71.42,21.29,72.89,20.75Z"/><path class="cls-1" d="M23.64,44.78A101.59,101.59,0,0,0,18,55.6c-.25.54-1.33,2.73-1.2,3.28.36,1.51,3,1,3.08,2.78.32,5-10.6,1.78-10.33-1.49C9.72,58,13,58.69,14.2,58.28c.73-.25.91-1.47,1.29-2.28,1.39-3,5.44-9.57,4.37-13.11-.89-3-1-8.49-1.19-11.52-.23-3.28.08-7.74,2.88-7.84,4.84-.19,8.14,1.55,12.41,2.68,1.25.32,4.91,1.5,5.17,2.58s-1.28,2.12-1.69,2.68C34.08,36.07,29.23,42.46,23.64,44.78Zm-.9-20.36h-.2c3,3.21,9.48,4.48,14.7,4.47C33.72,26.15,28.15,24.94,22.74,24.42Zm-2,14.8c.16,2.58-.11,5.55,4,4.56,1.61-.39,4-3.06,5.36-4.27a30.86,30.86,0,0,0,7.35-9.13c-6.32-1.06-12.18-2.59-16.88-5.27C18.34,28.6,20.51,35.44,20.76,39.22Zm-2.88,14.5c2-2.06,3.43-5.51,4.37-8.94C19.54,45.27,18.83,50.81,17.88,53.72Zm-.8,2.18c.22-.54.7-.82.7-1.59A1.4,1.4,0,0,0,17.08,55.9ZM14.8,60.17c.79-.76,2.09-2.41,2-4.07C15.68,57,15.42,58.77,14.8,60.17Zm-3.28,1.69c.83.58,8.41,3.53,7.35-.5a2,2,0,0,0-3.77.3,2,2,0,0,1-1.69-1.09c.12-.44.4-.72.39-1.29C11.59,57.66,9.34,60.33,11.52,61.86Z"/><path class="cls-1" d="M8.84,26.5A9.63,9.63,0,0,1,4,25.71C5.12,24.57,7.54,26.17,8.84,26.5Z"/><path class="cls-1" d="M34.76,31.57c-2.4,2.26-4.15,6.25-7.15,8.44C26.13,41.09,23,44.09,22,41.6c.83-3-1.8-6.91,1-7.94C26.49,32.34,31.15,32,34.76,31.57Zm-3.18.79c-1.29,0-8.23,1.67-8.94,2.69s-.12,6.64.9,6.75c1.33.14,4.34-2.95,5.16-3.87a26.71,26.71,0,0,0,3.87-5.27C32.32,32.35,32,32.36,31.58,32.36Z"/><path class="cls-1" d="M7.35,35.34a6.61,6.61,0,0,1-4.07-.2C4,33.76,6.19,35.24,7.35,35.34Z"/><path class="cls-1" d="M4.47,44.38a8,8,0,0,1-4.47.1C.68,43.25,3.41,44.12,4.47,44.38Z"/></g></g></g></svg>