<svg xmlns="http://www.w3.org/2000/svg" viewBox="0 0 48.08 68.52"><defs><style>.cls-1{fill:#473315;fill-rule:evenodd;}</style></defs><title>Recurso 6</title><g id="Capa_2" data-name="Capa 2"><g id="Layer_1" data-name="Layer 1"><g id="bottle"><path class="cls-1" d="M10.62,4.72c2.16-.9,2.22.68,2.61,2.3.66,2.76,2.62,5.84,4.25,8.86s3,6.35,4.53,9A13.08,13.08,0,0,0,24.32,28c1.13.91,2.69.38,4.21.9,3.62,1.24,8.2,6.23,10.78,10.36,3.24,5.18,5.54,11.3,8.27,16.08,2.91,5.11-7.55,10.72-13,12.48-1.06.34-4.61,1.1-5.49.48a15.34,15.34,0,0,1-1.62-2.23C22,58.46,17.71,50,16.79,43c-.51-3.9-.35-7-1.88-10.82A68.43,68.43,0,0,0,6.82,18.44c-1.32-1.77-2.08-3.9-3.71-5.63-.79-.83-2-1.71-.18-2.77C2,8,.31,7.13,0,5.29-.36,3,6.49-.85,8.34.17,9.93,1.06,9.46,3.23,10.62,4.72ZM3.32,3.34C2.05,2.88,1,4.48.81,5.48c1,1.43,1.89,3.71,3.11,4.37C6,8.51,8.76,7.46,10,5.62,9.44,4.1,9.16,2.38,8,.88,6.82.82,3.28,1.55,3.32,3.34ZM10.9,8.2c.52-.53,2-2.2,1.24-2.8S9.78,7.05,9.48,7.29c-2.05,1.59-5,2.48-6.54,4.27C4.94,12.29,8.9,10.21,10.9,8.2ZM4.15,12.85c1,1.59,2.05,3.45,3.13,5,3.32,4.62,7.09,10.52,8.89,15.44,1.56,4.25.44,8.53,1.72,12.62A71.8,71.8,0,0,0,24,59.54c1.26,2.25,3.71,6.86,5.51,8,.89.55,3.67,0,4.82-.33a31.2,31.2,0,0,0,6.37-2.89c2-1.22,5.26-3.42,6.28-5.13s-.3-3.91-1.36-6.22c-4-8.76-9.55-20.15-16.93-23.15-1.55-.63-3.54-.1-4.82-1.21a12.73,12.73,0,0,1-2.43-3.26c-3.24-5.7-6-12.24-8.78-17.89-2.5,2,2.45,5.79,1,8.3-.75,1.31-3,1.85-4.42,2.21C8,16.29,6,14.08,5.68,12.17a3.36,3.36,0,0,0-1.52.42A.21.21,0,0,0,4.15,12.85Zm2.16-.64a18.61,18.61,0,0,0,3,4.67c4.79.23,3.63-4.8,1.77-7.62C9.67,10.28,7.61,11.26,6.31,12.21Z"/><path class="cls-1" d="M7,1.23c.32,0,.57.61.33.81A.44.44,0,1,1,7,1.23Z"/><path class="cls-1" d="M5.33,3.29c1.2.77-1.18,1,0,0Z"/><path class="cls-1" d="M2.78,5.37C3,5.6,3,5.81,2.8,6,2.28,6.21,2.19,5.3,2.78,5.37Z"/><path class="cls-1" d="M7.63,2.48a.6.6,0,0,1,.27.43.85.85,0,0,1-.56.34.12.12,0,0,0-.14-.09C7,2.85,7.29,2.66,7.63,2.48Z"/><path class="cls-1" d="M7.12,3.72c.23.32,0,.62-.36.65C6.29,4.14,6.73,3.42,7.12,3.72Z"/><path class="cls-1" d="M4.76,6.37C4.62,6.8,4,7,3.7,6.59,3.68,6.17,4.56,5.7,4.76,6.37Z"/><path class="cls-1" d="M8,5.66a.51.51,0,0,1,0,.52c-.15.11-.25,0-.39.07C7.1,5.78,7.65,5.41,8,5.66Z"/><path class="cls-1" d="M6.34,7c.13.27.06.5-.27.67C5.37,7.57,5.84,6.55,6.34,7Z"/><path class="cls-1" d="M4.13,8.11A.54.54,0,0,1,4.64,8a.41.41,0,0,1-.11.66A.54.54,0,0,1,4.13,8.11Z"/><path class="cls-1" d="M9.79,11.52c-1.34.36-.48-1.45,0,0Z"/><path class="cls-1" d="M10.24,11.83a.35.35,0,0,1,.57.25A.32.32,0,0,1,10.24,11.83Z"/><path class="cls-1" d="M8.56,13.12c.47.2,0,.8-.36.65C7.86,13.45,8.25,13.11,8.56,13.12Z"/><path class="cls-1" d="M9.88,14.85a.86.86,0,0,1,.35.56,3.65,3.65,0,0,1-.55.08C9.35,15.16,9.54,14.87,9.88,14.85Z"/><path class="cls-1" d="M12,14.57c-.18.18-.3.09-.44.11C11,13.94,12.2,14,12,14.57Z"/><path class="cls-1" d="M10.36,15.5c.34-.23.63-.3.82.09,0,.08-.14.14-.11.23C10.78,16,10.54,15.85,10.36,15.5Z"/><path class="cls-1" d="M19.3,28.1c.23,1.2-.23,2.23.07,3.44A3.59,3.59,0,0,1,19.3,28.1Z"/><path class="cls-1" d="M22.25,31.81a14.46,14.46,0,0,0-.71,3.41C21.35,34.07,20.88,32.06,22.25,31.81Z"/><path class="cls-1" d="M23.8,35.7a15,15,0,0,1-.65,3.37A3.85,3.85,0,0,1,23.8,35.7Z"/><path class="cls-1" d="M34.63,37c-1.62,8.86-1,18.25.06,27.75-1.87.8-4.91,2-5.8.24-.54-1.09-.13-4-.08-5.38a19.09,19.09,0,0,0-.1-5.29c-1.45.55-3.13,2-4.31.86-2-2-2.62-6-.78-7.34-.38-2,1.08-4,2.8-5.54.51-.45,1.34-.33,1.76-.74,1-1-.67-3.2.18-4.27.39-.31.59.14,1-.09C29,34.19,33.39,34.39,34.63,37Zm-1.93.59c2.15-.83-.94-2.88-2.2-1.79C31.12,36.47,32.92,35.89,32.7,37.62ZM31.58,37c-2.61-.9-.12,2.14,0,0ZM29,38.37a50.27,50.27,0,0,0,0,5.1c.08,3-.37,6.68,3.84,4.86.18-3.29.83-6.74.79-9.91A17.81,17.81,0,0,1,29,38.37Zm-1.91,4.91a8.44,8.44,0,0,0,1,2.93,5.41,5.41,0,0,0-.08-3.86C27.48,42.28,27.48,43,27.09,43.28Zm-2.32,4.65c.49.6,3.25,2.33,3.91,1.68.83-.83-2.62-4.89-2.37-5.94C24.87,44.52,23.36,46.23,24.77,47.93Zm-.51.57c-.83,0-1,.63-.54,1.18.75.91,3.34,1.25,4.74,1.08C27.35,50.55,25.44,48.56,24.26,48.5Zm-1,2c-.39,2.9,2.77,6.21,5.54,2.8a2.31,2.31,0,0,0-.16-1.78C26.63,52.09,25.17,50.36,23.27,50.47Zm6.2,0c.61,1.08,2.2.62,3.43.19a1.72,1.72,0,0,0,0-1.33C32,49.29,28.56,48.84,29.47,50.48Zm.14,2.72c.82,1.08,4.75.63,3.32-1.53C31.86,51.68,28.11,51.21,29.61,53.2Zm-.15,6.38c0,1.4-.5,4.1.11,5s3.14.54,4.3-.61c-.18-3.22-.38-6.44-.78-9.71a31.55,31.55,0,0,0-3.51,0A50.31,50.31,0,0,0,29.46,59.58Z"/><path class="cls-1" d="M37.7,42.71c0,2.61-.76,5.47-.91,8.2A27.62,27.62,0,0,1,37.7,42.71Z"/><path class="cls-1" d="M41.71,53.67c-.38,1.38-.58,3.09-1,4.28C40.8,56.5,40.63,54.71,41.71,53.67Z"/><path class="cls-1" d="M43.48,56.4a.63.63,0,0,1-.38.91l-.23-.37C43,56.76,43.14,56.37,43.48,56.4Z"/><path class="cls-1" d="M40.22,48.89a55,55,0,0,0-1.17,6.67C39.19,53.49,39,50.87,40.22,48.89Z"/></g></g></g></svg>