<svg xmlns="http://www.w3.org/2000/svg" xmlns:xlink="http://www.w3.org/1999/xlink" viewBox="0 0 68.65 69.44"><defs><style>.cls-1,.cls-10,.cls-100,.cls-101,.cls-102,.cls-103,.cls-104,.cls-105,.cls-106,.cls-107,.cls-108,.cls-109,.cls-11,.cls-110,.cls-111,.cls-112,.cls-113,.cls-114,.cls-115,.cls-116,.cls-117,.cls-118,.cls-119,.cls-12,.cls-120,.cls-121,.cls-122,.cls-123,.cls-124,.cls-125,.cls-126,.cls-127,.cls-128,.cls-129,.cls-13,.cls-130,.cls-131,.cls-132,.cls-133,.cls-134,.cls-135,.cls-136,.cls-137,.cls-138,.cls-139,.cls-14,.cls-140,.cls-141,.cls-142,.cls-143,.cls-144,.cls-145,.cls-146,.cls-147,.cls-148,.cls-149,.cls-15,.cls-150,.cls-151,.cls-152,.cls-153,.cls-154,.cls-155,.cls-156,.cls-157,.cls-158,.cls-159,.cls-16,.cls-160,.cls-161,.cls-162,.cls-163,.cls-164,.cls-165,.cls-166,.cls-167,.cls-168,.cls-169,.cls-17,.cls-170,.cls-171,.cls-172,.cls-173,.cls-174,.cls-175,.cls-176,.cls-177,.cls-178,.cls-179,.cls-18,.cls-180,.cls-181,.cls-182,.cls-183,.cls-184,.cls-185,.cls-186,.cls-187,.cls-188,.cls-189,.cls-19,.cls-190,.cls-191,.cls-192,.cls-193,.cls-194,.cls-195,.cls-196,.cls-197,.cls-198,.cls-199,.cls-2,.cls-20,.cls-200,.cls-201,.cls-202,.cls-203,.cls-204,.cls-205,.cls-206,.cls-207,.cls-208,.cls-209,.cls-21,.cls-210,.cls-211,.cls-212,.cls-213,.cls-214,.cls-215,.cls-216,.cls-217,.cls-218,.cls-219,.cls-22,.cls-220,.cls-221,.cls-222,.cls-223,.cls-224,.cls-225,.cls-226,.cls-227,.cls-228,.cls-229,.cls-23,.cls-230,.cls-231,.cls-232,.cls-233,.cls-24,.cls-25,.cls-26,.cls-27,.cls-28,.cls-29,.cls-3,.cls-30,.cls-31,.cls-32,.cls-33,.cls-34,.cls-35,.cls-36,.cls-37,.cls-38,.cls-39,.cls-4,.cls-40,.cls-41,.cls-42,.cls-43,.cls-44,.cls-45,.cls-46,.cls-47,.cls-48,.cls-49,.cls-5,.cls-50,.cls-51,.cls-52,.cls-53,.cls-54,.cls-55,.cls-56,.cls-57,.cls-58,.cls-59,.cls-6,.cls-60,.cls-61,.cls-62,.cls-63,.cls-64,.cls-65,.cls-66,.cls-67,.cls-68,.cls-69,.cls-7,.cls-70,.cls-71,.cls-72,.cls-73,.cls-74,.cls-75,.cls-76,.cls-77,.cls-78,.cls-79,.cls-8,.cls-80,.cls-81,.cls-82,.cls-83,.cls-84,.cls-85,.cls-86,.cls-87,.cls-88,.cls-89,.cls-9,.cls-90,.cls-91,.cls-92,.cls-93,.cls-94,.cls-95,.cls-96,.cls-97,.cls-98,.cls-99{fill:#12544a;stroke-miterlimit:10;stroke-width:0.34px;}.cls-1{stroke:url(#linear-gradient);}.cls-2{stroke:url(#linear-gradient-2);}.cls-3{stroke:url(#linear-gradient-3);}.cls-4{stroke:url(#linear-gradient-4);}.cls-5{stroke:url(#linear-gradient-5);}.cls-6{stroke:url(#linear-gradient-6);}.cls-7{stroke:url(#linear-gradient-7);}.cls-8{stroke:url(#linear-gradient-8);}.cls-9{stroke:url(#linear-gradient-9);}.cls-10{stroke:url(#linear-gradient-10);}.cls-11{stroke:url(#linear-gradient-11);}.cls-12{stroke:url(#linear-gradient-12);}.cls-13{stroke:url(#linear-gradient-13);}.cls-14{stroke:url(#linear-gradient-14);}.cls-15{stroke:url(#linear-gradient-15);}.cls-16{stroke:url(#linear-gradient-16);}.cls-17{stroke:url(#linear-gradient-17);}.cls-18{stroke:url(#linear-gradient-18);}.cls-19{stroke:url(#linear-gradient-19);}.cls-20{stroke:url(#linear-gradient-20);}.cls-21{stroke:url(#linear-gradient-21);}.cls-22{stroke:url(#linear-gradient-22);}.cls-23{stroke:url(#linear-gradient-23);}.cls-24{stroke:url(#linear-gradient-24);}.cls-25{stroke:url(#linear-gradient-25);}.cls-26{stroke:url(#linear-gradient-26);}.cls-27{stroke:url(#linear-gradient-27);}.cls-28{stroke:url(#linear-gradient-28);}.cls-29{stroke:url(#linear-gradient-29);}.cls-30{stroke:url(#linear-gradient-30);}.cls-31{stroke:url(#linear-gradient-31);}.cls-32{stroke:url(#linear-gradient-32);}.cls-33{stroke:url(#linear-gradient-33);}.cls-34{stroke:url(#linear-gradient-34);}.cls-35{stroke:url(#linear-gradient-35);}.cls-36{stroke:url(#linear-gradient-36);}.cls-37{stroke:url(#linear-gradient-37);}.cls-38{stroke:url(#linear-gradient-38);}.cls-39{stroke:url(#linear-gradient-39);}.cls-40{stroke:url(#linear-gradient-40);}.cls-41{stroke:url(#linear-gradient-41);}.cls-42{stroke:url(#linear-gradient-42);}.cls-43{stroke:url(#linear-gradient-43);}.cls-44{stroke:url(#linear-gradient-44);}.cls-45{stroke:url(#linear-gradient-45);}.cls-46{stroke:url(#linear-gradient-46);}.cls-47{stroke:url(#linear-gradient-47);}.cls-48{stroke:url(#linear-gradient-48);}.cls-49{stroke:url(#linear-gradient-49);}.cls-50{stroke:url(#linear-gradient-50);}.cls-51{stroke:url(#linear-gradient-51);}.cls-52{stroke:url(#linear-gradient-52);}.cls-53{stroke:url(#linear-gradient-53);}.cls-54{stroke:url(#linear-gradient-54);}.cls-55{stroke:url(#linear-gradient-55);}.cls-56{stroke:url(#linear-gradient-56);}.cls-57{stroke:url(#linear-gradient-57);}.cls-58{stroke:url(#linear-gradient-58);}.cls-59{stroke:url(#linear-gradient-59);}.cls-60{stroke:url(#linear-gradient-60);}.cls-61{stroke:url(#linear-gradient-61);}.cls-62{stroke:url(#linear-gradient-62);}.cls-63{stroke:url(#linear-gradient-63);}.cls-64{stroke:url(#linear-gradient-64);}.cls-65{stroke:url(#linear-gradient-65);}.cls-66{stroke:url(#linear-gradient-66);}.cls-67{stroke:url(#linear-gradient-67);}.cls-68{stroke:url(#linear-gradient-68);}.cls-69{stroke:url(#linear-gradient-69);}.cls-70{stroke:url(#linear-gradient-70);}.cls-71{stroke:url(#linear-gradient-71);}.cls-72{stroke:url(#linear-gradient-72);}.cls-73{stroke:url(#linear-gradient-73);}.cls-74{stroke:url(#linear-gradient-74);}.cls-75{stroke:url(#linear-gradient-75);}.cls-76{stroke:url(#linear-gradient-76);}.cls-77{stroke:url(#linear-gradient-77);}.cls-78{stroke:url(#linear-gradient-78);}.cls-79{stroke:url(#linear-gradient-79);}.cls-80{stroke:url(#linear-gradient-80);}.cls-81{stroke:url(#linear-gradient-81);}.cls-82{stroke:url(#linear-gradient-82);}.cls-83{stroke:url(#linear-gradient-83);}.cls-84{stroke:url(#linear-gradient-84);}.cls-85{stroke:url(#linear-gradient-85);}.cls-86{stroke:url(#linear-gradient-86);}.cls-87{stroke:url(#linear-gradient-87);}.cls-88{stroke:url(#linear-gradient-88);}.cls-89{stroke:url(#linear-gradient-89);}.cls-90{stroke:url(#linear-gradient-90);}.cls-91{stroke:url(#linear-gradient-91);}.cls-92{stroke:url(#linear-gradient-92);}.cls-93{stroke:url(#linear-gradient-93);}.cls-94{stroke:url(#linear-gradient-94);}.cls-95{stroke:url(#linear-gradient-95);}.cls-96{stroke:url(#linear-gradient-96);}.cls-97{stroke:url(#linear-gradient-97);}.cls-98{stroke:url(#linear-gradient-98);}.cls-99{stroke:url(#linear-gradient-99);}.cls-100{stroke:url(#linear-gradient-100);}.cls-101{stroke:url(#linear-gradient-101);}.cls-102{stroke:url(#linear-gradient-102);}.cls-103{stroke:url(#linear-gradient-103);}.cls-104{stroke:url(#linear-gradient-104);}.cls-105{stroke:url(#linear-gradient-105);}.cls-106{stroke:url(#linear-gradient-106);}.cls-107{stroke:url(#linear-gradient-107);}.cls-108{stroke:url(#linear-gradient-108);}.cls-109{stroke:url(#linear-gradient-109);}.cls-110{stroke:url(#linear-gradient-110);}.cls-111{stroke:url(#linear-gradient-111);}.cls-112{stroke:url(#linear-gradient-112);}.cls-113{stroke:url(#linear-gradient-113);}.cls-114{stroke:url(#linear-gradient-114);}.cls-115{stroke:url(#linear-gradient-115);}.cls-116{stroke:url(#linear-gradient-116);}.cls-117{stroke:url(#linear-gradient-117);}.cls-118{stroke:url(#linear-gradient-118);}.cls-119{stroke:url(#linear-gradient-119);}.cls-120{stroke:url(#linear-gradient-120);}.cls-121{stroke:url(#linear-gradient-121);}.cls-122{stroke:url(#linear-gradient-122);}.cls-123{stroke:url(#linear-gradient-123);}.cls-124{stroke:url(#linear-gradient-124);}.cls-125{stroke:url(#linear-gradient-125);}.cls-126{stroke:url(#linear-gradient-126);}.cls-127{stroke:url(#linear-gradient-127);}.cls-128{stroke:url(#linear-gradient-128);}.cls-129{stroke:url(#linear-gradient-129);}.cls-130{stroke:url(#linear-gradient-130);}.cls-131{stroke:url(#linear-gradient-131);}.cls-132{stroke:url(#linear-gradient-132);}.cls-133{stroke:url(#linear-gradient-133);}.cls-134{stroke:url(#linear-gradient-134);}.cls-135{stroke:url(#linear-gradient-135);}.cls-136{stroke:url(#linear-gradient-136);}.cls-137{stroke:url(#linear-gradient-137);}.cls-138{stroke:url(#linear-gradient-138);}.cls-139{stroke:url(#linear-gradient-139);}.cls-140{stroke:url(#linear-gradient-140);}.cls-141{stroke:url(#linear-gradient-141);}.cls-142{stroke:url(#linear-gradient-142);}.cls-143{stroke:url(#linear-gradient-143);}.cls-144{stroke:url(#linear-gradient-144);}.cls-145{stroke:url(#linear-gradient-145);}.cls-146{stroke:url(#linear-gradient-146);}.cls-147{stroke:url(#linear-gradient-147);}.cls-148{stroke:url(#linear-gradient-148);}.cls-149{stroke:url(#linear-gradient-149);}.cls-150{stroke:url(#linear-gradient-150);}.cls-151{stroke:url(#linear-gradient-151);}.cls-152{stroke:url(#linear-gradient-152);}.cls-153{stroke:url(#linear-gradient-153);}.cls-154{stroke:url(#linear-gradient-154);}.cls-155{stroke:url(#linear-gradient-155);}.cls-156{stroke:url(#linear-gradient-156);}.cls-157{stroke:url(#linear-gradient-157);}.cls-158{stroke:url(#linear-gradient-158);}.cls-159{stroke:url(#linear-gradient-159);}.cls-160{stroke:url(#linear-gradient-160);}.cls-161{stroke:url(#linear-gradient-161);}.cls-162{stroke:url(#linear-gradient-162);}.cls-163{stroke:url(#linear-gradient-163);}.cls-164{stroke:url(#linear-gradient-164);}.cls-165{stroke:url(#linear-gradient-165);}.cls-166{stroke:url(#linear-gradient-166);}.cls-167{stroke:url(#linear-gradient-167);}.cls-168{stroke:url(#linear-gradient-168);}.cls-169{stroke:url(#linear-gradient-169);}.cls-170{stroke:url(#linear-gradient-170);}.cls-171{stroke:url(#linear-gradient-171);}.cls-172{stroke:url(#linear-gradient-172);}.cls-173{stroke:url(#linear-gradient-173);}.cls-174{stroke:url(#linear-gradient-174);}.cls-175{stroke:url(#linear-gradient-175);}.cls-176{stroke:url(#linear-gradient-176);}.cls-177{stroke:url(#linear-gradient-177);}.cls-178{stroke:url(#linear-gradient-178);}.cls-179{stroke:url(#linear-gradient-179);}.cls-180{stroke:url(#linear-gradient-180);}.cls-181{stroke:url(#linear-gradient-181);}.cls-182{stroke:url(#linear-gradient-182);}.cls-183{stroke:url(#linear-gradient-183);}.cls-184{stroke:url(#linear-gradient-184);}.cls-185{stroke:url(#linear-gradient-185);}.cls-186{stroke:url(#linear-gradient-186);}.cls-187{stroke:url(#linear-gradient-187);}.cls-188{stroke:url(#linear-gradient-188);}.cls-189{stroke:url(#linear-gradient-189);}.cls-190{stroke:url(#linear-gradient-190);}.cls-191{stroke:url(#linear-gradient-191);}.cls-192{stroke:url(#linear-gradient-192);}.cls-193{stroke:url(#linear-gradient-193);}.cls-194{stroke:url(#linear-gradient-194);}.cls-195{stroke:url(#linear-gradient-195);}.cls-196{stroke:url(#linear-gradient-196);}.cls-197{stroke:url(#linear-gradient-197);}.cls-198{stroke:url(#linear-gradient-198);}.cls-199{stroke:url(#linear-gradient-199);}.cls-200{stroke:url(#linear-gradient-200);}.cls-201{stroke:url(#linear-gradient-201);}.cls-202{stroke:url(#linear-gradient-202);}.cls-203{stroke:url(#linear-gradient-203);}.cls-204{stroke:url(#linear-gradient-204);}.cls-205{stroke:url(#linear-gradient-205);}.cls-206{stroke:url(#linear-gradient-206);}.cls-207{stroke:url(#linear-gradient-207);}.cls-208{stroke:url(#linear-gradient-208);}.cls-209{stroke:url(#linear-gradient-209);}.cls-210{stroke:url(#linear-gradient-210);}.cls-211{stroke:url(#linear-gradient-211);}.cls-212{stroke:url(#linear-gradient-212);}.cls-213{stroke:url(#linear-gradient-213);}.cls-214{stroke:url(#linear-gradient-214);}.cls-215{stroke:url(#linear-gradient-215);}.cls-216{stroke:url(#linear-gradient-216);}.cls-217{stroke:url(#linear-gradient-217);}.cls-218{stroke:url(#linear-gradient-218);}.cls-219{stroke:url(#linear-gradient-219);}.cls-220{stroke:url(#linear-gradient-220);}.cls-221{stroke:url(#linear-gradient-221);}.cls-222{stroke:url(#linear-gradient-222);}.cls-223{stroke:url(#linear-gradient-223);}.cls-224{stroke:url(#linear-gradient-224);}.cls-225{stroke:url(#linear-gradient-225);}.cls-226{stroke:url(#linear-gradient-226);}.cls-227{stroke:url(#linear-gradient-227);}.cls-228{stroke:url(#linear-gradient-228);}.cls-229{stroke:url(#linear-gradient-229);}.cls-230{stroke:url(#linear-gradient-230);}.cls-231{stroke:url(#linear-gradient-231);}.cls-232{stroke:url(#linear-gradient-232);}.cls-233{stroke:url(#linear-gradient-233);}</style><linearGradient id="linear-gradient" x1="266.08" y1="38.95" x2="284.24" y2="38.95" gradientTransform="translate(-201.95 -103.03) rotate(27.66)" gradientUnits="userSpaceOnUse"><stop offset="0" stop-color="#fcd6c6"/><stop offset="1" stop-color="#ed997e"/></linearGradient><linearGradient id="linear-gradient-2" x1="266.29" y1="39.05" x2="284.19" y2="39.05" xlink:href="#linear-gradient"/><linearGradient id="linear-gradient-3" x1="268.42" y1="43.89" x2="268.92" y2="43.89" xlink:href="#linear-gradient"/><linearGradient id="linear-gradient-4" x1="269.4" y1="43.3" x2="270.03" y2="43.3" xlink:href="#linear-gradient"/><linearGradient id="linear-gradient-5" x1="270.36" y1="42.77" x2="271.02" y2="42.77" xlink:href="#linear-gradient"/><linearGradient id="linear-gradient-6" x1="271.2" y1="42.24" x2="272.1" y2="42.24" xlink:href="#linear-gradient"/><linearGradient id="linear-gradient-7" x1="272.2" y1="41.58" x2="273.29" y2="41.58" xlink:href="#linear-gradient"/><linearGradient id="linear-gradient-8" x1="273.26" y1="40.91" x2="274.58" y2="40.91" xlink:href="#linear-gradient"/><linearGradient id="linear-gradient-9" x1="274.19" y1="40.26" x2="275.83" y2="40.26" xlink:href="#linear-gradient"/><linearGradient id="linear-gradient-10" x1="275.34" y1="39.49" x2="276.93" y2="39.49" xlink:href="#linear-gradient"/><linearGradient id="linear-gradient-11" x1="276.31" y1="38.8" x2="277.79" y2="38.8" xlink:href="#linear-gradient"/><linearGradient id="linear-gradient-12" x1="277.32" y1="38.02" x2="278.66" y2="38.02" xlink:href="#linear-gradient"/><linearGradient id="linear-gradient-13" x1="278.47" y1="37.16" x2="279.65" y2="37.16" xlink:href="#linear-gradient"/><linearGradient id="linear-gradient-14" x1="279.65" y1="36.35" x2="280.51" y2="36.35" xlink:href="#linear-gradient"/><linearGradient id="linear-gradient-15" x1="280.45" y1="35.71" x2="281.3" y2="35.71" xlink:href="#linear-gradient"/><linearGradient id="linear-gradient-16" x1="281.48" y1="34.68" x2="282" y2="34.68" xlink:href="#linear-gradient"/><linearGradient id="linear-gradient-17" x1="282.21" y1="34.14" x2="282.75" y2="34.14" xlink:href="#linear-gradient"/><linearGradient id="linear-gradient-18" x1="267.91" y1="43.61" x2="269.03" y2="43.61" xlink:href="#linear-gradient"/><linearGradient id="linear-gradient-19" x1="268.36" y1="42.81" x2="270.39" y2="42.81" xlink:href="#linear-gradient"/><linearGradient id="linear-gradient-20" x1="268.85" y1="42.07" x2="271.54" y2="42.07" xlink:href="#linear-gradient"/><linearGradient id="linear-gradient-21" x1="269.24" y1="41.34" x2="272.77" y2="41.34" xlink:href="#linear-gradient"/><linearGradient id="linear-gradient-22" x1="269.92" y1="40.52" x2="274.07" y2="40.52" xlink:href="#linear-gradient"/><linearGradient id="linear-gradient-23" x1="270.52" y1="39.64" x2="275.52" y2="39.64" xlink:href="#linear-gradient"/><linearGradient id="linear-gradient-24" x1="271.11" y1="38.82" x2="276.88" y2="38.82" xlink:href="#linear-gradient"/><linearGradient id="linear-gradient-25" x1="272.17" y1="38.02" x2="278" y2="38.02" xlink:href="#linear-gradient"/><linearGradient id="linear-gradient-26" x1="273.26" y1="37.38" x2="278.83" y2="37.38" xlink:href="#linear-gradient"/><linearGradient id="linear-gradient-27" x1="274.59" y1="36.75" x2="279.59" y2="36.75" xlink:href="#linear-gradient"/><linearGradient id="linear-gradient-28" x1="276.02" y1="36.02" x2="280.49" y2="36.02" xlink:href="#linear-gradient"/><linearGradient id="linear-gradient-29" x1="277.51" y1="35.32" x2="281.19" y2="35.32" xlink:href="#linear-gradient"/><linearGradient id="linear-gradient-30" x1="278.44" y1="34.78" x2="281.99" y2="34.78" xlink:href="#linear-gradient"/><linearGradient id="linear-gradient-31" x1="280.75" y1="34.31" x2="282.21" y2="34.31" xlink:href="#linear-gradient"/><linearGradient id="linear-gradient-32" x1="281.5" y1="33.79" x2="282.95" y2="33.79" xlink:href="#linear-gradient"/><linearGradient id="linear-gradient-33" x1="266.65" y1="38.94" x2="284.05" y2="38.94" xlink:href="#linear-gradient"/><linearGradient id="linear-gradient-34" x1="245.62" y1="35.1" x2="284.13" y2="35.1" xlink:href="#linear-gradient"/><linearGradient id="linear-gradient-35" x1="245.65" y1="31.27" x2="284.12" y2="31.27" xlink:href="#linear-gradient"/><linearGradient id="linear-gradient-36" x1="249.76" y1="33.75" x2="250.87" y2="33.75" xlink:href="#linear-gradient"/><linearGradient id="linear-gradient-37" x1="251.35" y1="33.93" x2="253.55" y2="33.93" xlink:href="#linear-gradient"/><linearGradient id="linear-gradient-38" x1="253.01" y1="34.13" x2="255.81" y2="34.13" xlink:href="#linear-gradient"/><linearGradient id="linear-gradient-39" x1="254.5" y1="34.32" x2="258.21" y2="34.32" xlink:href="#linear-gradient"/><linearGradient id="linear-gradient-40" x1="256.44" y1="34.45" x2="260.83" y2="34.45" xlink:href="#linear-gradient"/><linearGradient id="linear-gradient-41" x1="258.4" y1="34.64" x2="263.7" y2="34.64" xlink:href="#linear-gradient"/><linearGradient id="linear-gradient-42" x1="260.2" y1="34.77" x2="266.41" y2="34.77" xlink:href="#linear-gradient"/><linearGradient id="linear-gradient-43" x1="262.62" y1="34.78" x2="268.84" y2="34.78" xlink:href="#linear-gradient"/><linearGradient id="linear-gradient-44" x1="264.82" y1="34.68" x2="270.73" y2="34.68" xlink:href="#linear-gradient"/><linearGradient id="linear-gradient-45" x1="267.3" y1="34.47" x2="272.61" y2="34.47" xlink:href="#linear-gradient"/><linearGradient id="linear-gradient-46" x1="270.03" y1="34.29" x2="274.76" y2="34.29" xlink:href="#linear-gradient"/><linearGradient id="linear-gradient-47" x1="272.82" y1="34.13" x2="276.6" y2="34.13" xlink:href="#linear-gradient"/><linearGradient id="linear-gradient-48" x1="274.68" y1="33.98" x2="278.36" y2="33.98" xlink:href="#linear-gradient"/><linearGradient id="linear-gradient-49" x1="278.09" y1="33.33" x2="279.58" y2="33.33" xlink:href="#linear-gradient"/><linearGradient id="linear-gradient-50" x1="279.71" y1="33.28" x2="281.21" y2="33.28" xlink:href="#linear-gradient"/><linearGradient id="linear-gradient-51" x1="249.73" y1="33.14" x2="250.88" y2="33.14" xlink:href="#linear-gradient"/><linearGradient id="linear-gradient-52" x1="251.3" y1="32.87" x2="253.56" y2="32.87" xlink:href="#linear-gradient"/><linearGradient id="linear-gradient-53" x1="252.94" y1="32.61" x2="255.83" y2="32.61" xlink:href="#linear-gradient"/><linearGradient id="linear-gradient-54" x1="254.41" y1="32.34" x2="258.23" y2="32.34" xlink:href="#linear-gradient"/><linearGradient id="linear-gradient-55" x1="256.34" y1="32.13" x2="260.85" y2="32.13" xlink:href="#linear-gradient"/><linearGradient id="linear-gradient-56" x1="258.27" y1="31.85" x2="263.72" y2="31.85" xlink:href="#linear-gradient"/><linearGradient id="linear-gradient-57" x1="260.05" y1="31.64" x2="266.45" y2="31.64" xlink:href="#linear-gradient"/><linearGradient id="linear-gradient-58" x1="262.47" y1="31.55" x2="268.87" y2="31.55" xlink:href="#linear-gradient"/><linearGradient id="linear-gradient-59" x1="264.68" y1="31.57" x2="270.77" y2="31.57" xlink:href="#linear-gradient"/><linearGradient id="linear-gradient-60" x1="267.17" y1="31.7" x2="272.64" y2="31.7" xlink:href="#linear-gradient"/><linearGradient id="linear-gradient-61" x1="269.92" y1="31.79" x2="274.79" y2="31.79" xlink:href="#linear-gradient"/><linearGradient id="linear-gradient-62" x1="272.71" y1="31.87" x2="276.62" y2="31.87" xlink:href="#linear-gradient"/><linearGradient id="linear-gradient-63" x1="274.59" y1="31.95" x2="278.38" y2="31.95" xlink:href="#linear-gradient"/><linearGradient id="linear-gradient-64" x1="278.05" y1="32.52" x2="279.59" y2="32.52" xlink:href="#linear-gradient"/><linearGradient id="linear-gradient-65" x1="279.67" y1="32.51" x2="281.22" y2="32.51" xlink:href="#linear-gradient"/><linearGradient id="linear-gradient-66" x1="246.33" y1="33.17" x2="283.96" y2="33.17" xlink:href="#linear-gradient"/><linearGradient id="linear-gradient-67" x1="241.3" y1="20.5" x2="284.18" y2="20.5" xlink:href="#linear-gradient"/><linearGradient id="linear-gradient-68" x1="241.14" y1="20.56" x2="284.28" y2="20.56" xlink:href="#linear-gradient"/><linearGradient id="linear-gradient-69" x1="245.2" y1="11.2" x2="246.94" y2="11.2" xlink:href="#linear-gradient"/><linearGradient id="linear-gradient-70" x1="246.68" y1="12.85" x2="249.94" y2="12.85" xlink:href="#linear-gradient"/><linearGradient id="linear-gradient-71" x1="248.21" y1="14.38" x2="252.51" y2="14.38" xlink:href="#linear-gradient"/><linearGradient id="linear-gradient-72" x1="249.55" y1="15.91" x2="255.21" y2="15.91" xlink:href="#linear-gradient"/><linearGradient id="linear-gradient-73" x1="251.49" y1="17.58" x2="258.15" y2="17.58" xlink:href="#linear-gradient"/><linearGradient id="linear-gradient-74" x1="253.34" y1="19.42" x2="261.37" y2="19.42" xlink:href="#linear-gradient"/><linearGradient id="linear-gradient-75" x1="255.13" y1="21.08" x2="264.42" y2="21.08" xlink:href="#linear-gradient"/><linearGradient id="linear-gradient-76" x1="257.76" y1="22.72" x2="267.15" y2="22.72" xlink:href="#linear-gradient"/><linearGradient id="linear-gradient-77" x1="260.32" y1="23.99" x2="269.27" y2="23.99" xlink:href="#linear-gradient"/><linearGradient id="linear-gradient-78" x1="263.32" y1="25.23" x2="271.35" y2="25.23" xlink:href="#linear-gradient"/><linearGradient id="linear-gradient-79" x1="266.58" y1="26.67" x2="273.76" y2="26.67" xlink:href="#linear-gradient"/><linearGradient id="linear-gradient-80" x1="269.9" y1="28.05" x2="275.78" y2="28.05" xlink:href="#linear-gradient"/><linearGradient id="linear-gradient-81" x1="272.1" y1="29.11" x2="277.78" y2="29.11" xlink:href="#linear-gradient"/><linearGradient id="linear-gradient-82" x1="276.8" y1="29.94" x2="279.1" y2="29.94" xlink:href="#linear-gradient"/><linearGradient id="linear-gradient-83" x1="278.64" y1="30.98" x2="280.92" y2="30.98" xlink:href="#linear-gradient"/><linearGradient id="linear-gradient-84" x1="246.09" y1="10.52" x2="246.85" y2="10.52" xlink:href="#linear-gradient"/><linearGradient id="linear-gradient-85" x1="248.39" y1="11.65" x2="249.63" y2="11.65" xlink:href="#linear-gradient"/><linearGradient id="linear-gradient-86" x1="250.63" y1="12.68" x2="252.08" y2="12.68" xlink:href="#linear-gradient"/><linearGradient id="linear-gradient-87" x1="252.7" y1="13.68" x2="254.65" y2="13.68" xlink:href="#linear-gradient"/><linearGradient id="linear-gradient-88" x1="255.16" y1="14.98" x2="257.5" y2="14.98" xlink:href="#linear-gradient"/><linearGradient id="linear-gradient-89" x1="257.76" y1="16.29" x2="260.6" y2="16.29" xlink:href="#linear-gradient"/><linearGradient id="linear-gradient-90" x1="260.09" y1="17.57" x2="263.55" y2="17.57" xlink:href="#linear-gradient"/><linearGradient id="linear-gradient-91" x1="262.87" y1="19.1" x2="266.25" y2="19.1" xlink:href="#linear-gradient"/><linearGradient id="linear-gradient-92" x1="265.23" y1="20.51" x2="268.41" y2="20.51" xlink:href="#linear-gradient"/><linearGradient id="linear-gradient-93" x1="267.72" y1="22.11" x2="270.58" y2="22.11" xlink:href="#linear-gradient"/><linearGradient id="linear-gradient-94" x1="270.53" y1="23.87" x2="273.07" y2="23.87" xlink:href="#linear-gradient"/><linearGradient id="linear-gradient-95" x1="273.36" y1="25.52" x2="275.27" y2="25.52" xlink:href="#linear-gradient"/><linearGradient id="linear-gradient-96" x1="275.34" y1="26.83" x2="277.21" y2="26.83" xlink:href="#linear-gradient"/><linearGradient id="linear-gradient-97" x1="278.04" y1="29.03" x2="278.91" y2="29.03" xlink:href="#linear-gradient"/><linearGradient id="linear-gradient-98" x1="279.84" y1="30.12" x2="280.74" y2="30.12" xlink:href="#linear-gradient"/><linearGradient id="linear-gradient-99" x1="241.74" y1="20.55" x2="284.04" y2="20.55" xlink:href="#linear-gradient"/><linearGradient id="linear-gradient-100" x1="283.73" y1="29.19" x2="304.38" y2="29.19" xlink:href="#linear-gradient"/><linearGradient id="linear-gradient-101" x1="283.7" y1="29.26" x2="304.48" y2="29.26" xlink:href="#linear-gradient"/><linearGradient id="linear-gradient-102" x1="301.22" y1="26.57" x2="302.26" y2="26.57" xlink:href="#linear-gradient"/><linearGradient id="linear-gradient-103" x1="299.69" y1="27.1" x2="301.63" y2="27.1" xlink:href="#linear-gradient"/><linearGradient id="linear-gradient-104" x1="298.4" y1="27.59" x2="300.94" y2="27.59" xlink:href="#linear-gradient"/><linearGradient id="linear-gradient-105" x1="297.03" y1="28.09" x2="300.36" y2="28.09" xlink:href="#linear-gradient"/><linearGradient id="linear-gradient-106" x1="295.56" y1="28.61" x2="299.48" y2="28.61" xlink:href="#linear-gradient"/><linearGradient id="linear-gradient-107" x1="293.94" y1="29.19" x2="298.66" y2="29.19" xlink:href="#linear-gradient"/><linearGradient id="linear-gradient-108" x1="292.4" y1="29.71" x2="297.89" y2="29.71" xlink:href="#linear-gradient"/><linearGradient id="linear-gradient-109" x1="291.11" y1="30.2" x2="296.64" y2="30.2" xlink:href="#linear-gradient"/><linearGradient id="linear-gradient-110" x1="290.15" y1="30.56" x2="295.42" y2="30.56" xlink:href="#linear-gradient"/><linearGradient id="linear-gradient-111" x1="289.24" y1="30.89" x2="293.97" y2="30.89" xlink:href="#linear-gradient"/><linearGradient id="linear-gradient-112" x1="288.18" y1="31.28" x2="292.4" y2="31.28" xlink:href="#linear-gradient"/><linearGradient id="linear-gradient-113" x1="287.32" y1="31.66" x2="290.76" y2="31.66" xlink:href="#linear-gradient"/><linearGradient id="linear-gradient-114" x1="286.4" y1="31.95" x2="289.73" y2="31.95" xlink:href="#linear-gradient"/><linearGradient id="linear-gradient-115" x1="286.04" y1="32.07" x2="287.41" y2="32.07" xlink:href="#linear-gradient"/><linearGradient id="linear-gradient-116" x1="285.18" y1="32.37" x2="286.55" y2="32.37" xlink:href="#linear-gradient"/><linearGradient id="linear-gradient-117" x1="301.33" y1="26.25" x2="301.91" y2="26.25" xlink:href="#linear-gradient"/><linearGradient id="linear-gradient-118" x1="299.91" y1="26.54" x2="301.01" y2="26.54" xlink:href="#linear-gradient"/><linearGradient id="linear-gradient-119" x1="298.71" y1="26.79" x2="300.05" y2="26.79" xlink:href="#linear-gradient"/><linearGradient id="linear-gradient-120" x1="297.42" y1="27.04" x2="299.21" y2="27.04" xlink:href="#linear-gradient"/><linearGradient id="linear-gradient-121" x1="296.02" y1="27.39" x2="298.14" y2="27.39" xlink:href="#linear-gradient"/><linearGradient id="linear-gradient-122" x1="294.49" y1="27.72" x2="297.05" y2="27.72" xlink:href="#linear-gradient"/><linearGradient id="linear-gradient-123" x1="293.01" y1="28.06" x2="296.08" y2="28.06" xlink:href="#linear-gradient"/><linearGradient id="linear-gradient-124" x1="291.75" y1="28.5" x2="294.78" y2="28.5" xlink:href="#linear-gradient"/><linearGradient id="linear-gradient-125" x1="290.76" y1="28.92" x2="293.62" y2="28.92" xlink:href="#linear-gradient"/><linearGradient id="linear-gradient-126" x1="289.78" y1="29.43" x2="292.36" y2="29.43" xlink:href="#linear-gradient"/><linearGradient id="linear-gradient-127" x1="288.66" y1="29.97" x2="290.96" y2="29.97" xlink:href="#linear-gradient"/><linearGradient id="linear-gradient-128" x1="287.72" y1="30.47" x2="289.51" y2="30.47" xlink:href="#linear-gradient"/><linearGradient id="linear-gradient-129" x1="286.81" y1="30.87" x2="288.55" y2="30.87" xlink:href="#linear-gradient"/><linearGradient id="linear-gradient-130" x1="286.22" y1="31.64" x2="286.93" y2="31.64" xlink:href="#linear-gradient"/><linearGradient id="linear-gradient-131" x1="285.35" y1="31.96" x2="286.09" y2="31.96" xlink:href="#linear-gradient"/><linearGradient id="linear-gradient-132" x1="283.89" y1="29.24" x2="303.84" y2="29.24" xlink:href="#linear-gradient"/><linearGradient id="linear-gradient-133" x1="283.71" y1="17.4" x2="306.2" y2="17.4" xlink:href="#linear-gradient"/><linearGradient id="linear-gradient-134" x1="283.59" y1="17.46" x2="306.47" y2="17.46" xlink:href="#linear-gradient"/><linearGradient id="linear-gradient-135" x1="303.11" y1="5.71" x2="304.61" y2="5.71" xlink:href="#linear-gradient"/><linearGradient id="linear-gradient-136" x1="301.45" y1="7.57" x2="304.14" y2="7.57" xlink:href="#linear-gradient"/><linearGradient id="linear-gradient-137" x1="300.03" y1="9.29" x2="303.65" y2="9.29" xlink:href="#linear-gradient"/><linearGradient id="linear-gradient-138" x1="298.52" y1="11" x2="303.27" y2="11" xlink:href="#linear-gradient"/><linearGradient id="linear-gradient-139" x1="296.91" y1="12.95" x2="302.48" y2="12.95" xlink:href="#linear-gradient"/><linearGradient id="linear-gradient-140" x1="295.12" y1="15.04" x2="301.84" y2="15.04" xlink:href="#linear-gradient"/><linearGradient id="linear-gradient-141" x1="293.46" y1="16.97" x2="301.15" y2="16.97" xlink:href="#linear-gradient"/><linearGradient id="linear-gradient-142" x1="292.01" y1="18.96" x2="299.83" y2="18.96" xlink:href="#linear-gradient"/><linearGradient id="linear-gradient-143" x1="290.94" y1="20.59" x2="298.41" y2="20.59" xlink:href="#linear-gradient"/><linearGradient id="linear-gradient-144" x1="289.92" y1="22.26" x2="296.62" y2="22.26" xlink:href="#linear-gradient"/><linearGradient id="linear-gradient-145" x1="288.72" y1="24.17" x2="294.72" y2="24.17" xlink:href="#linear-gradient"/><linearGradient id="linear-gradient-146" x1="287.79" y1="25.97" x2="292.77" y2="25.97" xlink:href="#linear-gradient"/><linearGradient id="linear-gradient-147" x1="286.73" y1="27.38" x2="291.53" y2="27.38" xlink:href="#linear-gradient"/><linearGradient id="linear-gradient-148" x1="286.29" y1="28.91" x2="288.25" y2="28.91" xlink:href="#linear-gradient"/><linearGradient id="linear-gradient-149" x1="285.35" y1="30.22" x2="287.26" y2="30.22" xlink:href="#linear-gradient"/><linearGradient id="linear-gradient-150" x1="303.06" y1="5.35" x2="303.66" y2="5.35" xlink:href="#linear-gradient"/><linearGradient id="linear-gradient-151" x1="301.64" y1="6.95" x2="302.23" y2="6.95" xlink:href="#linear-gradient"/><linearGradient id="linear-gradient-152" x1="300.29" y1="8.41" x2="300.92" y2="8.41" xlink:href="#linear-gradient"/><linearGradient id="linear-gradient-153" x1="298.96" y1="9.84" x2="299.6" y2="9.84" xlink:href="#linear-gradient"/><linearGradient id="linear-gradient-154" x1="297.49" y1="11.59" x2="298.14" y2="11.59" xlink:href="#linear-gradient"/><linearGradient id="linear-gradient-155" x1="295.88" y1="13.41" x2="296.55" y2="13.41" xlink:href="#linear-gradient"/><linearGradient id="linear-gradient-156" x1="294.44" y1="15.14" x2="295.08" y2="15.14" xlink:href="#linear-gradient"/><linearGradient id="linear-gradient-157" x1="292.97" y1="17.08" x2="293.64" y2="17.08" xlink:href="#linear-gradient"/><linearGradient id="linear-gradient-158" x1="291.81" y1="18.78" x2="292.5" y2="18.78" xlink:href="#linear-gradient"/><linearGradient id="linear-gradient-159" x1="290.68" y1="20.64" x2="291.35" y2="20.64" xlink:href="#linear-gradient"/><linearGradient id="linear-gradient-160" x1="289.37" y1="22.71" x2="290.03" y2="22.71" xlink:href="#linear-gradient"/><linearGradient id="linear-gradient-161" x1="288.1" y1="24.65" x2="288.79" y2="24.65" xlink:href="#linear-gradient"/><linearGradient id="linear-gradient-162" x1="287.14" y1="26.19" x2="287.81" y2="26.19" xlink:href="#linear-gradient"/><linearGradient id="linear-gradient-163" x1="286.31" y1="28.44" x2="286.92" y2="28.44" xlink:href="#linear-gradient"/><linearGradient id="linear-gradient-164" x1="285.38" y1="29.77" x2="285.98" y2="29.77" xlink:href="#linear-gradient"/><linearGradient id="linear-gradient-165" x1="283.81" y1="17.57" x2="306.07" y2="17.57" xlink:href="#linear-gradient"/><linearGradient id="linear-gradient-166" x1="283.77" y1="8.26" x2="291.6" y2="8.26" xlink:href="#linear-gradient"/><linearGradient id="linear-gradient-167" x1="280.25" y1="8.28" x2="287.97" y2="8.28" xlink:href="#linear-gradient"/><linearGradient id="linear-gradient-168" x1="287.1" y1="-10.62" x2="288.39" y2="-10.62" xlink:href="#linear-gradient"/><linearGradient id="linear-gradient-169" x1="286.72" y1="-7.84" x2="288.92" y2="-7.84" xlink:href="#linear-gradient"/><linearGradient id="linear-gradient-170" x1="286.38" y1="-5.29" x2="289.46" y2="-5.29" xlink:href="#linear-gradient"/><linearGradient id="linear-gradient-171" x1="286.02" y1="-2.76" x2="290.03" y2="-2.76" xlink:href="#linear-gradient"/><linearGradient id="linear-gradient-172" x1="285.67" y1="0.2" x2="290.35" y2="0.2" xlink:href="#linear-gradient"/><linearGradient id="linear-gradient-173" x1="285.26" y1="3.33" x2="290.88" y2="3.33" xlink:href="#linear-gradient"/><linearGradient id="linear-gradient-174" x1="284.89" y1="6.27" x2="291.23" y2="6.27" xlink:href="#linear-gradient"/><linearGradient id="linear-gradient-175" x1="284.62" y1="9.4" x2="291.14" y2="9.4" xlink:href="#linear-gradient"/><linearGradient id="linear-gradient-176" x1="284.46" y1="12.05" x2="290.72" y2="12.05" xlink:href="#linear-gradient"/><linearGradient id="linear-gradient-177" x1="284.36" y1="14.85" x2="289.97" y2="14.85" xlink:href="#linear-gradient"/><linearGradient id="linear-gradient-178" x1="284.22" y1="17.99" x2="289.24" y2="17.99" xlink:href="#linear-gradient"/><linearGradient id="linear-gradient-179" x1="284.2" y1="20.97" x2="288.48" y2="20.97" xlink:href="#linear-gradient"/><linearGradient id="linear-gradient-180" x1="283.97" y1="23.31" x2="288.07" y2="23.31" xlink:href="#linear-gradient"/><linearGradient id="linear-gradient-181" x1="284.15" y1="26.25" x2="285.82" y2="26.25" xlink:href="#linear-gradient"/><linearGradient id="linear-gradient-182" x1="284" y1="28.35" x2="285.6" y2="28.35" xlink:href="#linear-gradient"/><linearGradient id="linear-gradient-183" x1="286.41" y1="-10.68" x2="287.5" y2="-10.68" xlink:href="#linear-gradient"/><linearGradient id="linear-gradient-184" x1="285.55" y1="-7.95" x2="287.34" y2="-7.95" xlink:href="#linear-gradient"/><linearGradient id="linear-gradient-185" x1="284.67" y1="-5.44" x2="287.23" y2="-5.44" xlink:href="#linear-gradient"/><linearGradient id="linear-gradient-186" x1="283.79" y1="-2.96" x2="287.12" y2="-2.96" xlink:href="#linear-gradient"/><linearGradient id="linear-gradient-187" x1="283.07" y1="-0.03" x2="286.94" y2="-0.03" xlink:href="#linear-gradient"/><linearGradient id="linear-gradient-188" x1="282.14" y1="3.05" x2="286.78" y2="3.05" xlink:href="#linear-gradient"/><linearGradient id="linear-gradient-189" x1="281.42" y1="5.95" x2="286.61" y2="5.95" xlink:href="#linear-gradient"/><linearGradient id="linear-gradient-190" x1="281.02" y1="9.08" x2="286.39" y2="9.08" xlink:href="#linear-gradient"/><linearGradient id="linear-gradient-191" x1="281" y1="11.73" x2="286.16" y2="11.73" xlink:href="#linear-gradient"/><linearGradient id="linear-gradient-192" x1="281.26" y1="14.57" x2="285.88" y2="14.57" xlink:href="#linear-gradient"/><linearGradient id="linear-gradient-193" x1="281.43" y1="17.74" x2="285.58" y2="17.74" xlink:href="#linear-gradient"/><linearGradient id="linear-gradient-194" x1="281.63" y1="20.75" x2="285.22" y2="20.75" xlink:href="#linear-gradient"/><linearGradient id="linear-gradient-195" x1="281.67" y1="23.1" x2="285.09" y2="23.1" xlink:href="#linear-gradient"/><linearGradient id="linear-gradient-196" x1="283.25" y1="26.17" x2="284.64" y2="26.17" xlink:href="#linear-gradient"/><linearGradient id="linear-gradient-197" x1="283.14" y1="28.27" x2="284.47" y2="28.27" xlink:href="#linear-gradient"/><linearGradient id="linear-gradient-198" x1="283.78" y1="8.52" x2="287.92" y2="8.52" xlink:href="#linear-gradient"/><linearGradient id="linear-gradient-199" x1="256.96" y1="7.36" x2="284.39" y2="7.36" xlink:href="#linear-gradient"/><linearGradient id="linear-gradient-200" x1="257.26" y1="7.34" x2="284.18" y2="7.34" xlink:href="#linear-gradient"/><linearGradient id="linear-gradient-201" x1="260.25" y1="-12.67" x2="261.05" y2="-12.67" xlink:href="#linear-gradient"/><linearGradient id="linear-gradient-202" x1="262.02" y1="-9.96" x2="262.89" y2="-9.96" xlink:href="#linear-gradient"/><linearGradient id="linear-gradient-203" x1="263.58" y1="-7.48" x2="264.71" y2="-7.48" xlink:href="#linear-gradient"/><linearGradient id="linear-gradient-204" x1="265.15" y1="-5.03" x2="266.5" y2="-5.03" xlink:href="#linear-gradient"/><linearGradient id="linear-gradient-205" x1="266.88" y1="-2.09" x2="268.43" y2="-2.09" xlink:href="#linear-gradient"/><linearGradient id="linear-gradient-206" x1="268.74" y1="0.98" x2="270.59" y2="0.98" xlink:href="#linear-gradient"/><linearGradient id="linear-gradient-207" x1="270.54" y1="3.9" x2="272.44" y2="3.9" xlink:href="#linear-gradient"/><linearGradient id="linear-gradient-208" x1="272.22" y1="7.13" x2="274.29" y2="7.13" xlink:href="#linear-gradient"/><linearGradient id="linear-gradient-209" x1="273.6" y1="9.93" x2="275.63" y2="9.93" xlink:href="#linear-gradient"/><linearGradient id="linear-gradient-210" x1="275.03" y1="12.98" x2="276.84" y2="12.98" xlink:href="#linear-gradient"/><linearGradient id="linear-gradient-211" x1="276.64" y1="16.37" x2="278.29" y2="16.37" xlink:href="#linear-gradient"/><linearGradient id="linear-gradient-212" x1="278.15" y1="19.57" x2="279.73" y2="19.57" xlink:href="#linear-gradient"/><linearGradient id="linear-gradient-213" x1="279.34" y1="22.09" x2="280.81" y2="22.09" xlink:href="#linear-gradient"/><linearGradient id="linear-gradient-214" x1="280.46" y1="25.65" x2="281.31" y2="25.65" xlink:href="#linear-gradient"/><linearGradient id="linear-gradient-215" x1="281.59" y1="27.85" x2="282.42" y2="27.85" xlink:href="#linear-gradient"/><linearGradient id="linear-gradient-216" x1="258.9" y1="-12.23" x2="260.76" y2="-12.23" xlink:href="#linear-gradient"/><linearGradient id="linear-gradient-217" x1="259.36" y1="-9.2" x2="262.69" y2="-9.2" xlink:href="#linear-gradient"/><linearGradient id="linear-gradient-218" x1="259.83" y1="-6.41" x2="264.36" y2="-6.41" xlink:href="#linear-gradient"/><linearGradient id="linear-gradient-219" x1="260.18" y1="-3.63" x2="266.12" y2="-3.63" xlink:href="#linear-gradient"/><linearGradient id="linear-gradient-220" x1="261.05" y1="-0.45" x2="268.01" y2="-0.45" xlink:href="#linear-gradient"/><linearGradient id="linear-gradient-221" x1="261.71" y1="2.95" x2="270.1" y2="2.95" xlink:href="#linear-gradient"/><linearGradient id="linear-gradient-222" x1="262.48" y1="6.11" x2="272.06" y2="6.11" xlink:href="#linear-gradient"/><linearGradient id="linear-gradient-223" x1="264.03" y1="9.4" x2="273.79" y2="9.4" xlink:href="#linear-gradient"/><linearGradient id="linear-gradient-224" x1="265.77" y1="12.12" x2="275.11" y2="12.12" xlink:href="#linear-gradient"/><linearGradient id="linear-gradient-225" x1="268.01" y1="14.94" x2="276.38" y2="14.94" xlink:href="#linear-gradient"/><linearGradient id="linear-gradient-226" x1="270.37" y1="18.13" x2="277.86" y2="18.13" xlink:href="#linear-gradient"/><linearGradient id="linear-gradient-227" x1="272.77" y1="21.16" x2="279.03" y2="21.16" xlink:href="#linear-gradient"/><linearGradient id="linear-gradient-228" x1="274.32" y1="23.53" x2="280.34" y2="23.53" xlink:href="#linear-gradient"/><linearGradient id="linear-gradient-229" x1="278.58" y1="26.22" x2="281.01" y2="26.22" xlink:href="#linear-gradient"/><linearGradient id="linear-gradient-230" x1="279.77" y1="28.4" x2="282.16" y2="28.4" xlink:href="#linear-gradient"/><linearGradient id="linear-gradient-231" x1="257.29" y1="7.52" x2="284.1" y2="7.52" xlink:href="#linear-gradient"/><linearGradient id="linear-gradient-232" x1="283.72" y1="37.71" x2="290.39" y2="37.71" xlink:href="#linear-gradient"/><linearGradient id="linear-gradient-233" x1="283.51" y1="38.13" x2="289.35" y2="38.13" xlink:href="#linear-gradient"/></defs><title>Recurso 7</title><g id="Capa_2" data-name="Capa 2"><g id="Layer_1" data-name="Layer 1"><g id="leaf"><g id="leaf-2" data-name="leaf"><path class="cls-1" d="M34.32,57.85v.09l-.63.12a5.34,5.34,0,0,0-2.43,1.13.4.4,0,0,1,0-.47,3,3,0,0,0-.84.86.94.94,0,0,1-.68.39.57.57,0,0,1-.08-.34,1.77,1.77,0,0,1-1,.66,1.21,1.21,0,0,1,0-.43,1.93,1.93,0,0,1-1.36.86,1.26,1.26,0,0,1-.07-.5,2,2,0,0,1-1.4,1,1.78,1.78,0,0,1,0-.62,2,2,0,0,1-1.27.94,1,1,0,0,1,0-.58,1.36,1.36,0,0,1-1.19.75.83.83,0,0,1,0-.52,2,2,0,0,1-1.36.61.72.72,0,0,1,0-.48,1.32,1.32,0,0,1-1.12.44.71.71,0,0,1,0-.48,1.85,1.85,0,0,1-1.26.42.54.54,0,0,1,.06-.52,1.47,1.47,0,0,1-1.21.42.77.77,0,0,1,0-.46c-.16.19-.8.39-1,.2a.58.58,0,0,1,.09-.33,1.34,1.34,0,0,1-1.05.15.27.27,0,0,1,0-.27,1.88,1.88,0,0,1-1.1.11.37.37,0,0,1,.08-.23,6,6,0,0,1-2.07-.07Z"/><path class="cls-2" d="M34.32,57.85v-.09s-.25,0-.65.05A5.29,5.29,0,0,1,31,57.37a.39.39,0,0,0,.13.45,2.82,2.82,0,0,1-1-.61,1,1,0,0,0-.76-.19.7.7,0,0,0,0,.35c-.17-.09-.62-.53-1.11-.38a1.42,1.42,0,0,0,.07.43A2,2,0,0,0,26.79,57a1,1,0,0,0,.07.5,2,2,0,0,0-1.61-.57,1.55,1.55,0,0,0,.12.61,2,2,0,0,0-1.48-.57,1,1,0,0,0,.14.57,1.37,1.37,0,0,0-1.36-.41.83.83,0,0,0,.15.5,2,2,0,0,0-1.47-.23.72.72,0,0,0,.13.46,1.3,1.3,0,0,0-1.18-.12.64.64,0,0,0,.12.46,1.86,1.86,0,0,0-1.33-.06.55.55,0,0,0,.2.48A1.5,1.5,0,0,0,18,58.49a.85.85,0,0,0,.16.43c-.2-.14-.88-.17-1.05.09a.6.6,0,0,0,.17.29,1.35,1.35,0,0,0-1.06.13.31.31,0,0,0,.12.25,2,2,0,0,0-1.09.19.38.38,0,0,0,.14.2,6.12,6.12,0,0,0-2,.61Z"/><path class="cls-3" d="M15.82,60.36a.48.48,0,0,1-.11.24.51.51,0,0,1-.22.15.48.48,0,0,1,.11-.24A.51.51,0,0,1,15.82,60.36Z"/><path class="cls-4" d="M17.2,60.17a1.47,1.47,0,0,1-.29.4,2,2,0,0,1-.4.3,1.31,1.31,0,0,1,.3-.4A1.68,1.68,0,0,1,17.2,60.17Z"/><path class="cls-5" d="M18.4,60a2.56,2.56,0,0,1-.39.54,3,3,0,0,1-.49.44,3,3,0,0,1,.39-.54A2.57,2.57,0,0,1,18.4,60Z"/><path class="cls-6" d="M19.64,59.84a5.09,5.09,0,0,1-1.17,1.28,5.06,5.06,0,0,1,.53-.69A6,6,0,0,1,19.64,59.84Z"/><path class="cls-7" d="M21,59.65a6.3,6.3,0,0,1-.65.8,7.11,7.11,0,0,1-.74.71,6.23,6.23,0,0,1,.64-.8A7.22,7.22,0,0,1,21,59.65Z"/><path class="cls-8" d="M22.53,59.45a9,9,0,0,1-.79.95,12.19,12.19,0,0,1-.9.86,9,9,0,0,1,.79-.95A10.41,10.41,0,0,1,22.53,59.45Z"/><path class="cls-9" d="M24,59.26A12.1,12.1,0,0,1,23,60.33a11.94,11.94,0,0,1-1,1,12,12,0,0,1,.94-1.07A13.7,13.7,0,0,1,24,59.26Z"/><path class="cls-10" d="M25.29,59.07a14.77,14.77,0,0,1-2,2.1,12.25,12.25,0,0,1,.94-1.09A14.19,14.19,0,0,1,25.29,59.07Z"/><path class="cls-11" d="M26.38,58.93a13,13,0,0,1-.89,1,11.34,11.34,0,0,1-1,1,13,13,0,0,1,.89-1A11.34,11.34,0,0,1,26.38,58.93Z"/><path class="cls-12" d="M27.48,58.78a9,9,0,0,1-.79.95,10.29,10.29,0,0,1-.9.85,9,9,0,0,1,.79-.95A10.29,10.29,0,0,1,27.48,58.78Z"/><path class="cls-13" d="M28.74,58.61a8.2,8.2,0,0,1-.71.85,7.19,7.19,0,0,1-.8.76,8.1,8.1,0,0,1,.7-.85A6.5,6.5,0,0,1,28.74,58.61Z"/><path class="cls-14" d="M29.86,58.49a5,5,0,0,1-.55.73,4.91,4.91,0,0,1-.65.64,5.58,5.58,0,0,1,.55-.73A4.91,4.91,0,0,1,29.86,58.49Z"/><path class="cls-15" d="M30.84,58.32a4.6,4.6,0,0,1-.53.7,4.54,4.54,0,0,1-.63.61,5.15,5.15,0,0,1,.53-.7A4.54,4.54,0,0,1,30.84,58.32Z"/><path class="cls-16" d="M31.73,58.2a.83.83,0,0,1-.45.52.83.83,0,0,1,.45-.52Z"/><path class="cls-17" d="M32.64,58.08a.85.85,0,0,1-.46.5.85.85,0,0,1,.46-.5Z"/><path class="cls-18" d="M15.82,60.36a.42.42,0,0,1-.25-.09.48.48,0,0,1-.17-.2.51.51,0,0,1,.42.29Z"/><path class="cls-19" d="M17.2,60.17a1.43,1.43,0,0,1-.46-.18,1.44,1.44,0,0,1-.39-.31,1.71,1.71,0,0,1,.46.19A1.4,1.4,0,0,1,17.2,60.17Z"/><path class="cls-20" d="M18.4,60a2.52,2.52,0,0,1-.59-.3,2.93,2.93,0,0,1-.52-.41,2.7,2.7,0,0,1,.59.29A2.34,2.34,0,0,1,18.4,60Z"/><path class="cls-21" d="M19.64,59.84a5.62,5.62,0,0,1-.77-.4,4.54,4.54,0,0,1-.7-.52,4.32,4.32,0,0,1,.77.4A4,4,0,0,1,19.64,59.84Z"/><path class="cls-22" d="M21,59.65a7.31,7.31,0,0,1-1.74-1.08A7.88,7.88,0,0,1,21,59.65Z"/><path class="cls-23" d="M22.53,59.45a11.09,11.09,0,0,1-2.11-1.3,11.09,11.09,0,0,1,2.11,1.3Z"/><path class="cls-24" d="M24,59.26c-.44-.2-.86-.43-1.27-.66s-.81-.5-1.2-.79c.44.2.86.43,1.27.66S23.56,59,24,59.26Z"/><path class="cls-25" d="M25.29,59.07A14,14,0,0,1,24,58.39a12,12,0,0,1-1.2-.81,12,12,0,0,1,1.27.69A13.9,13.9,0,0,1,25.29,59.07Z"/><path class="cls-26" d="M26.38,58.93c-.42-.2-.82-.42-1.22-.66A10.81,10.81,0,0,1,24,57.49a10.88,10.88,0,0,1,1.21.66A12.11,12.11,0,0,1,26.38,58.93Z"/><path class="cls-27" d="M27.48,58.78a11.76,11.76,0,0,1-2.11-1.29,10.41,10.41,0,0,1,2.11,1.29Z"/><path class="cls-28" d="M28.74,58.61a7.6,7.6,0,0,1-1-.52,8.14,8.14,0,0,1-.9-.64,8.18,8.18,0,0,1,1,.52A7.88,7.88,0,0,1,28.74,58.61Z"/><path class="cls-29" d="M29.85,58.42a5.12,5.12,0,0,1-.8-.44,5.56,5.56,0,0,1-.72-.56,6.23,6.23,0,0,1,.8.44A6.33,6.33,0,0,1,29.85,58.42Z"/><path class="cls-30" d="M30.84,58.32a4.41,4.41,0,0,1-.77-.42,5.15,5.15,0,0,1-.7-.53,4.08,4.08,0,0,1,.77.42A4.6,4.6,0,0,1,30.84,58.32Z"/><path class="cls-31" d="M31.73,58.2a.83.83,0,0,1-.32-.13.67.67,0,0,1-.25-.25.83.83,0,0,1,.32.13A.75.75,0,0,1,31.73,58.2Z"/><path class="cls-32" d="M32.64,58.08a.73.73,0,0,1-.33-.12.81.81,0,0,1-.25-.24.73.73,0,0,1,.33.12A.81.81,0,0,1,32.64,58.08Z"/><path class="cls-33" d="M13.42,60.68c1.74-.28,3.48-.53,5.22-.78l5.22-.74,5.23-.68c1.74-.22,3.48-.44,5.23-.63-1.73.28-3.47.54-5.21.79l-5.22.73-5.23.69C16.92,60.27,15.17,60.49,13.42,60.68Z"/><path class="cls-34" d="M34.32,57.85l-.07.14s-.41-.2-1.06-.46a9.58,9.58,0,0,0-4.71-.78.72.72,0,0,1,.48-.68,5.3,5.3,0,0,0-2.11.43,1.69,1.69,0,0,1-1.39-.12,1.13,1.13,0,0,1,.23-.57,3.29,3.29,0,0,1-2.1,0,2.45,2.45,0,0,1,.37-.67A3.5,3.5,0,0,1,21.1,55a1.83,1.83,0,0,1,.39-.81,3.49,3.49,0,0,1-3,0,2.58,2.58,0,0,1,.55-1,3.62,3.62,0,0,1-2.81.11,1.66,1.66,0,0,1,.54-.89,2.4,2.4,0,0,1-2.51-.09,1.54,1.54,0,0,1,.53-.76,3.56,3.56,0,0,1-2.61-.46,1.3,1.3,0,0,1,.5-.7A2.39,2.39,0,0,1,10.56,50a1.21,1.21,0,0,1,.48-.71,3.34,3.34,0,0,1-2.29-.66,1,1,0,0,1,.61-.71,2.57,2.57,0,0,1-2.2-.59,1.37,1.37,0,0,1,.51-.63C7.26,46.83,6.1,46.49,6,46a1,1,0,0,1,.46-.39,2.35,2.35,0,0,1-1.7-.84.52.52,0,0,1,.34-.36,3.34,3.34,0,0,1-1.73-.93.63.63,0,0,1,.34-.27A10.84,10.84,0,0,1,.68,41Z"/><path class="cls-35" d="M34.32,57.85l.07-.14s-.4-.21-1-.58A9.34,9.34,0,0,1,30,53.83a.7.7,0,0,0-.26.79,5.24,5.24,0,0,1-.92-1.94,1.69,1.69,0,0,0-.93-1,1.06,1.06,0,0,0-.32.52c-.16-.31-.4-1.4-1.26-1.69a2.33,2.33,0,0,0-.33.72A3.52,3.52,0,0,0,24.14,49a1.84,1.84,0,0,0-.41.8,3.51,3.51,0,0,0-1.8-2.46,2.87,2.87,0,0,0-.43,1A3.63,3.63,0,0,0,19.9,46a1.62,1.62,0,0,0-.38,1,2.43,2.43,0,0,0-1.58-2,1.5,1.5,0,0,0-.29.88,3.55,3.55,0,0,0-1.93-1.81,1.27,1.27,0,0,0-.27.81,2.38,2.38,0,0,0-1.63-1.38,1.23,1.23,0,0,0-.28.81,3.33,3.33,0,0,0-1.89-1.44,1,1,0,0,0-.2.92,2.56,2.56,0,0,0-1.8-1.41,1.4,1.4,0,0,0-.19.79c-.17-.4-1.13-1.13-1.64-.93a1,1,0,0,0,0,.61A2.36,2.36,0,0,0,6.09,42a.52.52,0,0,0-.09.48,3.46,3.46,0,0,0-1.78-.82.72.72,0,0,0,0,.44A10.72,10.72,0,0,0,.68,41Z"/><path class="cls-36" d="M4.54,42.93a.84.84,0,0,1-.4.24.79.79,0,0,1-.48,0,.83.83,0,0,1,.41-.24A.75.75,0,0,1,4.54,42.93Z"/><path class="cls-37" d="M6.77,44a2.89,2.89,0,0,1-.84.29,2.6,2.6,0,0,1-.88,0,2.83,2.83,0,0,1,.83-.29A2.93,2.93,0,0,1,6.77,44Z"/><path class="cls-38" d="M8.7,45a5.09,5.09,0,0,1-1.11.4,5.16,5.16,0,0,1-1.18.16,4.69,4.69,0,0,1,1.12-.4A5,5,0,0,1,8.7,45Z"/><path class="cls-39" d="M10.7,46a7.85,7.85,0,0,1-1.49.48,8.67,8.67,0,0,1-1.54.23,9.94,9.94,0,0,1,1.49-.48A8.67,8.67,0,0,1,10.7,46Z"/><path class="cls-40" d="M12.93,47.13a11.89,11.89,0,0,1-1.76.53,12,12,0,0,1-1.81.28,12.27,12.27,0,0,1,1.76-.53A12,12,0,0,1,12.93,47.13Z"/><path class="cls-41" d="M15.34,48.34a17.65,17.65,0,0,1-2.12.61,19.82,19.82,0,0,1-2.18.36,17.13,17.13,0,0,1,2.12-.61A16,16,0,0,1,15.34,48.34Z"/><path class="cls-42" d="M17.62,49.48a21.13,21.13,0,0,1-2.46.63,24,24,0,0,1-2.52.39,20.78,20.78,0,0,1,2.47-.63A23.39,23.39,0,0,1,17.62,49.48Z"/><path class="cls-43" d="M19.79,50.57a24.08,24.08,0,0,1-2.49.67,21.52,21.52,0,0,1-2.55.42,24.26,24.26,0,0,1,2.5-.67C18.09,50.82,18.93,50.66,19.79,50.57Z"/><path class="cls-44" d="M21.54,51.44a20,20,0,0,1-2.38.66,19.56,19.56,0,0,1-2.43.41,22,22,0,0,1,2.38-.65A21.63,21.63,0,0,1,21.54,51.44Z"/><path class="cls-45" d="M23.31,52.33a16.07,16.07,0,0,1-2.13.6,15.73,15.73,0,0,1-2.18.36,16.07,16.07,0,0,1,2.13-.6A17.69,17.69,0,0,1,23.31,52.33Z"/><path class="cls-46" d="M25.33,53.35a14.06,14.06,0,0,1-1.89.55,14.14,14.14,0,0,1-2,.31,12.73,12.73,0,0,1,1.89-.55A12.77,12.77,0,0,1,25.33,53.35Z"/><path class="cls-47" d="M27.1,54.3a9.67,9.67,0,0,1-1.54.53,9.4,9.4,0,0,1-1.6.29,9.67,9.67,0,0,1,1.54-.53A9.4,9.4,0,0,1,27.1,54.3Z"/><path class="cls-48" d="M28.72,55a7.94,7.94,0,0,1-1.49.51,8.69,8.69,0,0,1-1.54.26,8.1,8.1,0,0,1,1.48-.51A9,9,0,0,1,28.72,55Z"/><path class="cls-49" d="M30.15,55.76a1.41,1.41,0,0,1-.56.28,1.33,1.33,0,0,1-.63,0,1.36,1.36,0,0,1,.57-.27A1.43,1.43,0,0,1,30.15,55.76Z"/><path class="cls-50" d="M31.61,56.49a1.25,1.25,0,0,1-.56.26,1.43,1.43,0,0,1-.62,0,1.3,1.3,0,0,1,.56-.26A1.43,1.43,0,0,1,31.61,56.49Z"/><path class="cls-51" d="M4.54,42.93a.9.9,0,0,1-.33-.85.73.73,0,0,1,.28.38A.81.81,0,0,1,4.54,42.93Z"/><path class="cls-52" d="M6.77,44a2.71,2.71,0,0,1-.5-.73A3,3,0,0,1,6,42.46a2.76,2.76,0,0,1,.5.74A3,3,0,0,1,6.77,44Z"/><path class="cls-53" d="M8.7,45a5.37,5.37,0,0,1-.92-2.16,4.73,4.73,0,0,1,.57,1A4.79,4.79,0,0,1,8.7,45Z"/><path class="cls-54" d="M10.7,46A8.25,8.25,0,0,1,10,44.64a8.49,8.49,0,0,1-.5-1.47,9,9,0,0,1,.73,1.37A9.12,9.12,0,0,1,10.7,46Z"/><path class="cls-55" d="M12.93,47.13a12.9,12.9,0,0,1-1.48-3.34,11.88,11.88,0,0,1,.85,1.62A12.6,12.6,0,0,1,12.93,47.13Z"/><path class="cls-56" d="M15.34,48.34a16.5,16.5,0,0,1-1-2,17.28,17.28,0,0,1-.79-2.07,18.21,18.21,0,0,1,1,2A19.11,19.11,0,0,1,15.34,48.34Z"/><path class="cls-57" d="M17.62,49.48a24.09,24.09,0,0,1-1.2-2.24,22.06,22.06,0,0,1-1-2.36,24.26,24.26,0,0,1,1.2,2.25A21.9,21.9,0,0,1,17.62,49.48Z"/><path class="cls-58" d="M19.79,50.57a24.75,24.75,0,0,1-1.18-2.29,23.54,23.54,0,0,1-1-2.4,22.6,22.6,0,0,1,1.19,2.29A23.46,23.46,0,0,1,19.79,50.57Z"/><path class="cls-59" d="M21.54,51.44a19.69,19.69,0,0,1-1.13-2.19A21.25,21.25,0,0,1,19.52,47a19.62,19.62,0,0,1,1.12,2.19A21.32,21.32,0,0,1,21.54,51.44Z"/><path class="cls-60" d="M23.31,52.33a19.44,19.44,0,0,1-1.81-4,18.21,18.21,0,0,1,1,2A16.52,16.52,0,0,1,23.31,52.33Z"/><path class="cls-61" d="M25.33,53.35a15,15,0,0,1-1.6-3.6,14.52,14.52,0,0,1,.91,1.75A13.24,13.24,0,0,1,25.33,53.35Z"/><path class="cls-62" d="M27.16,54.19a10.54,10.54,0,0,1-1.23-3,9,9,0,0,1,.73,1.45A10,10,0,0,1,27.16,54.19Z"/><path class="cls-63" d="M28.72,55A9.15,9.15,0,0,1,28,53.65a9.26,9.26,0,0,1-.48-1.49,8.28,8.28,0,0,1,.71,1.39A8.39,8.39,0,0,1,28.72,55Z"/><path class="cls-64" d="M30.15,55.76a1.49,1.49,0,0,1-.35-.52,1.4,1.4,0,0,1-.11-.62,1.48,1.48,0,0,1,.35.53A1.38,1.38,0,0,1,30.15,55.76Z"/><path class="cls-65" d="M31.61,56.49a1.45,1.45,0,0,1-.36-.5,1.36,1.36,0,0,1-.13-.61,1.26,1.26,0,0,1,.36.51A1.32,1.32,0,0,1,31.61,56.49Z"/><path class="cls-66" d="M.69,41c1.42.66,2.83,1.35,4.24,2l4.23,2.06c2.82,1.38,5.62,2.78,8.43,4.18s5.6,2.82,8.39,4.25l4.18,2.15c1.38.73,2.78,1.45,4.16,2.19-1.42-.66-2.83-1.35-4.25-2l-4.22-2.06C23,52.39,20.23,51,17.42,49.59S11.82,46.77,9,45.34L4.85,43.19C3.46,42.45,2.07,41.74.69,41Z"/><path class="cls-67" d="M34.32,57.85l-.17.11s-.32-.5-.87-1.23a12.36,12.36,0,0,0-4.69-4,.93.93,0,0,1,1-.43,7.07,7.07,0,0,0-2.62-1,2.16,2.16,0,0,1-1.46-1.06,1.39,1.39,0,0,1,.63-.48,4.23,4.23,0,0,1-2.31-1.43,2.84,2.84,0,0,1,.87-.5c-.4-.1-2.41-.52-3.11-2a2.56,2.56,0,0,1,1-.63,4.55,4.55,0,0,1-3.4-2,3.66,3.66,0,0,1,1.26-.69c-.6-.12-2.42-.45-3.19-1.77a2.09,2.09,0,0,1,1.2-.61,3.16,3.16,0,0,1-2.72-1.8,2,2,0,0,1,1.1-.48,4.6,4.6,0,0,1-2.58-2.27,1.72,1.72,0,0,1,1-.45c-.41-.09-1.8-.86-2-1.93a1.62,1.62,0,0,1,1-.46,4.25,4.25,0,0,1-2.09-2.27,1.29,1.29,0,0,1,1.15-.37,3.33,3.33,0,0,1-2-2.15,1.9,1.9,0,0,1,1-.34c-.54-.16-1.59-1.32-1.4-2a1.32,1.32,0,0,1,.78-.12,3.09,3.09,0,0,1-1.33-2.08.68.68,0,0,1,.61-.17A4.4,4.4,0,0,1,9.68,21a.86.86,0,0,1,.56-.06c0-.06-1.7-2.8-1.83-4.42Z"/><path class="cls-68" d="M34.32,57.85l.17-.11s-.3-.5-.72-1.31a12.25,12.25,0,0,1-1.59-6,.94.94,0,0,0-.82.71,7,7,0,0,1,.29-2.78,2.22,2.22,0,0,0-.32-1.78,1.36,1.36,0,0,0-.71.37c0-.45.5-1.82-.27-2.72a3.17,3.17,0,0,0-.84.57c.09-.39.58-2.39-.48-3.68a2.44,2.44,0,0,0-1,.6,4.56,4.56,0,0,0-.33-3.93,3.5,3.5,0,0,0-1.17.84c.15-.6.64-2.38-.21-3.65a2.17,2.17,0,0,0-1.07.82,3.16,3.16,0,0,0-.44-3.24,2,2,0,0,0-.9.79A4.62,4.62,0,0,0,23,30.06a1.65,1.65,0,0,0-.84.72,3.06,3.06,0,0,0-.88-2.62,1.58,1.58,0,0,0-.85.7A4.35,4.35,0,0,0,19.29,26a1.28,1.28,0,0,0-.84.88A3.3,3.3,0,0,0,17.4,24.1a2,2,0,0,0-.74.74c.09-.55-.49-2-1.19-2.12a1.26,1.26,0,0,0-.45.64,3.09,3.09,0,0,0-1.29-2.1.69.69,0,0,0-.42.48,4.42,4.42,0,0,0-1.42-2.11.79.79,0,0,0-.3.48c0-.07-1.78-2.76-3.18-3.58Z"/><path class="cls-69" d="M11.38,21.27a.72.72,0,0,1-.32,0,1.35,1.35,0,0,1-.29,0,1.39,1.39,0,0,1-.28-.12.92.92,0,0,1-.25-.2.74.74,0,0,1,.32,0,1.54,1.54,0,0,1,.3,0,1.59,1.59,0,0,1,.27.12A.92.92,0,0,1,11.38,21.27Z"/><path class="cls-70" d="M13.1,24a3.38,3.38,0,0,1-.58-.08,5,5,0,0,1-.55-.17,3.93,3.93,0,0,1-.52-.23,2.94,2.94,0,0,1-.49-.32,2.62,2.62,0,0,1,.58.08,3.5,3.5,0,0,1,.55.17,3.93,3.93,0,0,1,.52.23A2.94,2.94,0,0,1,13.1,24Z"/><path class="cls-71" d="M14.58,26.38a6.32,6.32,0,0,1-.76-.11c-.25-.06-.5-.12-.74-.2a6.93,6.93,0,0,1-.72-.26,4.86,4.86,0,0,1-.68-.35,3.87,3.87,0,0,1,.76.11,6.17,6.17,0,0,1,.74.19c.24.08.48.17.71.27A4.47,4.47,0,0,1,14.58,26.38Z"/><path class="cls-72" d="M16.12,28.83a7.88,7.88,0,0,1-1-.19c-.33-.08-.65-.18-1-.28s-.64-.22-.95-.35a6.29,6.29,0,0,1-.91-.43,7.88,7.88,0,0,1,1,.19c.33.08.65.18,1,.28s.63.22.94.35A7.7,7.7,0,0,1,16.12,28.83Z"/><path class="cls-73" d="M17.84,31.57a10.84,10.84,0,0,1-1.16-.25c-.39-.1-.76-.22-1.14-.34s-.74-.26-1.11-.41a11.84,11.84,0,0,1-1.09-.5,9,9,0,0,1,1.17.26c.38.1.76.22,1.13.34s.75.26,1.12.41A9.45,9.45,0,0,1,17.84,31.57Z"/><path class="cls-74" d="M19.7,34.54c-.47-.09-.94-.21-1.4-.34s-.91-.27-1.36-.42l-1.35-.49c-.44-.18-.88-.36-1.31-.58.47.09.94.21,1.39.34s.92.27,1.37.42.9.31,1.35.49S19.27,34.32,19.7,34.54Z"/><path class="cls-75" d="M21.46,37.34c-.54-.12-1.07-.28-1.6-.44s-1-.34-1.56-.52-1-.39-1.54-.6-1-.43-1.51-.68c.54.13,1.07.28,1.6.44l1.56.53c.52.19,1,.38,1.54.59S21,37.09,21.46,37.34Z"/><path class="cls-76" d="M23.13,40c-.55-.11-1.09-.26-1.62-.42s-1.07-.33-1.59-.51l-1.57-.58c-.52-.21-1-.42-1.54-.67.55.12,1.09.27,1.62.43s1.07.33,1.59.51,1.05.37,1.57.58S22.62,39.76,23.13,40Z"/><path class="cls-77" d="M24.47,42.15c-.52-.11-1-.25-1.55-.4s-1-.31-1.52-.47-1-.35-1.5-.55-1-.4-1.47-.63a16,16,0,0,1,1.55.39c.51.15,1,.31,1.52.48s1,.35,1.5.54S24,41.91,24.47,42.15Z"/><path class="cls-78" d="M25.84,44.33a13.64,13.64,0,0,1-1.4-.35c-.46-.12-.91-.27-1.36-.42s-.9-.32-1.34-.5a12.88,12.88,0,0,1-1.32-.58c.48.09.94.21,1.4.34s.91.28,1.36.43.9.32,1.35.5A13.76,13.76,0,0,1,25.84,44.33Z"/><path class="cls-79" d="M27.39,46.81c-.42-.07-.83-.18-1.25-.29s-.81-.24-1.22-.37-.8-.28-1.2-.44-.78-.33-1.16-.53a11.28,11.28,0,0,1,1.25.29c.41.11.81.24,1.22.37s.8.28,1.2.44S27,46.61,27.39,46.81Z"/><path class="cls-80" d="M28.71,49.06c-.36,0-.7-.11-1-.18s-.68-.17-1-.27-.67-.21-1-.34a6.93,6.93,0,0,1-1-.42,9,9,0,0,1,1,.18c.34.08.68.17,1,.27s.67.21,1,.33A9.25,9.25,0,0,1,28.71,49.06Z"/><path class="cls-81" d="M30,51a8.37,8.37,0,0,1-1-.18c-.33-.07-.66-.17-1-.26l-1-.33c-.31-.13-.62-.26-.93-.42a8.18,8.18,0,0,1,1,.17c.33.08.65.17,1,.27s.64.2.95.33A6.46,6.46,0,0,1,30,51Z"/><path class="cls-82" d="M31.11,52.73a1.49,1.49,0,0,1-.42,0,2.7,2.7,0,0,1-.39-.08,2.39,2.39,0,0,1-.37-.15,1.29,1.29,0,0,1-.35-.24,1.48,1.48,0,0,1,.42,0,1.59,1.59,0,0,1,.39.08,1.5,1.5,0,0,1,.38.15A1.46,1.46,0,0,1,31.11,52.73Z"/><path class="cls-83" d="M32.23,54.53a1.4,1.4,0,0,1-.41,0,2.34,2.34,0,0,1-.38-.09,1.73,1.73,0,0,1-.37-.16,1.46,1.46,0,0,1-.33-.24,1.41,1.41,0,0,1,.41,0,2.46,2.46,0,0,1,.39.09,2.83,2.83,0,0,1,.36.16A1.31,1.31,0,0,1,32.23,54.53Z"/><path class="cls-84" d="M11.38,21.27a.73.73,0,0,1-.07-.31,1.51,1.51,0,0,1,0-.3,1.31,1.31,0,0,1,.09-.28.68.68,0,0,1,.18-.27.92.92,0,0,1,.07.31,1,1,0,0,1,0,.3,1,1,0,0,1-.08.28A1.06,1.06,0,0,1,11.38,21.27Z"/><path class="cls-85" d="M13.1,24a3,3,0,0,1-.08-.58,5.43,5.43,0,0,1,0-.57,5,5,0,0,1,.09-.56,2.29,2.29,0,0,1,.18-.56,2.36,2.36,0,0,1,.07.58,3.62,3.62,0,0,1,0,.57,2.72,2.72,0,0,1-.09.56A3,3,0,0,1,13.1,24Z"/><path class="cls-86" d="M14.58,26.38a4.07,4.07,0,0,1,0-.78,6.71,6.71,0,0,1,.07-.76c0-.25.09-.5.14-.75a5.19,5.19,0,0,1,.24-.73,5,5,0,0,1,0,.77c0,.26,0,.51-.08.76a6.58,6.58,0,0,1-.14.75A4,4,0,0,1,14.58,26.38Z"/><path class="cls-87" d="M16.12,28.83a8.49,8.49,0,0,1,0-1c0-.34.06-.67.1-1s.1-.67.17-1a8.87,8.87,0,0,1,.26-1,7,7,0,0,1,0,1c0,.33,0,.67-.1,1s-.1.66-.17,1A8.32,8.32,0,0,1,16.12,28.83Z"/><path class="cls-88" d="M17.84,31.57a9.46,9.46,0,0,1,0-1.19c0-.39.07-.79.11-1.18s.11-.78.19-1.17a9.33,9.33,0,0,1,.28-1.16,11.75,11.75,0,0,1,0,1.19c0,.4-.07.79-.11,1.18s-.12.78-.19,1.17A11.52,11.52,0,0,1,17.84,31.57Z"/><path class="cls-89" d="M19.7,34.54c0-.48,0-1,.05-1.44s.09-1,.15-1.42.13-.95.21-1.42a14,14,0,0,1,.31-1.4q0,.72-.06,1.44c0,.47-.08.95-.14,1.42s-.13.94-.22,1.41A14.17,14.17,0,0,1,19.7,34.54Z"/><path class="cls-90" d="M21.46,37.34c0-.55,0-1.1,0-1.65s.09-1.1.14-1.65.13-1.09.21-1.63.17-1.09.3-1.63c0,.55,0,1.1,0,1.65S22,33.53,22,34.08s-.12,1.09-.2,1.63S21.58,36.8,21.46,37.34Z"/><path class="cls-91" d="M23.13,40c0-.56,0-1.11.07-1.67s.1-1.11.16-1.66.14-1.11.23-1.66.19-1.1.33-1.64c0,.56,0,1.12-.08,1.67s-.09,1.11-.16,1.67-.14,1.1-.23,1.65S23.26,39.46,23.13,40Z"/><path class="cls-92" d="M24.47,42.15c0-.54,0-1.07.07-1.6s.1-1.06.16-1.59.14-1.05.24-1.58.19-1,.32-1.56c0,.53,0,1.06-.07,1.6s-.1,1-.16,1.58-.14,1.06-.24,1.58S24.6,41.63,24.47,42.15Z"/><path class="cls-93" d="M25.84,44.33a13.76,13.76,0,0,1,.05-1.44c0-.48.08-1,.14-1.42s.12-.95.21-1.42a13.41,13.41,0,0,1,.3-1.4c0,.48,0,1-.05,1.43s-.08,1-.14,1.43-.13.94-.21,1.41S26,43.86,25.84,44.33Z"/><path class="cls-94" d="M27.39,46.81c0-.43,0-.86,0-1.28s.07-.85.12-1.28.12-.84.2-1.26.17-.83.29-1.25c0,.43,0,.86,0,1.28s-.07.85-.12,1.28-.12.84-.2,1.26A11.28,11.28,0,0,1,27.39,46.81Z"/><path class="cls-95" d="M28.85,49a9.3,9.3,0,0,1,0-1.06c0-.35.08-.69.13-1s.12-.69.2-1a9.75,9.75,0,0,1,.29-1,9.3,9.3,0,0,1,0,1.06c0,.35-.08.7-.13,1s-.12.69-.2,1A8.54,8.54,0,0,1,28.85,49Z"/><path class="cls-96" d="M30,51a8.63,8.63,0,0,1,0-1c0-.34.07-.67.12-1s.11-.66.19-1a6.82,6.82,0,0,1,.28-1,8.46,8.46,0,0,1,0,1c0,.34-.07.68-.12,1s-.11.67-.19,1A7.21,7.21,0,0,1,30,51Z"/><path class="cls-97" d="M31.11,52.73a1.2,1.2,0,0,1-.06-.41,2.61,2.61,0,0,1,0-.4,2.79,2.79,0,0,1,.1-.39,1.44,1.44,0,0,1,.19-.37,1.2,1.2,0,0,1,.06.41,1.76,1.76,0,0,1,0,.4,2.79,2.79,0,0,1-.1.39A1.44,1.44,0,0,1,31.11,52.73Z"/><path class="cls-98" d="M32.23,54.53a1.53,1.53,0,0,1-.07-.41,1.79,1.79,0,0,1,0-.4,1.72,1.72,0,0,1,.08-.38,1.31,1.31,0,0,1,.18-.38,1.22,1.22,0,0,1,.07.41,1.79,1.79,0,0,1,0,.4,2.62,2.62,0,0,1-.09.38A1.31,1.31,0,0,1,32.23,54.53Z"/><path class="cls-99" d="M8.41,16.54c1.13,1.69,2.23,3.4,3.34,5.1l3.3,5.13c2.19,3.42,4.35,6.86,6.52,10.29S25.88,44,28,47.42l3.18,5.2c1,1.75,2.11,3.48,3.14,5.23-1.13-1.69-2.23-3.4-3.34-5.1l-3.3-5.13c-2.19-3.42-4.35-6.86-6.52-10.3S16.86,30.43,14.73,27l-3.18-5.21C10.5,20,9.45,18.29,8.41,16.54Z"/></g><g id="leaf-3" data-name="leaf"><path class="cls-100" d="M34.32,57.85v.09l.63.12a5.34,5.34,0,0,1,2.43,1.13.42.42,0,0,0,0-.47,3,3,0,0,1,.84.87,1,1,0,0,0,.68.38.64.64,0,0,0,.08-.33,1.77,1.77,0,0,0,1,.65,1.43,1.43,0,0,0,0-.43,1.9,1.9,0,0,0,1.35.86,1.05,1.05,0,0,0,.08-.49,2,2,0,0,0,1.39,1,1.52,1.52,0,0,0,.05-.62,2.06,2.06,0,0,0,1.27.94.92.92,0,0,0,0-.58,1.38,1.38,0,0,0,1.2.75.91.91,0,0,0,0-.52,2,2,0,0,0,1.35.61.72.72,0,0,0,0-.48,1.31,1.31,0,0,0,1.11.44.71.71,0,0,0,0-.48,1.85,1.85,0,0,0,1.26.42.56.56,0,0,0-.06-.53,1.45,1.45,0,0,0,1.21.43.77.77,0,0,0,0-.46c.16.19.8.39,1,.2a.58.58,0,0,0-.09-.33,1.33,1.33,0,0,0,1.05.15.27.27,0,0,0,0-.27,1.86,1.86,0,0,0,1.09.11.3.3,0,0,0-.07-.23,6.15,6.15,0,0,0,2.07-.06Z"/><path class="cls-101" d="M34.32,57.85v-.09s.25,0,.65.05a5.27,5.27,0,0,0,2.63-.43.38.38,0,0,1-.13.44,2.92,2.92,0,0,0,1-.6.92.92,0,0,1,.76-.19.66.66,0,0,1,0,.34c.17-.09.62-.52,1.11-.38a1.34,1.34,0,0,1-.07.43A2,2,0,0,1,41.85,57a1,1,0,0,1-.07.49,2,2,0,0,1,1.61-.57,1.52,1.52,0,0,1-.12.61,2.05,2.05,0,0,1,1.47-.56.84.84,0,0,1-.13.56,1.39,1.39,0,0,1,1.36-.4.91.91,0,0,1-.15.5,2,2,0,0,1,1.47-.23.73.73,0,0,1-.14.46,1.33,1.33,0,0,1,1.19-.12.64.64,0,0,1-.12.46,1.86,1.86,0,0,1,1.33-.06.55.55,0,0,1-.2.48,1.46,1.46,0,0,1,1.28-.08.85.85,0,0,1-.16.43c.2-.14.88-.17,1.05.09a.6.6,0,0,1-.17.29,1.32,1.32,0,0,1,1,.13.28.28,0,0,1-.11.25,2,2,0,0,1,1.09.19.47.47,0,0,1-.14.2,6,6,0,0,1,2,.62Z"/><path class="cls-102" d="M52.82,60.37a.51.51,0,0,1,.22.15.48.48,0,0,1,.11.24.51.51,0,0,1-.22-.15A.48.48,0,0,1,52.82,60.37Z"/><path class="cls-103" d="M51.44,60.18a1.68,1.68,0,0,1,.39.3,1.5,1.5,0,0,1,.3.4,1.5,1.5,0,0,1-.4-.3A1.47,1.47,0,0,1,51.44,60.18Z"/><path class="cls-104" d="M50.24,60a2.91,2.91,0,0,1,.49.44,3.54,3.54,0,0,1,.39.54,3,3,0,0,1-.5-.44A2.92,2.92,0,0,1,50.24,60Z"/><path class="cls-105" d="M49,59.85a4.52,4.52,0,0,1,.64.59,5.13,5.13,0,0,1,.54.69,4.48,4.48,0,0,1-.64-.59A6.08,6.08,0,0,1,49,59.85Z"/><path class="cls-106" d="M47.61,59.66a8.28,8.28,0,0,1,.75.7,8,8,0,0,1,.64.8,7.07,7.07,0,0,1-.75-.7A6.23,6.23,0,0,1,47.61,59.66Z"/><path class="cls-107" d="M46.11,59.46a8.94,8.94,0,0,1,.89.85,12.33,12.33,0,0,1,.8,1,9.2,9.2,0,0,1-.9-.86A9,9,0,0,1,46.11,59.46Z"/><path class="cls-108" d="M44.69,59.26c.37.31.71.64,1.05,1a12,12,0,0,1,.94,1.07,13.16,13.16,0,0,1-2-2.05Z"/><path class="cls-109" d="M43.34,59.08a11.06,11.06,0,0,1,1,1,12.39,12.39,0,0,1,.94,1.1,12.28,12.28,0,0,1-1-1A14.42,14.42,0,0,1,43.34,59.08Z"/><path class="cls-110" d="M42.26,58.93a12.85,12.85,0,0,1,1,1A10,10,0,0,1,44.14,61c-.35-.3-.67-.63-1-1A11.34,11.34,0,0,1,42.26,58.93Z"/><path class="cls-111" d="M41.16,58.78a10.41,10.41,0,0,1,.9.86,9,9,0,0,1,.79,1,12.19,12.19,0,0,1-.9-.86A9,9,0,0,1,41.16,58.78Z"/><path class="cls-112" d="M39.9,58.61a8.28,8.28,0,0,1,.81.76,7.29,7.29,0,0,1,.7.86,8.28,8.28,0,0,1-.81-.76A7.29,7.29,0,0,1,39.9,58.61Z"/><path class="cls-113" d="M38.78,58.49a6.56,6.56,0,0,1,.65.64,5.58,5.58,0,0,1,.55.73,4.86,4.86,0,0,1-.65-.63A5.07,5.07,0,0,1,38.78,58.49Z"/><path class="cls-114" d="M37.8,58.32a6.08,6.08,0,0,1,.63.61,4.68,4.68,0,0,1,.53.71,5.22,5.22,0,0,1-.63-.61A4.1,4.1,0,0,1,37.8,58.32Z"/><path class="cls-115" d="M36.91,58.2a.85.85,0,0,1,.28.22.74.74,0,0,1,.17.3.86.86,0,0,1-.28-.21A.78.78,0,0,1,36.91,58.2Z"/><path class="cls-116" d="M36,58.08a.84.84,0,0,1,.28.2.71.71,0,0,1,.18.3.85.85,0,0,1-.46-.5Z"/><path class="cls-117" d="M52.82,60.37a.48.48,0,0,1,.17-.2.42.42,0,0,1,.25-.09.48.48,0,0,1-.17.2A.42.42,0,0,1,52.82,60.37Z"/><path class="cls-118" d="M51.44,60.18a1.4,1.4,0,0,1,.39-.3,1.71,1.71,0,0,1,.46-.19,1.44,1.44,0,0,1-.39.31A1.52,1.52,0,0,1,51.44,60.18Z"/><path class="cls-119" d="M50.24,60a2.53,2.53,0,0,1,.51-.42,3,3,0,0,1,.6-.29,3.35,3.35,0,0,1-.52.41A2.73,2.73,0,0,1,50.24,60Z"/><path class="cls-120" d="M49,59.85a4.46,4.46,0,0,1,.71-.52,4,4,0,0,1,.77-.4,5.76,5.76,0,0,1-.7.52A5.21,5.21,0,0,1,49,59.85Z"/><path class="cls-121" d="M47.61,59.66a6,6,0,0,1,.83-.6,7.9,7.9,0,0,1,.91-.48,7.31,7.31,0,0,1-1.74,1.08Z"/><path class="cls-122" d="M46.11,59.46a8.86,8.86,0,0,1,1-.71,10.36,10.36,0,0,1,1.09-.59,8.86,8.86,0,0,1-1,.71A10.36,10.36,0,0,1,46.11,59.46Z"/><path class="cls-123" d="M44.69,59.26a13.7,13.7,0,0,1,1.2-.78,12.6,12.6,0,0,1,1.26-.66A11.59,11.59,0,0,1,46,58.6,11.74,11.74,0,0,1,44.69,59.26Z"/><path class="cls-124" d="M43.34,59.08a12.15,12.15,0,0,1,1.21-.81,14,14,0,0,1,1.27-.68,13.9,13.9,0,0,1-1.2.8A12.11,12.11,0,0,1,43.34,59.08Z"/><path class="cls-125" d="M42.26,58.93a12.74,12.74,0,0,1,1.14-.78c.39-.23.79-.46,1.21-.66a10,10,0,0,1-1.14.78A10.88,10.88,0,0,1,42.26,58.93Z"/><path class="cls-126" d="M41.16,58.78a8.78,8.78,0,0,1,1-.7,10.36,10.36,0,0,1,1.09-.59,8.86,8.86,0,0,1-1,.71A10.29,10.29,0,0,1,41.16,58.78Z"/><path class="cls-127" d="M39.9,58.61a8.26,8.26,0,0,1,.91-.64,8.18,8.18,0,0,1,1-.52,6.15,6.15,0,0,1-.9.64A6.53,6.53,0,0,1,39.9,58.61Z"/><path class="cls-128" d="M38.79,58.42a5.56,5.56,0,0,1,.72-.56,5.12,5.12,0,0,1,.8-.44,5.77,5.77,0,0,1-1.52,1Z"/><path class="cls-129" d="M37.8,58.32a5.06,5.06,0,0,1,.69-.53,4.5,4.5,0,0,1,.78-.42,5,5,0,0,1-.7.54A5.14,5.14,0,0,1,37.8,58.32Z"/><path class="cls-130" d="M36.91,58.2a.75.75,0,0,1,.25-.25.83.83,0,0,1,.32-.13.67.67,0,0,1-.25.25A.7.7,0,0,1,36.91,58.2Z"/><path class="cls-131" d="M36,58.08a.81.81,0,0,1,.25-.24.73.73,0,0,1,.33-.12.81.81,0,0,1-.25.24A.73.73,0,0,1,36,58.08Z"/><path class="cls-132" d="M55.21,60.7c-1.74-.2-3.49-.41-5.23-.64l-5.23-.68-5.22-.74c-1.74-.25-3.48-.51-5.21-.79,1.75.19,3.49.41,5.23.63l5.23.69L50,59.9C51.74,60.16,53.48,60.42,55.21,60.7Z"/><path class="cls-133" d="M34.32,57.85l.07.14s.41-.2,1.06-.46a9.58,9.58,0,0,1,4.71-.78.73.73,0,0,0-.48-.68,5.68,5.68,0,0,1,2.11.43,1.69,1.69,0,0,0,1.39-.12,1.16,1.16,0,0,0-.23-.57,3.2,3.2,0,0,0,2.1,0,2.47,2.47,0,0,0-.37-.68,3.42,3.42,0,0,0,2.86-.1,1.85,1.85,0,0,0-.39-.8,3.51,3.51,0,0,0,3.05,0,2.79,2.79,0,0,0-.56-1,3.64,3.64,0,0,0,2.82.11,1.78,1.78,0,0,0-.55-.89,2.4,2.4,0,0,0,2.51-.09,1.54,1.54,0,0,0-.53-.76,3.51,3.51,0,0,0,2.61-.46,1.28,1.28,0,0,0-.49-.7A2.39,2.39,0,0,0,58.09,50a1.26,1.26,0,0,0-.48-.71,3.34,3.34,0,0,0,2.29-.65,1,1,0,0,0-.62-.71,2.57,2.57,0,0,0,2.21-.6,1.52,1.52,0,0,0-.52-.62c.42.1,1.58-.24,1.72-.76a.93.93,0,0,0-.46-.39,2.44,2.44,0,0,0,1.71-.84.52.52,0,0,0-.34-.36,3.42,3.42,0,0,0,1.73-.93.67.67,0,0,0-.35-.27A10.69,10.69,0,0,0,68,41Z"/><path class="cls-134" d="M34.32,57.85l-.07-.14s.4-.21,1-.58a9.43,9.43,0,0,0,3.45-3.3.72.72,0,0,1,.25.8,5.45,5.45,0,0,0,.93-2,1.7,1.7,0,0,1,.92-1,1.26,1.26,0,0,1,.33.52c.15-.3.39-1.4,1.26-1.68a2.27,2.27,0,0,1,.32.71A3.47,3.47,0,0,1,44.51,49a1.83,1.83,0,0,1,.41.8,3.48,3.48,0,0,1,1.79-2.46,2.67,2.67,0,0,1,.44,1A3.61,3.61,0,0,1,48.75,46a1.69,1.69,0,0,1,.38,1,2.43,2.43,0,0,1,1.58-2,1.51,1.51,0,0,1,.28.88,3.57,3.57,0,0,1,1.94-1.81,1.27,1.27,0,0,1,.27.81,2.33,2.33,0,0,1,1.63-1.37,1.26,1.26,0,0,1,.28.8A3.33,3.33,0,0,1,57,42.88a1,1,0,0,1,.2.92A2.58,2.58,0,0,1,59,42.39a1.43,1.43,0,0,1,.19.79c.17-.4,1.13-1.12,1.64-.92a1,1,0,0,1,0,.6A2.36,2.36,0,0,1,62.56,42a.51.51,0,0,1,.09.48,3.46,3.46,0,0,1,1.78-.82.71.71,0,0,1,0,.44A10.72,10.72,0,0,1,68,41Z"/><path class="cls-135" d="M64.11,42.94a.83.83,0,0,1,.47,0,.77.77,0,0,1,.4.24.75.75,0,0,1-.47,0A.87.87,0,0,1,64.11,42.94Z"/><path class="cls-136" d="M61.88,44.06a2.85,2.85,0,0,1,.88,0,2.89,2.89,0,0,1,.84.29,3.09,3.09,0,0,1-1.72-.33Z"/><path class="cls-137" d="M60,45a4.58,4.58,0,0,1,1.17.15,4.94,4.94,0,0,1,1.11.41A5.63,5.63,0,0,1,60,45Z"/><path class="cls-138" d="M58,46a8.8,8.8,0,0,1,1.54.23,8,8,0,0,1,1.48.48,8.09,8.09,0,0,1-1.54-.24A8.77,8.77,0,0,1,58,46Z"/><path class="cls-139" d="M55.72,47.14a12.4,12.4,0,0,1,1.81.29,11,11,0,0,1,1.75.53,12.4,12.4,0,0,1-1.81-.29A12.14,12.14,0,0,1,55.72,47.14Z"/><path class="cls-140" d="M53.3,48.35a19.82,19.82,0,0,1,2.18.36,17.8,17.8,0,0,1,2.13.61A16,16,0,0,1,55.43,49,17.8,17.8,0,0,1,53.3,48.35Z"/><path class="cls-141" d="M51,49.49a23.58,23.58,0,0,1,2.52.39,21.29,21.29,0,0,1,2.47.63,26.51,26.51,0,0,1-5-1Z"/><path class="cls-142" d="M48.85,50.58A21.86,21.86,0,0,1,51.4,51a24.08,24.08,0,0,1,2.49.67,21.86,21.86,0,0,1-2.55-.42A24.08,24.08,0,0,1,48.85,50.58Z"/><path class="cls-143" d="M47.11,51.45a19.74,19.74,0,0,1,2.42.42,22,22,0,0,1,2.38.65,19.88,19.88,0,0,1-2.43-.41A19.35,19.35,0,0,1,47.11,51.45Z"/><path class="cls-144" d="M45.33,52.34a19.95,19.95,0,0,1,4.31,1,17.69,17.69,0,0,1-2.18-.36A16.07,16.07,0,0,1,45.33,52.34Z"/><path class="cls-145" d="M43.31,53.35a15.14,15.14,0,0,1,3.84.87,14.38,14.38,0,0,1-1.95-.31A14.1,14.1,0,0,1,43.31,53.35Z"/><path class="cls-146" d="M41.54,54.31a9.39,9.39,0,0,1,1.6.28,9.67,9.67,0,0,1,1.54.53,9.39,9.39,0,0,1-1.6-.28A9.67,9.67,0,0,1,41.54,54.31Z"/><path class="cls-147" d="M39.92,55.05a8.1,8.1,0,0,1,1.55.26,8.89,8.89,0,0,1,1.48.5,7.87,7.87,0,0,1-1.54-.26A8.7,8.7,0,0,1,39.92,55.05Z"/><path class="cls-148" d="M38.49,55.77a1.29,1.29,0,0,1,.62,0,1.49,1.49,0,0,1,.57.27,1.33,1.33,0,0,1-.63,0A1.39,1.39,0,0,1,38.49,55.77Z"/><path class="cls-149" d="M37,56.5a1.3,1.3,0,0,1,.62,0,1.43,1.43,0,0,1,.56.26,1.29,1.29,0,0,1-.62,0A1.35,1.35,0,0,1,37,56.5Z"/><path class="cls-150" d="M64.11,42.94a.83.83,0,0,1,0-.47.79.79,0,0,1,.29-.37.93.93,0,0,1,0,.47A.83.83,0,0,1,64.11,42.94Z"/><path class="cls-151" d="M61.88,44.06a2.85,2.85,0,0,1,.27-.84,2.61,2.61,0,0,1,.5-.74,3,3,0,0,1-.27.85A3,3,0,0,1,61.88,44.06Z"/><path class="cls-152" d="M60,45a5.33,5.33,0,0,1,.92-2.17A4.79,4.79,0,0,1,60.52,44,5,5,0,0,1,60,45Z"/><path class="cls-153" d="M58,46a8.34,8.34,0,0,1,.51-1.48,8.2,8.2,0,0,1,.73-1.37,8.21,8.21,0,0,1-.5,1.47A9.16,9.16,0,0,1,58,46Z"/><path class="cls-154" d="M55.72,47.14a10.75,10.75,0,0,1,.63-1.72,11.93,11.93,0,0,1,.85-1.62,10.41,10.41,0,0,1-.63,1.72A10.86,10.86,0,0,1,55.72,47.14Z"/><path class="cls-155" d="M53.3,48.35a16.52,16.52,0,0,1,.79-2.06,16.7,16.7,0,0,1,1-2,16.07,16.07,0,0,1-.79,2.07A16.57,16.57,0,0,1,53.3,48.35Z"/><path class="cls-156" d="M51,49.49a22,22,0,0,1,1-2.35,20.27,20.27,0,0,1,1.2-2.25,24.41,24.41,0,0,1-1,2.36A21.93,21.93,0,0,1,51,49.49Z"/><path class="cls-157" d="M48.85,50.58c.27-.82.61-1.61,1-2.4A24.75,24.75,0,0,1,51,45.89a23.46,23.46,0,0,1-1,2.4A22.6,22.6,0,0,1,48.85,50.58Z"/><path class="cls-158" d="M47.11,51.45A20.47,20.47,0,0,1,48,49.16,19.69,19.69,0,0,1,49.13,47a23.64,23.64,0,0,1-.9,2.29A22.57,22.57,0,0,1,47.11,51.45Z"/><path class="cls-159" d="M45.33,52.34a18.3,18.3,0,0,1,.8-2.06,15.2,15.2,0,0,1,1-2,16.57,16.57,0,0,1-.8,2.06A15.2,15.2,0,0,1,45.33,52.34Z"/><path class="cls-160" d="M43.31,53.35A14.63,14.63,0,0,1,44,51.5a12.56,12.56,0,0,1,.92-1.74,15.08,15.08,0,0,1-.69,1.84A13.28,13.28,0,0,1,43.31,53.35Z"/><path class="cls-161" d="M41.49,54.19A9.2,9.2,0,0,1,42,52.65a10.47,10.47,0,0,1,.73-1.46,9,9,0,0,1-.49,1.55A9.84,9.84,0,0,1,41.49,54.19Z"/><path class="cls-162" d="M39.92,55.05a8.39,8.39,0,0,1,.49-1.49,8.07,8.07,0,0,1,.72-1.4,8.39,8.39,0,0,1-.49,1.49A8.83,8.83,0,0,1,39.92,55.05Z"/><path class="cls-163" d="M38.49,55.77a1.4,1.4,0,0,1,.11-.62,1.37,1.37,0,0,1,.35-.52,1.36,1.36,0,0,1-.11.61A1.63,1.63,0,0,1,38.49,55.77Z"/><path class="cls-164" d="M37,56.5a1.36,1.36,0,0,1,.13-.61,1.33,1.33,0,0,1,.36-.5,1.35,1.35,0,0,1-.13.6A1.59,1.59,0,0,1,37,56.5Z"/><path class="cls-165" d="M68,41c-1.38.74-2.78,1.45-4.16,2.18l-4.19,2.15c-2.78,1.43-5.59,2.83-8.39,4.25s-5.61,2.8-8.43,4.17l-4.22,2.06c-1.42.67-2.83,1.36-4.25,2,1.38-.74,2.78-1.46,4.16-2.19l4.18-2.15c2.79-1.43,5.6-2.83,8.4-4.24s5.61-2.8,8.43-4.17L63.71,43C65.13,42.36,66.54,41.68,68,41Z"/><path class="cls-166" d="M34.32,57.85l.17.11s.32-.5.87-1.22a12.19,12.19,0,0,1,4.69-4,.92.92,0,0,0-1-.43,6.86,6.86,0,0,1,2.62-1,2.18,2.18,0,0,0,1.46-1.07,1.46,1.46,0,0,0-.63-.48,4.22,4.22,0,0,0,2.32-1.43,3.24,3.24,0,0,0-.87-.49c.39-.1,2.41-.53,3.11-2a2.34,2.34,0,0,0-1-.63,4.55,4.55,0,0,0,3.4-2,3.73,3.73,0,0,0-1.27-.69c.61-.12,2.43-.45,3.2-1.77a2.09,2.09,0,0,0-1.2-.61,3.16,3.16,0,0,0,2.72-1.8,2,2,0,0,0-1.1-.48,4.57,4.57,0,0,0,2.58-2.27,1.69,1.69,0,0,0-1-.45c.42-.09,1.8-.86,2-1.92a1.55,1.55,0,0,0-1-.47,4.34,4.34,0,0,0,2.09-2.26,1.28,1.28,0,0,0-1.16-.38,3.34,3.34,0,0,0,2-2.14,2,2,0,0,0-1-.35c.54-.16,1.59-1.31,1.4-2a1.23,1.23,0,0,0-.78-.13,3.07,3.07,0,0,0,1.33-2.07.66.66,0,0,0-.61-.17A4.51,4.51,0,0,0,59,21a.84.84,0,0,0-.56-.07c0-.06,1.71-2.79,1.84-4.42Z"/><path class="cls-167" d="M34.32,57.85l-.17-.11s.3-.5.72-1.31a12.25,12.25,0,0,0,1.59-6,.92.92,0,0,1,.82.71A7.19,7.19,0,0,0,37,48.38a2.16,2.16,0,0,1,.32-1.77A1.41,1.41,0,0,1,38,47c0-.45-.5-1.82.26-2.72a3,3,0,0,1,.84.58c-.08-.4-.57-2.4.49-3.69a2.37,2.37,0,0,1,1,.61,4.56,4.56,0,0,1,.33-3.93,3.44,3.44,0,0,1,1.17.83c-.15-.59-.64-2.38.21-3.64a2.05,2.05,0,0,1,1.07.81,3.17,3.17,0,0,1,.44-3.23,2,2,0,0,1,.91.78,4.62,4.62,0,0,1,.92-3.31,1.69,1.69,0,0,1,.85.73,3.05,3.05,0,0,1,.88-2.63,1.6,1.6,0,0,1,.85.71A4.28,4.28,0,0,1,49.37,26a1.27,1.27,0,0,1,.84.88,3.32,3.32,0,0,1,1-2.77,1.91,1.91,0,0,1,.75.74c-.09-.55.49-2,1.19-2.12a1.31,1.31,0,0,1,.45.64,3.09,3.09,0,0,1,1.29-2.1.71.71,0,0,1,.42.48,4.42,4.42,0,0,1,1.42-2.11.75.75,0,0,1,.3.48,14.13,14.13,0,0,1,3.19-3.58Z"/><path class="cls-168" d="M57.28,21.28a.92.92,0,0,1,.25-.2,1,1,0,0,1,.28-.11,1.35,1.35,0,0,1,.29,0,1.22,1.22,0,0,1,.32,0,.8.8,0,0,1-.25.21,1.46,1.46,0,0,1-.57.16A.93.93,0,0,1,57.28,21.28Z"/><path class="cls-169" d="M55.56,24a2.94,2.94,0,0,1,.49-.32,3.93,3.93,0,0,1,.52-.23,5,5,0,0,1,.55-.17,2.63,2.63,0,0,1,.58-.07,2.87,2.87,0,0,1-.49.31,3.93,3.93,0,0,1-.52.23,5,5,0,0,1-.55.17A2.62,2.62,0,0,1,55.56,24Z"/><path class="cls-170" d="M54.08,26.39a4.86,4.86,0,0,1,.68-.35l.72-.27c.24-.07.49-.14.74-.19a3.87,3.87,0,0,1,.76-.11,4.47,4.47,0,0,1-.69.35,6,6,0,0,1-.71.26,6.21,6.21,0,0,1-.74.2A4.8,4.8,0,0,1,54.08,26.39Z"/><path class="cls-171" d="M52.53,28.84c.3-.16.61-.3.92-.43s.63-.24.95-.35.64-.19,1-.27a6.43,6.43,0,0,1,1-.2,7.76,7.76,0,0,1-.92.44c-.31.13-.62.24-.94.34s-.64.2-1,.28A8.4,8.4,0,0,1,52.53,28.84Z"/><path class="cls-172" d="M50.81,31.58a9.59,9.59,0,0,1,1.09-.49c.37-.15.74-.28,1.11-.41s.75-.24,1.14-.34a10.86,10.86,0,0,1,1.16-.26,11.66,11.66,0,0,1-1.08.5c-.37.15-.74.28-1.12.41s-.75.24-1.13.34A11,11,0,0,1,50.81,31.58Z"/><path class="cls-173" d="M49,34.55A12.88,12.88,0,0,1,50.27,34c.44-.18.89-.34,1.34-.49s.91-.29,1.37-.42.92-.25,1.4-.34c-.43.22-.88.4-1.32.58s-.89.33-1.34.49-.91.29-1.37.42S49.43,34.46,49,34.55Z"/><path class="cls-174" d="M47.19,37.35c.5-.25,1-.47,1.51-.68s1-.4,1.54-.59l1.57-.53c.52-.16,1-.31,1.59-.44-.49.25-1,.47-1.51.68s-1,.41-1.54.6-1,.36-1.56.52S47.73,37.23,47.19,37.35Z"/><path class="cls-175" d="M45.52,40c.51-.24,1-.46,1.54-.66s1-.4,1.57-.58,1-.36,1.59-.51,1.07-.31,1.62-.43c-.51.25-1,.46-1.54.67l-1.57.58c-.52.17-1,.35-1.59.51S46.07,39.89,45.52,40Z"/><path class="cls-176" d="M44.18,42.15q.72-.34,1.47-.63t1.5-.54c.5-.17,1-.34,1.52-.48a16,16,0,0,1,1.55-.39c-.48.23-1,.44-1.47.63l-1.5.54c-.51.17-1,.34-1.52.48S44.7,42.05,44.18,42.15Z"/><path class="cls-177" d="M42.81,44.33c.43-.22.87-.4,1.31-.58s.89-.34,1.34-.49.91-.3,1.37-.43.92-.25,1.39-.34a11.83,11.83,0,0,1-1.31.58c-.44.18-.89.34-1.34.5s-.91.29-1.37.42S43.28,44.24,42.81,44.33Z"/><path class="cls-178" d="M41.25,46.81a10.16,10.16,0,0,1,1.17-.52c.4-.16.8-.31,1.2-.44s.81-.27,1.22-.38.83-.21,1.25-.28a10.16,10.16,0,0,1-1.17.52c-.39.16-.79.31-1.2.44s-.81.27-1.22.38A12.61,12.61,0,0,1,41.25,46.81Z"/><path class="cls-179" d="M39.94,49.06a9,9,0,0,1,1-.42c.33-.13.67-.23,1-.34s.67-.19,1-.26a7.06,7.06,0,0,1,1-.18,9.16,9.16,0,0,1-1,.42c-.33.12-.66.23-1,.33s-.67.2-1,.27A9,9,0,0,1,39.94,49.06Z"/><path class="cls-180" d="M38.64,51a7.78,7.78,0,0,1,.93-.42l1-.33c.32-.1.65-.19,1-.26a8,8,0,0,1,1-.18,7.78,7.78,0,0,1-.93.42c-.31.12-.64.23-1,.33s-.65.19-1,.26A6.53,6.53,0,0,1,38.64,51Z"/><path class="cls-181" d="M37.53,52.73a1.51,1.51,0,0,1,.35-.23,2.39,2.39,0,0,1,.37-.15,1.8,1.8,0,0,1,.39-.08,1.2,1.2,0,0,1,.42,0,1.51,1.51,0,0,1-.35.23,2.39,2.39,0,0,1-.37.15,1.69,1.69,0,0,1-.39.08A1.2,1.2,0,0,1,37.53,52.73Z"/><path class="cls-182" d="M36.41,54.53a1.31,1.31,0,0,1,.33-.25l.36-.16a2.74,2.74,0,0,1,.39-.09,1.87,1.87,0,0,1,.41,0,1.51,1.51,0,0,1-.33.25,2.39,2.39,0,0,1-.37.15,2.34,2.34,0,0,1-.38.09A1.4,1.4,0,0,1,36.41,54.53Z"/><path class="cls-183" d="M57.28,21.28A1,1,0,0,1,57.1,21a.9.9,0,0,1-.08-.28,1.51,1.51,0,0,1,0-.3,1.25,1.25,0,0,1,.07-.31.85.85,0,0,1,.18.27,1.52,1.52,0,0,1,.09.28,1,1,0,0,1,0,.3A.73.73,0,0,1,57.28,21.28Z"/><path class="cls-184" d="M55.56,24a3.65,3.65,0,0,1-.18-.56,3.43,3.43,0,0,1-.08-.56,3.62,3.62,0,0,1,0-.57,2.36,2.36,0,0,1,.07-.58,2.43,2.43,0,0,1,.18.56,5,5,0,0,1,.09.56,5.43,5.43,0,0,1,0,.57A3,3,0,0,1,55.56,24Z"/><path class="cls-185" d="M54.08,26.39a4,4,0,0,1-.24-.74,6.58,6.58,0,0,1-.14-.75c0-.25-.06-.5-.08-.76a5,5,0,0,1,0-.77,4.87,4.87,0,0,1,.23.74q.09.36.15.75a6.31,6.31,0,0,1,.07.76A5,5,0,0,1,54.08,26.39Z"/><path class="cls-186" d="M52.53,28.84a8.32,8.32,0,0,1-.26-1c-.07-.33-.12-.66-.17-1s-.08-.67-.1-1a7,7,0,0,1,0-1,8.87,8.87,0,0,1,.26,1c.07.33.12.66.17,1s.08.66.1,1A6.81,6.81,0,0,1,52.53,28.84Z"/><path class="cls-187" d="M50.81,31.58a11.48,11.48,0,0,1-.27-1.16c-.08-.39-.14-.78-.19-1.17s-.09-.78-.11-1.18a9.41,9.41,0,0,1,0-1.19A11.52,11.52,0,0,1,50.49,28q.1.59.18,1.17c0,.39.09.79.12,1.18A9.45,9.45,0,0,1,50.81,31.58Z"/><path class="cls-188" d="M49,34.55q-.18-.7-.3-1.41c-.09-.47-.15-.94-.21-1.41s-.11-.95-.15-1.43-.06-.95,0-1.43a13.41,13.41,0,0,1,.3,1.4c.09.47.16.95.22,1.42s.11.94.14,1.42A13.76,13.76,0,0,1,49,34.55Z"/><path class="cls-189" d="M47.19,37.35c-.12-.54-.21-1.08-.29-1.63s-.15-1.09-.21-1.64-.11-1.09-.14-1.64,0-1.1,0-1.65q.18.81.3,1.62c.08.55.14,1.09.2,1.64s.11,1.1.14,1.65S47.2,36.8,47.19,37.35Z"/><path class="cls-190" d="M45.52,40c-.13-.54-.23-1.09-.32-1.64S45,37.26,45,36.71s-.12-1.11-.16-1.66-.07-1.11-.07-1.68c.13.55.23,1.1.32,1.65s.16,1.1.23,1.65.12,1.11.16,1.67S45.52,39.45,45.52,40Z"/><path class="cls-191" d="M44.18,42.15a14.39,14.39,0,0,1-.32-1.56c-.1-.53-.17-1.06-.24-1.58s-.12-1.06-.16-1.59-.07-1.06-.07-1.6c.14.52.24,1,.33,1.57s.16,1,.23,1.58.12,1.05.16,1.58S44.18,41.62,44.18,42.15Z"/><path class="cls-192" d="M42.81,44.33a13.41,13.41,0,0,1-.3-1.4c-.08-.47-.15-1-.21-1.42s-.11-.95-.14-1.42-.06-1,0-1.44a14.17,14.17,0,0,1,.3,1.41c.09.47.15.94.21,1.41s.11,1,.14,1.43S42.82,43.85,42.81,44.33Z"/><path class="cls-193" d="M41.25,46.81A10.74,10.74,0,0,1,41,45.56c-.08-.42-.14-.84-.2-1.26s-.1-.85-.12-1.27,0-.85,0-1.28c.12.41.21.83.29,1.25s.14.84.19,1.26.1.84.13,1.27S41.26,46.38,41.25,46.81Z"/><path class="cls-194" d="M39.8,49a8.94,8.94,0,0,1-.29-1c-.08-.34-.15-.69-.21-1s-.1-.7-.13-1a9.21,9.21,0,0,1,0-1.05,7.3,7.3,0,0,1,.3,1c.08.34.14.69.2,1s.1.7.13,1.05A9.21,9.21,0,0,1,39.8,49Z"/><path class="cls-195" d="M38.64,51a8.41,8.41,0,0,1-.28-1c-.07-.33-.13-.66-.19-1s-.09-.67-.11-1a7,7,0,0,1,0-1,8.41,8.41,0,0,1,.28,1c.07.33.13.66.19,1s.09.67.11,1A7,7,0,0,1,38.64,51Z"/><path class="cls-196" d="M37.53,52.73a1.44,1.44,0,0,1-.19-.37,2.74,2.74,0,0,1-.09-.39,2.6,2.6,0,0,1,0-.4,1.51,1.51,0,0,1,.06-.41,1.3,1.3,0,0,1,.19.37,2.79,2.79,0,0,1,.1.39,1.79,1.79,0,0,1,0,.4A1.17,1.17,0,0,1,37.53,52.73Z"/><path class="cls-197" d="M36.41,54.53a1.2,1.2,0,0,1-.18-.38,2.34,2.34,0,0,1-.09-.38,2.64,2.64,0,0,1,0-.4,1.4,1.4,0,0,1,.07-.4,1.15,1.15,0,0,1,.18.37,2.46,2.46,0,0,1,.09.39,2.54,2.54,0,0,1,0,.39A1.53,1.53,0,0,1,36.41,54.53Z"/><path class="cls-198" d="M60.25,16.55c-1,1.75-2.09,3.49-3.14,5.23L53.93,27c-2.13,3.46-4.29,6.9-6.44,10.35S43.16,44.21,41,47.63l-3.3,5.12c-1.11,1.7-2.21,3.41-3.34,5.1,1-1.75,2.09-3.48,3.14-5.23l3.18-5.19c2.13-3.47,4.29-6.91,6.44-10.36s4.34-6.87,6.53-10.29l3.3-5.13C58,20,59.12,18.24,60.25,16.55Z"/></g><g id="leaf-4" data-name="leaf"><path class="cls-199" d="M34.32,57.85h.24s0-.69.1-1.76a14.47,14.47,0,0,1,2.14-6.92,1.09,1.09,0,0,0-1.25.19,8.28,8.28,0,0,1,2-2.57,2.56,2.56,0,0,0,.78-2,1.72,1.72,0,0,0-.93-.08,4.91,4.91,0,0,0,1.41-2.86,3.41,3.41,0,0,0-1.17,0c.33-.34,2.07-2,1.82-4a2.81,2.81,0,0,0-1.36,0,5.35,5.35,0,0,0,2.12-4.11,4.08,4.08,0,0,0-1.68.1c.52-.49,2.12-2,2.06-3.75a2.54,2.54,0,0,0-1.57.14,3.67,3.67,0,0,0,1.58-3.48,2.42,2.42,0,0,0-1.39.22,5.39,5.39,0,0,0,1.15-3.87,2,2,0,0,0-1.29.2,3.6,3.6,0,0,0,.76-3.15,1.81,1.81,0,0,0-1.28.16,5,5,0,0,0,.66-3.55,1.52,1.52,0,0,0-1.38.35,3.89,3.89,0,0,0,.69-3.4,2.14,2.14,0,0,0-1.2.28c.43-.5.76-2.3.15-2.86a1.5,1.5,0,0,0-.85.36,3.62,3.62,0,0,0,0-2.89.82.82,0,0,0-.71.22,5.2,5.2,0,0,0-.1-3,1,1,0,0,0-.59.28c0-.09-.05-3.84-.93-5.53Z"/><path class="cls-200" d="M34.32,57.85h-.24s0-.69-.1-1.76a14.36,14.36,0,0,0-2.14-6.92,1.09,1.09,0,0,1,1.25.19,8.12,8.12,0,0,0-2-2.57,2.59,2.59,0,0,1-.79-2,1.65,1.65,0,0,1,.93-.08c-.3-.43-1.63-1.49-1.43-2.87a4,4,0,0,1,1.2.05c-.33-.34-2.07-2-1.82-4a2.82,2.82,0,0,1,1.36,0,5.4,5.4,0,0,1-2.12-4.11,4.13,4.13,0,0,1,1.69.1c-.52-.5-2.12-2-2.07-3.75a2.49,2.49,0,0,1,1.58.14A3.68,3.68,0,0,1,28,26.85a2.32,2.32,0,0,1,1.39.21,5.35,5.35,0,0,1-1.15-3.86,2,2,0,0,1,1.29.19,3.6,3.6,0,0,1-.76-3.15,1.91,1.91,0,0,1,1.29.17,5,5,0,0,1-.67-3.55,1.51,1.51,0,0,1,1.38.35,3.92,3.92,0,0,1-.69-3.4,2.19,2.19,0,0,1,1.2.27c-.43-.49-.75-2.29-.14-2.85a1.5,1.5,0,0,1,.85.36A3.62,3.62,0,0,1,32,8.7a.82.82,0,0,1,.71.22,5.2,5.2,0,0,1,.1-3,1,1,0,0,1,.6.28c0-.09,0-3.84.93-5.53Z"/><path class="cls-201" d="M34.33,7.25a1,1,0,0,1,.13-.36,1.1,1.1,0,0,1,.2-.28,1.43,1.43,0,0,1,.26-.23,1.13,1.13,0,0,1,.35-.16,1,1,0,0,1-.13.36,1,1,0,0,1-.2.28,1.13,1.13,0,0,1-.26.23A.94.94,0,0,1,34.33,7.25Z"/><path class="cls-202" d="M34.33,11a4.39,4.39,0,0,1,.29-.62A6.61,6.61,0,0,1,35,9.86a4.25,4.25,0,0,1,.44-.5A3.26,3.26,0,0,1,36,8.92a3.92,3.92,0,0,1-.29.62,5.28,5.28,0,0,1-.37.55,4.25,4.25,0,0,1-.44.5A3.26,3.26,0,0,1,34.33,11Z"/><path class="cls-203" d="M34.33,14.31a6.59,6.59,0,0,1,.47-.77c.17-.25.35-.48.54-.71s.4-.45.61-.66a6.74,6.74,0,0,1,.7-.58,6.72,6.72,0,0,1-.47.78c-.17.24-.35.48-.54.71s-.4.44-.62.65A4.32,4.32,0,0,1,34.33,14.31Z"/><path class="cls-204" d="M34.33,17.71a9.43,9.43,0,0,1,.64-1c.23-.32.48-.63.73-.93s.51-.6.78-.88a9.48,9.48,0,0,1,.87-.81,9.43,9.43,0,0,1-.64,1q-.35.48-.72.93c-.26.3-.51.6-.79.88A9.58,9.58,0,0,1,34.33,17.71Z"/><path class="cls-205" d="M34.33,21.5a13.11,13.11,0,0,1,.77-1.17c.27-.37.56-.74.85-1.09s.6-.71.91-1,.65-.67,1-1a11.24,11.24,0,0,1-.77,1.17c-.27.38-.56.74-.85,1.1s-.59.7-.91,1A13.23,13.23,0,0,1,34.33,21.5Z"/><path class="cls-206" d="M34.33,25.6a16.24,16.24,0,0,1,1-1.39c.33-.45.67-.89,1-1.32S37,22,37.4,21.62a16.79,16.79,0,0,1,1.18-1.21c-.3.49-.62.95-.95,1.4s-.68.88-1,1.32-.72.86-1.09,1.27S34.74,25.22,34.33,25.6Z"/><path class="cls-207" d="M34.33,29.48c.33-.55.7-1.09,1.07-1.61s.77-1,1.16-1.55.81-1,1.23-1.5.85-1,1.31-1.42C38.76,24,38.4,24.48,38,25s-.76,1-1.16,1.55-.8,1-1.22,1.49S34.79,29,34.33,29.48Z"/><path class="cls-208" d="M34.33,33.16c.35-.55.72-1.09,1.11-1.61s.79-1,1.2-1.55.82-1,1.26-1.5.87-1,1.34-1.43c-.35.56-.72,1.09-1.11,1.62s-.79,1-1.2,1.55-.83,1-1.26,1.49S34.8,32.7,34.33,33.16Z"/><path class="cls-209" d="M34.33,36.13c.33-.53.69-1,1.06-1.54s.76-1,1.15-1.48.8-1,1.21-1.42.84-.92,1.3-1.36A18.52,18.52,0,0,1,38,31.88q-.55.75-1.14,1.47c-.4.48-.8,1-1.22,1.42S34.78,35.7,34.33,36.13Z"/><path class="cls-210" d="M34.33,39.14c.29-.48.61-.94.94-1.39s.67-.89,1-1.33.72-.86,1.09-1.27.76-.82,1.18-1.21c-.29.49-.62,1-1,1.4s-.67.89-1,1.32-.72.86-1.09,1.28S34.74,38.76,34.33,39.14Z"/><path class="cls-211" d="M34.32,42.57c.26-.43.54-.84.84-1.25s.6-.79.91-1.18.64-.76,1-1.13A13.38,13.38,0,0,1,38.12,38c-.26.43-.54.85-.84,1.25s-.6.79-.91,1.18-.64.77-1,1.13A13.38,13.38,0,0,1,34.32,42.57Z"/><path class="cls-212" d="M34.42,45.63a10.36,10.36,0,0,1,.7-1c.25-.32.51-.64.78-1s.55-.61.84-.9a10.44,10.44,0,0,1,.92-.83,10.36,10.36,0,0,1-.7,1c-.24.33-.51.64-.78.95s-.55.61-.84.9A10.44,10.44,0,0,1,34.42,45.63Z"/><path class="cls-213" d="M34.32,48.33a8.59,8.59,0,0,1,.67-1c.23-.32.48-.63.74-.93s.52-.59.81-.87a11.13,11.13,0,0,1,.88-.8,7.41,7.41,0,0,1-.66,1c-.23.32-.49.63-.74.93s-.53.59-.81.87A9.74,9.74,0,0,1,34.32,48.33Z"/><path class="cls-214" d="M34.32,50.77a2,2,0,0,1,.2-.45,2.6,2.6,0,0,1,.27-.38,2.54,2.54,0,0,1,.34-.32,2,2,0,0,1,.42-.26,1.53,1.53,0,0,1-.19.45,2.2,2.2,0,0,1-.28.38,2.13,2.13,0,0,1-.34.33A1.46,1.46,0,0,1,34.32,50.77Z"/><path class="cls-215" d="M34.32,53.25a1.63,1.63,0,0,1,.18-.45,2.5,2.5,0,0,1,.59-.71,1.69,1.69,0,0,1,.41-.26,2,2,0,0,1-.18.45,3.62,3.62,0,0,1-.26.38,2.57,2.57,0,0,1-.33.33A1.69,1.69,0,0,1,34.32,53.25Z"/><path class="cls-216" d="M34.33,7.25A1,1,0,0,1,34,7.09a1.13,1.13,0,0,1-.26-.23,1,1,0,0,1-.2-.28.81.81,0,0,1-.12-.36,1.19,1.19,0,0,1,.34.16,1.43,1.43,0,0,1,.26.23,1.1,1.1,0,0,1,.2.28A.85.85,0,0,1,34.33,7.25Z"/><path class="cls-217" d="M34.33,11a3.67,3.67,0,0,1-.52-.44,4.25,4.25,0,0,1-.44-.5A5.28,5.28,0,0,1,33,9.54a3.5,3.5,0,0,1-.29-.62,3.26,3.26,0,0,1,.53.44,3.43,3.43,0,0,1,.43.5,4.91,4.91,0,0,1,.38.55A3.46,3.46,0,0,1,34.33,11Z"/><path class="cls-218" d="M34.33,14.31a5.43,5.43,0,0,1-.69-.58c-.21-.21-.41-.43-.61-.66a7.25,7.25,0,0,1-.54-.7,4.75,4.75,0,0,1-.47-.78,4.82,4.82,0,0,1,.69.58,7.57,7.57,0,0,1,.61.66c.19.23.38.46.55.71A5.4,5.4,0,0,1,34.33,14.31Z"/><path class="cls-219" d="M34.33,17.71a11.12,11.12,0,0,1-.87-.81c-.27-.28-.53-.58-.78-.88s-.5-.61-.73-.93a8.64,8.64,0,0,1-.64-1,9.68,9.68,0,0,1,.87.82c.28.28.53.58.79.88s.49.61.72.93A9.43,9.43,0,0,1,34.33,17.71Z"/><path class="cls-220" d="M34.33,21.5c-.35-.31-.68-.64-1-1s-.61-.69-.91-1-.58-.73-.85-1.1-.53-.76-.77-1.17a13.23,13.23,0,0,1,1,1c.32.34.62.69.91,1s.58.73.85,1.1A11.24,11.24,0,0,1,34.33,21.5Z"/><path class="cls-221" d="M34.33,25.6c-.42-.38-.8-.79-1.18-1.2s-.73-.84-1.09-1.27-.7-.87-1-1.33-.65-.91-.94-1.39a16.71,16.71,0,0,1,1.17,1.21c.38.41.74.84,1.1,1.27s.69.87,1,1.32A16.24,16.24,0,0,1,34.33,25.6Z"/><path class="cls-222" d="M34.33,29.48c-.46-.46-.89-.94-1.31-1.43s-.83-1-1.23-1.5-.78-1-1.15-1.54S29.9,24,29.56,23.39c.46.46.89.94,1.31,1.43s.82,1,1.22,1.5.79,1,1.16,1.55S34,28.92,34.33,29.48Z"/><path class="cls-223" d="M34.33,33.16c-.47-.46-.91-.94-1.35-1.43s-.84-1-1.26-1.5-.81-1-1.19-1.55-.77-1.06-1.11-1.62c.47.46.91,1,1.34,1.44s.85,1,1.26,1.49.81,1,1.2,1.56S34,32.61,34.33,33.16Z"/><path class="cls-224" d="M34.33,36.13c-.46-.44-.88-.89-1.3-1.36s-.82-.94-1.21-1.42-.78-1-1.15-1.47-.73-1-1.06-1.55c.45.43.88.89,1.29,1.36s.82.94,1.21,1.42.78,1,1.15,1.48S34,35.6,34.33,36.13Z"/><path class="cls-225" d="M34.33,39.14a16.84,16.84,0,0,1-1.18-1.21c-.37-.41-.73-.84-1.09-1.27s-.69-.87-1-1.33-.65-.91-.94-1.39a16.71,16.71,0,0,1,1.17,1.21c.38.41.73.84,1.09,1.27s.69.87,1,1.33S34,38.66,34.33,39.14Z"/><path class="cls-226" d="M34.32,42.57c-.37-.33-.72-.69-1.06-1.06s-.66-.75-1-1.13-.62-.78-.91-1.18-.58-.82-.84-1.25A13.38,13.38,0,0,1,31.6,39c.34.36.66.75,1,1.13s.62.78.91,1.18A14.25,14.25,0,0,1,34.32,42.57Z"/><path class="cls-227" d="M34.23,45.63a10.44,10.44,0,0,1-.92-.83c-.3-.29-.57-.59-.85-.9s-.53-.62-.78-.95a12.32,12.32,0,0,1-.69-1,10.44,10.44,0,0,1,.92.83q.44.44.84.9c.27.31.53.62.78,1A10.36,10.36,0,0,1,34.23,45.63Z"/><path class="cls-228" d="M34.32,48.33a9.61,9.61,0,0,1-.88-.8c-.29-.28-.55-.58-.81-.87s-.51-.61-.74-.93a9.55,9.55,0,0,1-.67-1,8.46,8.46,0,0,1,.89.8q.42.42.81.87c.25.3.51.61.74.92A9.6,9.6,0,0,1,34.32,48.33Z"/><path class="cls-229" d="M34.32,50.77a2.45,2.45,0,0,1-.42-.25,3.51,3.51,0,0,1-.34-.33,2.6,2.6,0,0,1-.27-.38,1.86,1.86,0,0,1-.2-.45,1.58,1.58,0,0,1,.42.26,1.72,1.72,0,0,1,.34.32,2.66,2.66,0,0,1,.28.38A1.65,1.65,0,0,1,34.32,50.77Z"/><path class="cls-230" d="M34.32,53.25a1.69,1.69,0,0,1-.41-.26,2.5,2.5,0,0,1-.32-.33,2,2,0,0,1-.26-.38,1.37,1.37,0,0,1-.18-.45,1.69,1.69,0,0,1,.41.26,2.5,2.5,0,0,1,.32.33,2,2,0,0,1,.26.38A1.63,1.63,0,0,1,34.32,53.25Z"/><path class="cls-231" d="M34.34.7c.06,2.38.09,4.77.13,7.15L34.55,15c0,2.38,0,4.76,0,7.14l0,7.15,0,7.14c0,2.38,0,4.76-.05,7.14l-.08,7.15c-.05,2.38-.07,4.76-.14,7.14-.06-2.38-.09-4.76-.14-7.14l-.08-7.15c0-2.38,0-4.76,0-7.14l0-7.14,0-7.15c0-2.38,0-4.76,0-7.14l.09-7.14C34.24,5.47,34.27,3.08,34.34.7Z"/></g><g id="stem"><path class="cls-232" d="M34.32,69a2.35,2.35,0,0,1,.84.13c-.65-1.19-.6-11.28-.6-11.28h-.25Z"/><path class="cls-233" d="M34.32,69a2.28,2.28,0,0,0-.84.13c.65-1.19.6-11.28.6-11.28h.25Z"/></g></g></g></g></svg>