<svg xmlns="http://www.w3.org/2000/svg" viewBox="0 0 99.12 66.33"><defs><style>.cls-1{fill:#a09f9f;}.cls-2{fill:#fff;}</style></defs><title>Recurso 6</title><g id="Capa_2" data-name="Capa 2"><g id="Layer_1" data-name="Layer 1"><path class="cls-1" d="M74.81,7.71A7.68,7.68,0,0,0,67.19,0H7.59A7.66,7.66,0,0,0,0,7.71v1H74.81Z"/><path class="cls-1" d="M92.6,12.49H85.37A6.65,6.65,0,0,0,79,17.64H74.84V7.35H0L0,19.62a9.69,9.69,0,0,0,9.42,7.85,9.63,9.63,0,0,0,8.35-4.88,1.09,1.09,0,0,1,1.9,0,9.58,9.58,0,0,0,16.69,0,1.09,1.09,0,0,1,1.9,0,9.57,9.57,0,0,0,16.69,0,1.09,1.09,0,0,1,1.9,0A9.57,9.57,0,0,0,74,21.73H78.8V39.81H72.46V28.49a13,13,0,0,1-7.21,2.21,12.84,12.84,0,0,1-8.35-3.09,1.51,1.51,0,0,0-1.94,0,12.78,12.78,0,0,1-16.65,0,1.49,1.49,0,0,0-1.94,0,12.79,12.79,0,0,1-16.65,0,1.49,1.49,0,0,0-1.94,0,12.8,12.8,0,0,1-16.7,0V61.21A5.12,5.12,0,0,0,6.2,66.33h5.17V49.89a6.28,6.28,0,0,1,6.26-6.26h5.11a6.18,6.18,0,0,1,6.18,6.18V66.33H67.35a5.11,5.11,0,0,0,5.11-5.12V43.9H79A6.62,6.62,0,0,0,85.37,49h7.25a6.5,6.5,0,0,0,6.5-6.5V19A6.52,6.52,0,0,0,92.6,12.49ZM63.23,54.75a4.87,4.87,0,0,1-4.91,4.85H42.64a4.85,4.85,0,0,1-4.88-4.85V49.57H63.23Zm0-8.48H37.76V41.12a4.88,4.88,0,0,1,4.88-4.88H58.32a4.9,4.9,0,0,1,4.91,4.88Z"/><rect class="cls-1" x="48.51" y="33.24" width="3" height="28"/><path class="cls-2" d="M89.08,23.89s.4,3,.63,6c.06.75.2,1.5.21,2.21a9.27,9.27,0,0,1-.21,1.93A7.58,7.58,0,0,1,89.08,36H88.9a7.12,7.12,0,0,1-.63-1.89,8.61,8.61,0,0,1-.22-1.93c0-.71.16-1.46.22-2.21.22-3,.63-6,.63-6Z"/><path class="cls-2" d="M88.93,35.87s1.81-2.12,3.74-4.1c.48-.49.91-1.05,1.38-1.49a7.64,7.64,0,0,1,1.48-1,6.38,6.38,0,0,1,1.71-.66l.12.14a6.67,6.67,0,0,1-.89,1.6,7.92,7.92,0,0,1-1.19,1.33c-.49.41-1.11.75-1.67,1.16C91.39,34.5,89,36,89,36Z"/><path class="cls-2" d="M90.61,37.48s1.39-1.76,2.91-3.37c.37-.41.69-.88,1.07-1.23a5.09,5.09,0,0,1,1.21-.77,4.67,4.67,0,0,1,1.45-.43l.12.14a4.61,4.61,0,0,1-.62,1.38,5.4,5.4,0,0,1-.93,1.09c-.4.33-.9.58-1.36.9-1.81,1.28-3.74,2.42-3.74,2.42Z"/><path class="cls-2" d="M87.64,37.61s-2-1.08-3.8-2.31c-.47-.3-1-.55-1.39-.86a5.11,5.11,0,0,1-1-1.06A4.68,4.68,0,0,1,80.83,32l.12-.14a4.62,4.62,0,0,1,1.46.39,5.3,5.3,0,0,1,1.23.73c.39.34.73.8,1.11,1.2,1.56,1.57,3,3.28,3,3.28Z"/><path class="cls-2" d="M88.93,36s-2.34-1.52-4.56-3.17c-.55-.41-1.16-.76-1.66-1.18a7.89,7.89,0,0,1-1.18-1.33,6.35,6.35,0,0,1-.88-1.61l.12-.13a6.38,6.38,0,0,1,1.71.66,7.74,7.74,0,0,1,1.47,1c.47.44.9,1,1.38,1.5,1.92,2,3.71,4.11,3.71,4.11Z"/></g></g></svg>