<svg xmlns="http://www.w3.org/2000/svg" viewBox="0 0 85.19 67.76"><defs><style>.cls-1{fill:#317d3d;}</style></defs><title>Recurso 2</title><g id="Capa_2" data-name="Capa 2"><g id="Layer_1" data-name="Layer 1"><path class="cls-1" d="M0,67.71l13.45,0A2.8,2.8,0,0,1,15,67.26a2.83,2.83,0,0,1,1.59.5c7.4,0,14.8,0,22.2-.08a2.85,2.85,0,0,1,0-.42,3.26,3.26,0,1,1,6.52,0c0,.12,0,.22,0,.33l6.16-.13c11.25-.29,22.5,0,33.75,0V48c-4.48-1-8.6-1.78-12.32-2.32,0-.07-1.59-7.82-5.84-12.11,1.18-2.13,1.29-5.26-2-8.55C60.93,20.87,51.1,20,51.1,20S51.93,29.86,56,34c3.3,3.31,6.28,3.34,8.48,2.07,2.21,3.15,1.8,8.71,1.77,8.8-25-2.25-30.51,6.14-45.65,2.83-.11-.2-5.27-11,3.81-19.53,4.05,3.05,10,3.67,16.56-2.94C48.44,17.77,49.94,0,49.94,0S32.16,1.5,24.73,8.93c-6.6,6.6-5.61,12.86-2.82,16.66-2.17,2.16-10,9.91-8.83,19.73A104.09,104.09,0,0,1,0,39ZM70,52.38a1.89,1.89,0,1,1-1.89,1.89A1.89,1.89,0,0,1,70,52.38ZM53.67,51.25a3.59,3.59,0,1,1-3.59,3.59A3.59,3.59,0,0,1,53.67,51.25ZM25.18,58.43a1.36,1.36,0,1,1-1.35,1.35A1.35,1.35,0,0,1,25.18,58.43Zm-12-4.32A3.19,3.19,0,1,1,10,57.29,3.19,3.19,0,0,1,13.17,54.11Z"/><path class="cls-1" d="M19.61,29.32l0,0,.07,0,.26-.23a4.27,4.27,0,0,1,1.73-1.48l.21-.31c.09-.14.21-.27.31-.4l-.09-.1c1.18-2.13,1.29-5.26-2-8.55C16,14.14,6.19,13.31,6.19,13.31S7,23.14,11.13,27.25C14.43,30.56,17.41,30.59,19.61,29.32Z"/><path class="cls-1" d="M69.12,26c-3.5,2.38-3.6,5.25-2.68,7.19l0,0c.28.47.57.93.87,1.39l.09-.07c1.55,1.71,4.12,2.49,7.64.1,3.94-2.67,6.13-10.47,6.13-10.47S73.07,23.33,69.12,26Z"/></g></g></svg>