<svg xmlns="http://www.w3.org/2000/svg" viewBox="0 0 43.42 77.02"><defs><style>.cls-1{fill:#a09f9f;}.cls-2{fill:#fff;}.cls-3{fill:#317d3d;}</style></defs><title>Recurso 4</title><g id="Capa_2" data-name="Capa 2"><g id="Layer_1" data-name="Layer 1"><path class="cls-1" d="M31.23,17.57H12.42A12.17,12.17,0,0,0,0,29.56V72.09A5,5,0,0,0,4.83,77h34a4.83,4.83,0,0,0,4.59-4.93V29.56A12,12,0,0,0,31.23,17.57Z"/><path class="cls-1" d="M7.09,16.17H36.33c3.92,0,7.09-2.64,7.09-5.9V5.9c0-3.26-3.17-5.9-7.09-5.9H7.09C3.17,0,0,2.64,0,5.9v4.37C0,13.53,3.17,16.17,7.09,16.17Z"/><path class="cls-2" d="M5.87,50.11c0-9.51,2.68-17.22,5.92-17.22H31.66c3.24,0,5.89,7.71,5.89,17.22v.34c0,9.52-2.65,17.32-5.89,17.32H11.79c-3.24,0-5.92-7.8-5.92-17.32Z"/><path class="cls-3" d="M22.17,40.81s.09,1,.23,2.63.26,3.68.4,5.79c.06,1.05.2,2.1.22,3.09A19.38,19.38,0,0,1,22.8,55a13.64,13.64,0,0,1-.63,2.63H22A12.79,12.79,0,0,1,21.36,55a19.38,19.38,0,0,1-.22-2.69c0-1,.16-2,.22-3.09.14-2.11.25-4.21.4-5.79s.23-2.63.23-2.63Z"/><path class="cls-3" d="M22,57.54s.65-.71,1.66-1.75,2.37-2.4,3.72-3.77c.69-.68,1.32-1.41,2-2a14.45,14.45,0,0,1,2-1.45,10.86,10.86,0,0,1,2.22-1.1l.12.13a11.1,11.1,0,0,1-1.4,2.05,14.75,14.75,0,0,1-1.71,1.79c-.69.57-1.51,1.1-2.27,1.68-1.54,1.16-3.07,2.34-4.25,3.17s-2,1.41-2,1.41Z"/><path class="cls-3" d="M24.36,59.79s2.05-2.33,4.22-4.52c.54-.55,1-1.16,1.56-1.65a10.47,10.47,0,0,1,1.63-1.13,7.88,7.88,0,0,1,1.86-.78l.12.13a7.63,7.63,0,0,1-1,1.74A10.4,10.4,0,0,1,31.38,55c-.56.46-1.23.86-1.85,1.32-2.46,1.85-5.05,3.56-5.05,3.56Z"/><path class="cls-3" d="M20.23,59.92s-2.63-1.64-5.15-3.42c-.63-.44-1.31-.82-1.88-1.26a9.69,9.69,0,0,1-1.39-1.42,8,8,0,0,1-1.08-1.71l.11-.14a7.88,7.88,0,0,1,1.89.74,9.51,9.51,0,0,1,1.66,1.08c.54.47,1,1.07,1.61,1.6,2.23,2.13,4.35,4.39,4.35,4.39Z"/><path class="cls-3" d="M22,57.71s-.79-.55-2-1.42-2.69-2-4.23-3.19c-.76-.59-1.57-1.12-2.26-1.7a15.42,15.42,0,0,1-1.7-1.79,11.57,11.57,0,0,1-1.39-2.06l.12-.14a11.75,11.75,0,0,1,2.22,1.12,15.16,15.16,0,0,1,2,1.46c.67.61,1.29,1.35,2,2,1.35,1.38,2.71,2.73,3.7,3.79s1.65,1.76,1.65,1.76Z"/></g></g></svg>