<svg xmlns="http://www.w3.org/2000/svg" viewBox="0 0 89.03 53.05"><defs><style>.cls-1{fill:#a09f9f;}.cls-2{fill:#fff;}</style></defs><title>Recurso 5</title><g id="Capa_2" data-name="Capa 2"><g id="Layer_1" data-name="Layer 1"><path class="cls-1" d="M78,0H11C4.91,0,0,4.58,0,10.22V42.83c0,5.64,4.91,10.22,11,10.22H78c6.09,0,11-4.58,11-10.22V10.22C89,4.58,84.13,0,78,0Z"/><path class="cls-2" d="M34.06,13.1a3.26,3.26,0,0,1,3.27-3.23h11a3.25,3.25,0,0,1,3.26,3.23v.07a3.28,3.28,0,0,1-3.26,3.27h-11a3.29,3.29,0,0,1-3.27-3.27Zm0,12a3.26,3.26,0,0,1,3.27-3.24h11a3.26,3.26,0,0,1,3.26,3.24v.07a3.27,3.27,0,0,1-3.26,3.26h-11a3.28,3.28,0,0,1-3.27-3.26ZM79.91,37.17a3.22,3.22,0,0,1-3.21,3.25H37.33a3.27,3.27,0,0,1-3.27-3.25V37.1a3.26,3.26,0,0,1,3.27-3.24H76.7a3.21,3.21,0,0,1,3.21,3.24Z"/><path class="cls-2" d="M68.61,9.76s.1,1.05.23,2.63.26,3.68.4,5.78c.06,1,.21,2.11.22,3.09a16.76,16.76,0,0,1-.22,2.7,12.79,12.79,0,0,1-.63,2.63h-.18A13.64,13.64,0,0,1,67.8,24a18.06,18.06,0,0,1-.21-2.7c0-1,.15-2,.21-3.09.14-2.1.26-4.21.4-5.78s.23-2.63.23-2.63Z"/><path class="cls-2" d="M68.46,26.49s.66-.71,1.66-1.75,2.37-2.41,3.73-3.78c.68-.67,1.32-1.41,2-2a17,17,0,0,1,2-1.46,11.77,11.77,0,0,1,2.23-1.1l.12.14a11.5,11.5,0,0,1-1.4,2,14.75,14.75,0,0,1-1.71,1.78c-.69.58-1.51,1.1-2.28,1.69-1.54,1.16-3.06,2.33-4.24,3.17s-2,1.4-2,1.4Z"/><path class="cls-2" d="M70.81,28.73s2-2.32,4.22-4.51c.54-.55,1-1.16,1.56-1.65a9.61,9.61,0,0,1,1.63-1.13,7.52,7.52,0,0,1,1.86-.79l.12.14a8,8,0,0,1-1,1.74A9.32,9.32,0,0,1,77.82,24c-.55.46-1.23.86-1.85,1.32-2.46,1.85-5,3.57-5,3.57Z"/><path class="cls-2" d="M66.68,28.87S64,27.23,61.53,25.45c-.64-.44-1.32-.82-1.89-1.27a10.13,10.13,0,0,1-1.38-1.42,7.64,7.64,0,0,1-1.09-1.7l.12-.14a7.43,7.43,0,0,1,1.88.73,9.24,9.24,0,0,1,1.66,1.09c.55.47,1.05,1.06,1.61,1.6,2.23,2.12,4.35,4.39,4.35,4.39Z"/><path class="cls-2" d="M68.46,26.66s-.79-.56-1.95-1.42-2.7-2-4.23-3.19c-.76-.59-1.58-1.12-2.26-1.7a15.52,15.52,0,0,1-1.71-1.79,11.53,11.53,0,0,1-1.38-2.06l.12-.14a11.39,11.39,0,0,1,2.21,1.11,15.6,15.6,0,0,1,2,1.47c.66.61,1.29,1.35,2,2,1.35,1.37,2.72,2.73,3.7,3.79s1.65,1.76,1.65,1.76Z"/><path class="cls-2" d="M20.48,10.06A6.54,6.54,0,1,1,14,16.6,6.54,6.54,0,0,1,20.48,10.06Z"/><path class="cls-2" d="M30.31,36.26a3.66,3.66,0,0,1-3.64,3.68H14.3a3.68,3.68,0,0,1-3.66-3.68v-5a6.09,6.09,0,0,1,6.11-6.08h7.46a6.08,6.08,0,0,1,6.1,6.08Z"/></g></g></svg>