<svg xmlns="http://www.w3.org/2000/svg" viewBox="0 0 23.6 19.38"><defs><style>.cls-1{fill:#517c42;}</style></defs><title>Recurso 1</title><g id="Capa_2" data-name="Capa 2"><g id="Layer_1" data-name="Layer 1"><path class="cls-1" d="M11.85,0s.09,1.07.23,2.67.26,3.73.4,5.86c.06,1.07.2,2.14.22,3.14a19.86,19.86,0,0,1-.22,2.73,14.13,14.13,0,0,1-.63,2.67h-.18A14.13,14.13,0,0,1,11,14.4a19.86,19.86,0,0,1-.22-2.73c0-1,.16-2.07.22-3.14.14-2.13.25-4.26.4-5.86S11.67,0,11.67,0Z"/><path class="cls-1" d="M11.7,17s.66-.72,1.69-1.78,2.4-2.43,3.78-3.82c.69-.68,1.33-1.43,2-2a15.64,15.64,0,0,1,2-1.48,11.36,11.36,0,0,1,2.25-1.12l.12.13a11.41,11.41,0,0,1-1.43,2.08,15.2,15.2,0,0,1-1.74,1.8c-.7.59-1.52,1.12-2.3,1.72-1.56,1.17-3.1,2.37-4.3,3.22s-2,1.42-2,1.42Z"/><path class="cls-1" d="M14.08,19.24s2.08-2.35,4.28-4.57c.55-.56,1.05-1.17,1.59-1.67a11,11,0,0,1,1.65-1.15,8.14,8.14,0,0,1,1.88-.8l.12.13a8.2,8.2,0,0,1-1.06,1.76,10.11,10.11,0,0,1-1.36,1.48c-.56.46-1.24.87-1.87,1.34-2.5,1.88-5.12,3.62-5.12,3.62Z"/><path class="cls-1" d="M9.89,19.38s-2.67-1.67-5.22-3.47c-.64-.45-1.33-.84-1.91-1.29a9.87,9.87,0,0,1-1.4-1.44A7.88,7.88,0,0,1,.25,11.46l.12-.14a7.83,7.83,0,0,1,1.9.75A10,10,0,0,1,4,13.17c.56.48,1.07,1.08,1.63,1.62C7.85,17,10,19.24,10,19.24Z"/><path class="cls-1" d="M11.7,17.14s-.8-.57-2-1.44S7,13.64,5.43,12.46c-.77-.6-1.59-1.14-2.29-1.73A16,16,0,0,1,1.41,8.91,11.21,11.21,0,0,1,0,6.83L.12,6.7A11.6,11.6,0,0,1,2.36,7.83a16.74,16.74,0,0,1,2,1.49c.68.62,1.31,1.37,2,2.06,1.37,1.39,2.75,2.76,3.75,3.84S11.82,17,11.82,17Z"/></g></g></svg>