<svg id="Layer_1" data-name="Layer 1" xmlns="http://www.w3.org/2000/svg" viewBox="0 0 399.39 48.99"><defs><style>.cls-1{fill:#262424;}.cls-2{fill:#517c42;}</style></defs><title>logo</title><path class="cls-1" d="M110,47.18v.16h-.34v-.16c0-1.12-1.13-2-2.67-2s-2.66.9-2.67,2c0,2.18,6,1.83,6,4.39,0,1.29-1.52,2.36-3.34,2.34s-3.34-1-3.34-2.34v-.16H104v.16c0,1.12,1.32,2,3,2s3-.87,3-2c0-2.21-6-1.82-6-4.39,0-1.29,1.4-2.33,3-2.34S110,45.89,110,47.18Z" transform="translate(-5.3 -4.94)"/><path class="cls-1" d="M151.66,49.55h0v-.33h0a4,4,0,1,1,8,.16v.17H152c.09,2.29,2,4.31,3.94,4s2.76-.89,3.13-2.11l.05-.12h.33l-.05.22c-.4,1.32-1.27,2.07-3.42,2.34S151.77,52,151.66,49.55Zm.33-.33h7.35a3.69,3.69,0,1,0-7.35,0Z" transform="translate(-5.3 -4.94)"/><path class="cls-1" d="M201,49.55h0v-.33h0a4,4,0,1,1,8,.16v.17h-7.69c.09,2.29,2,4.31,3.94,4s2.76-.89,3.13-2.11l.05-.12h.33l-.05.22c-.4,1.32-1.27,2.07-3.42,2.34S201.1,52,201,49.55Zm.33-.33h7.35a3.69,3.69,0,1,0-7.35,0Z" transform="translate(-5.3 -4.94)"/><path class="cls-1" d="M250.32,49.36a4.34,4.34,0,0,1,4-4.52A4.08,4.08,0,0,1,258,47.56V41.23h.33V53.91H258V51.18a4,4,0,0,1-3.68,2.73A4.32,4.32,0,0,1,250.32,49.36Zm.33,0a3.71,3.71,0,1,0,7.36.08v-.08a3.71,3.71,0,1,0-7.36,0Z" transform="translate(-5.3 -4.94)"/><path class="cls-1" d="M306,47.18v.16h-.34v-.16c0-1.12-1.13-2-2.67-2s-2.66.9-2.67,2c0,2.18,6,1.83,6,4.39,0,1.29-1.51,2.36-3.34,2.34s-3.34-1-3.34-2.34v-.16H300v.16c0,1.12,1.32,2,3,2s3-.87,3-2c0-2.21-6-1.82-6-4.39,0-1.29,1.4-2.33,3-2.34S306,45.89,306,47.18Z" transform="translate(-5.3 -4.94)"/><path class="cls-1" d="M5.3,18.91A13.32,13.32,0,0,1,9.35,8.78q4.05-3.84,10.8-3.84T30.52,8.5A12.46,12.46,0,0,1,34.28,18a14.34,14.34,0,0,1-4.36,10.64,15.06,15.06,0,0,1-11,4.27,14.4,14.4,0,0,1-7.15-1.68A12,12,0,0,1,7,26.29,15.3,15.3,0,0,1,5.3,18.91Zm3.88-1.57a17.66,17.66,0,0,0,1.48,7.51,11.05,11.05,0,0,0,4,4.8,10.27,10.27,0,0,0,5.68,1.59,9.78,9.78,0,0,0,5.18-1.35A9.31,9.31,0,0,0,29,25.84a15.39,15.39,0,0,0,1.27-6.55,15.63,15.63,0,0,0-1.41-6.93A9.93,9.93,0,0,0,25,8,11.11,11.11,0,0,0,19.2,6.59a10.42,10.42,0,0,0-5.28,1.27,8.88,8.88,0,0,0-3.48,3.76A12.42,12.42,0,0,0,9.18,17.34Z" transform="translate(-5.3 -4.94)"/><path class="cls-1" d="M44.61,9.64v13.2c0,3,0,5.1.17,6.28a3.06,3.06,0,0,0,.45,1.65,3.76,3.76,0,0,0,1.83.43l1.23.1v1.2c-1.39-.09-2.65-.13-3.77-.13-.78,0-2.56,0-5.36.13V31.3h1.38A2.67,2.67,0,0,0,42.16,31a2.1,2.1,0,0,0,.48-1.36c.14-1.4.21-3.31.21-5.71V14.4c0-1.78,0-3.55-.06-5.29a3.26,3.26,0,0,0-.3-1.52,2.41,2.41,0,0,0-.75-.74,2.6,2.6,0,0,0-1.39-.32H39.16V5.32c1.62.09,2.85.14,3.7.14s1.93,0,3-.14c1.26,1.55,2.45,3,3.57,4.5s2.26,2.93,3.46,4.41l6.53,8q3.54,4.31,5.1,6V16q0-7.69-.27-8.41c-.19-.48-.92-.78-2.21-.91l-1.43-.13V5.32c2,.09,3.64.14,4.77.14s2.72,0,4.59-.14V6.53H68.52c-1.19,0-1.87.39-2,1.18q-.16.78-.17,8.37v8.61c0,2.32.1,5.08.31,8.31a21.88,21.88,0,0,1-3-.58,2.34,2.34,0,0,1-.8-.61q-2.13-2.34-4.45-5.21Z" transform="translate(-5.3 -4.94)"/><path class="cls-1" d="M82.61,19.51V24.2l0,2.7q0,2.52.06,3.69c1.86.14,3.86.21,6,.21a27.9,27.9,0,0,0,3.6-.19,8.53,8.53,0,0,0,2-.5c.32-1.12.64-2.51,1-4.2h1.26c-.34,2.8-.51,4.66-.51,5.6l0,.86c-1.46.13-2.9.19-4.31.19l-3-.06q-5-.14-7.29-.13t-5.94.13V31.3h.59A4.07,4.07,0,0,0,78.15,31a2.25,2.25,0,0,0,.57-1.52c.1-.81.14-2.58.14-5.31V13.65c0-1.72,0-3.13-.12-4.22a8.35,8.35,0,0,0-.27-2A1,1,0,0,0,78.06,7a5,5,0,0,0-1.64-.31L75,6.53V5.32H77l2,.07c1.13,0,2,.07,2.58.07L89,5.35l3.48,0c1.18,0,2.38,0,3.58.14a21.41,21.41,0,0,0-.8,5.9h-1.3a22.85,22.85,0,0,0-.21-3.5A15.89,15.89,0,0,0,88.17,7c-1.75,0-3.57.08-5.48.23,0,1.2,0,2.39,0,3.59l0,2.93v3.87c1.26.09,2.37.14,3.34.14,3,0,4.75-.11,5.15-.32s.6-.86.6-2V14.26H93c-.09,1.93-.14,3.46-.14,4.61s0,2.63.14,4.27H91.7V22q0-1.84-.72-2.25c-.47-.27-2.16-.41-5-.41C84.86,19.38,83.75,19.43,82.61,19.51Z" transform="translate(-5.3 -4.94)"/><path class="cls-2" d="M117.89,11.7s.09,1.06.23,2.66.26,3.74.4,5.87c.06,1.07.2,2.14.22,3.14a18.41,18.41,0,0,1-.22,2.73,13.24,13.24,0,0,1-.63,2.67h-.18a14.13,14.13,0,0,1-.63-2.67,19.86,19.86,0,0,1-.22-2.73c0-1,.16-2.07.22-3.14.14-2.13.26-4.27.4-5.87s.23-2.66.23-2.66Z" transform="translate(-5.3 -4.94)"/><path class="cls-2" d="M117.74,28.67s.67-.73,1.69-1.78,2.4-2.43,3.78-3.82c.69-.68,1.34-1.43,2-2a15.64,15.64,0,0,1,2-1.48,11.36,11.36,0,0,1,2.25-1.12l.12.13a11.63,11.63,0,0,1-1.42,2.08,16.19,16.19,0,0,1-1.75,1.8c-.7.59-1.52,1.12-2.3,1.72-1.56,1.17-3.1,2.36-4.3,3.21s-2,1.43-2,1.43Z" transform="translate(-5.3 -4.94)"/><path class="cls-2" d="M120.12,30.94s2.08-2.35,4.29-4.57c.54-.56,1-1.18,1.58-1.67a10.33,10.33,0,0,1,1.65-1.15,7.63,7.63,0,0,1,1.88-.8l.12.13a7.71,7.71,0,0,1-1.06,1.76,10.07,10.07,0,0,1-1.36,1.47c-.56.47-1.24.88-1.87,1.34-2.5,1.89-5.11,3.63-5.11,3.63Z" transform="translate(-5.3 -4.94)"/><path class="cls-2" d="M115.93,31.08s-2.67-1.67-5.22-3.48c-.64-.45-1.33-.83-1.91-1.28a9.87,9.87,0,0,1-1.4-1.44,8.15,8.15,0,0,1-1.11-1.72l.12-.14a7.67,7.67,0,0,1,1.9.75,10,10,0,0,1,1.68,1.1c.56.48,1.07,1.08,1.64,1.62,2.26,2.15,4.41,4.45,4.41,4.45Z" transform="translate(-5.3 -4.94)"/><path class="cls-2" d="M117.74,28.83s-.8-.56-2-1.43-2.73-2.06-4.28-3.25c-.78-.59-1.6-1.13-2.3-1.72a16,16,0,0,1-1.73-1.82A11.87,11.87,0,0,1,106,18.53l.12-.14a11.56,11.56,0,0,1,2.25,1.14,15.68,15.68,0,0,1,2,1.49c.68.61,1.32,1.36,2,2.05,1.37,1.4,2.75,2.77,3.76,3.85s1.67,1.78,1.67,1.78Z" transform="translate(-5.3 -4.94)"/><path class="cls-1" d="M148.64,7.06c-.14,1.91-.21,3.93-.21,6V24c0,4,.1,6.28.31,6.69s.93.62,2.17.62h1.44v1.2c-2.26-.09-4.17-.13-5.73-.13s-3.48,0-5.69.13V31.3h1.6a2.78,2.78,0,0,0,1.65-.33,2,2,0,0,0,.47-1.31c.13-1.49.19-3.41.19-5.77V13c0-2.16,0-4.13-.13-5.93h-1.94a29,29,0,0,0-5.19.22Q137.1,7.5,137,9l-.27,2.56h-1.2l0-2.27c0-.92-.08-2.24-.23-3.95q10.32.13,12.13.13L158,5.33q-.36,3.22-.42,6.22h-1.2l-.19-2.5a3.61,3.61,0,0,0-.33-1.54,1.38,1.38,0,0,0-.93-.29c-1.4-.11-3-.16-4.78-.16Z" transform="translate(-5.3 -4.94)"/><path class="cls-1" d="M183.85,18.71c1.25,1.8,2.79,3.89,4.64,6.27l3.67,4.75a6.83,6.83,0,0,0,1.3,1.4,1.45,1.45,0,0,0,.67.17h.49v1.2c-1.05-.09-2-.13-2.77-.13a20.69,20.69,0,0,0-2.29.13l-6.76-9.13q-1.89-2.52-4.05-4.92l.19-.65c.74.06,1.29.09,1.64.09a7.14,7.14,0,0,0,5-1.64,5.66,5.66,0,0,0,1.81-4.39A4.93,4.93,0,0,0,185.86,8a6.39,6.39,0,0,0-4.41-1.39,11.58,11.58,0,0,0-4,.75c-.15,2-.22,4.19-.22,6.49v9.23c0,4.49.1,7,.32,7.48s.92.73,2.1.73h1.49v1.2c-2.11-.09-3.86-.13-5.25-.13q-1.65,0-5.94.13V31.3h1.43c1.1,0,1.74-.24,1.95-.72s.3-3,.3-7.53V13.86c0-3.94-.11-6.15-.35-6.62s-1-.71-2.3-.71h-1V5.33c2.36.09,4.17.13,5.42.13.84,0,2,0,3.63-.1,1.84-.06,3.15-.09,3.95-.09a13.78,13.78,0,0,1,5,.7,5.55,5.55,0,0,1,2.6,2,5.53,5.53,0,0,1,.89,3.15,6.73,6.73,0,0,1-1.95,4.76A10.37,10.37,0,0,1,183.85,18.71Z" transform="translate(-5.3 -4.94)"/><path class="cls-1" d="M206,18.91a13.32,13.32,0,0,1,4-10.13q4.05-3.84,10.8-3.84t10.36,3.57A12.39,12.39,0,0,1,234.93,18a14.29,14.29,0,0,1-4.36,10.64,15,15,0,0,1-11,4.27,14.32,14.32,0,0,1-7.15-1.68,11.9,11.9,0,0,1-4.73-4.9A15.25,15.25,0,0,1,206,18.91Zm3.87-1.57a17.65,17.65,0,0,0,1.49,7.51,10.85,10.85,0,0,0,4,4.8A10.32,10.32,0,0,0,221,31.24a9.78,9.78,0,0,0,5.18-1.35,9.25,9.25,0,0,0,3.49-4.05,15.24,15.24,0,0,0,1.27-6.55,15.63,15.63,0,0,0-1.41-6.93A9.93,9.93,0,0,0,225.64,8a11.11,11.11,0,0,0-5.79-1.45,10.33,10.33,0,0,0-5.28,1.28,8.77,8.77,0,0,0-3.47,3.75A12.33,12.33,0,0,0,209.83,17.34Z" transform="translate(-5.3 -4.94)"/><path class="cls-1" d="M254.49,7.41c-.08,1.83-.13,3.78-.13,5.86V24.18c0,3.83.12,6,.34,6.43s1,.69,2.26.69h1.32v1.2c-2.26-.09-4-.13-5.33-.13q-1.72,0-6.09.13V31.3h1.72a2.59,2.59,0,0,0,1.54-.3,1.8,1.8,0,0,0,.44-1.2c.07-.6.13-2.45.21-5.55V14.06l-.06-4c0-1.64-.2-2.65-.52-3s-1.12-.55-2.38-.55h-.95V5.33q2.38.09,6,.09c1.44,0,3,0,4.79-.11,1.16,0,2-.08,2.64-.08q4.62,0,6.72,1.68a5.54,5.54,0,0,1,2.08,4.55,7.35,7.35,0,0,1-1.2,4,8.65,8.65,0,0,1-3.41,3.08,9.9,9.9,0,0,1-4.71,1.17,13.8,13.8,0,0,1-2.86-.37l-.38-1.43a11.94,11.94,0,0,0,2.81.42,5.57,5.57,0,0,0,4.18-1.59,6,6,0,0,0,1.54-4.37,5.35,5.35,0,0,0-1.65-4.17,7.09,7.09,0,0,0-4.91-1.5A13.41,13.41,0,0,0,254.49,7.41Z" transform="translate(-5.3 -4.94)"/><path class="cls-1" d="M281,31.3h1.2c1.19,0,1.89-.29,2.13-.86s.36-3.32.36-8.23V15.73c0-5.09-.11-7.89-.31-8.42s-.82-.78-1.83-.78H281V5.33c2.11.09,4.21.13,6.27.13,1.72,0,3.29,0,4.69-.13v1.2h-1.48a2.89,2.89,0,0,0-1.71.32,2.7,2.7,0,0,0-.4,1.65c-.07,1.36-.09,3.78-.09,7.27v6.59c0,5,.1,7.68.32,8.19s.92.75,2.09.75h1.27v1.2c-1.57-.09-3.28-.13-5.13-.13-2.15,0-4.1,0-5.83.13Z" transform="translate(-5.3 -4.94)"/><path class="cls-1" d="M327.7,12.22l-.15-3.4A13.44,13.44,0,0,0,324,7.14a13.6,13.6,0,0,0-3.89-.55,11.1,11.1,0,0,0-8.26,3.13,11.38,11.38,0,0,0-3.11,8.38,13.47,13.47,0,0,0,1.58,6.57,11.64,11.64,0,0,0,4.48,4.57,12.07,12.07,0,0,0,6.13,1.68,22.14,22.14,0,0,0,5.06-.59,10.6,10.6,0,0,0,3.77-1.84l.4.38c-.27.59-.52,1.18-.75,1.78a21.76,21.76,0,0,1-4.5,1.67,18.53,18.53,0,0,1-4.55.56,18,18,0,0,1-8.26-1.81,13.19,13.19,0,0,1-5.48-5,13.87,13.87,0,0,1-1.9-7.23,13.67,13.67,0,0,1,1.92-7.21,13,13,0,0,1,5.46-4.93,19.42,19.42,0,0,1,8.66-1.75,27.37,27.37,0,0,1,6.3.88c1.2.28,2.17.49,2.92.63a17.08,17.08,0,0,0-1,5.77Z" transform="translate(-5.3 -4.94)"/><path class="cls-1" d="M390.11,30.63c1.26.06,2.47.1,3.66.1,2.39,0,4.26-.06,5.61-.19A20.22,20.22,0,0,0,402.3,30l1.15-4.49h1.24q-.48,3.61-.74,6.75a30.49,30.49,0,0,1-4.71.28l-9.09-.15q-1.83,0-5.7.21v-1a3.16,3.16,0,0,0,1.8-1.43,33.19,33.19,0,0,0,.28-6.06V13.58a35.19,35.19,0,0,0-.28-6.39q-.28-.66-1.56-.66h-2.08V5.33q4.54.13,6,.13c1.32,0,3.11,0,5.38-.13v1.2h-2.37c-.67,0-1.1.19-1.28.58a22.09,22.09,0,0,0-.27,4.84V24.12l.06,5.39Z" transform="translate(-5.3 -4.94)"/><path class="cls-1" d="M370,31a1.8,1.8,0,0,1-.74-.67,20.94,20.94,0,0,1-1.3-2.75L358.28,5.12H357q-.76,2.13-2.87,6.87l-5.25,11.9c-.94,2.13-1.87,4.1-2.77,5.94a2.7,2.7,0,0,1-.83,1.17,4.05,4.05,0,0,1-1.73.28l-.57,0v1.2c1.39-.09,3-.13,4.83-.13,1.53,0,2.9,0,4.12.13V31.3l-1.83-.21a3.14,3.14,0,0,1-1.21-.3.77.77,0,0,1-.24-.64,16,16,0,0,1,1.28-3.74l1.29-3.07.72-1.57,4.81-11.47,4.81,11.47.71,1.57,2.1,5.31a7.52,7.52,0,0,1,.57,1.79.65.65,0,0,1-.28.54,3.66,3.66,0,0,1-1.21.21l-1.89.11v1.2c2.33-.09,4.19-.13,5.6-.13s3.08,0,4.74.13V31.3A6,6,0,0,1,370,31Z" transform="translate(-5.3 -4.94)"/></svg>