<svg xmlns="http://www.w3.org/2000/svg" viewBox="0 0 711.61 97.73"><defs><style>.cls-1{fill:#303030;}.cls-2{fill:#327b29;}</style></defs><title>Recurso 1</title><g id="Capa_2" data-name="Capa 2"><g id="Capa_1-2" data-name="Capa 1"><path class="cls-1" d="M195.34,86.61v.27h-.55v-.27c0-1.85-1.87-3.28-4.4-3.31S186,84.79,186,86.61c0,3.6,9.92,3,9.89,7.23,0,2.12-2.5,3.88-5.5,3.85s-5.5-1.73-5.5-3.85v-.27h.55v.27c0,1.84,2.17,3.33,4.95,3.3s5-1.43,5-3.3c0-3.63-9.87-3-9.9-7.23,0-2.12,2.31-3.83,4.95-3.85S195.34,84.49,195.34,86.61Z"/><path class="cls-1" d="M263.88,90.51h0V90h0c.13-4,3.1-7.18,6.6-7.2s6.6,3.38,6.6,7.48v.27H264.43c.14,3.77,3.29,7.09,6.49,6.63s4.54-1.46,5.14-3.47l.08-.19h.55l-.08.36C276,96,274.52,97.25,271,97.69S264.06,94.53,263.88,90.51Zm.56-.55h12.09c0-3.6-2.67-6.63-6-6.66S264.58,86.21,264.44,90Z"/><path class="cls-1" d="M345.06,90.51h0V90h0c.13-4,3.1-7.18,6.6-7.2s6.6,3.38,6.6,7.48v.27H345.62c.14,3.77,3.29,7.09,6.48,6.63,3.35-.47,4.54-1.46,5.15-3.47l.08-.19h.54l-.08.36c-.66,2.17-2.09,3.41-5.63,3.85S345.24,94.53,345.06,90.51Zm.56-.55h12.09c0-3.6-2.67-6.63-6-6.66S345.76,86.21,345.62,90Z"/><path class="cls-1" d="M426.24,90.21c0-4.07,3-7.43,6.61-7.45a6.68,6.68,0,0,1,6,4.47V76.82h.55V97.69h-.55v-4.5a6.6,6.6,0,0,1-6,4.5C429.21,97.69,426.24,94.31,426.24,90.21Zm.55,0c0,3.88,2.7,7,6.06,6.93s6-3,6-6.81v-.12c0-3.85-2.67-6.88-6-6.91S426.79,86.36,426.79,90.21Z"/><path class="cls-1" d="M517.88,86.61v.27h-.56v-.27c0-1.85-1.86-3.28-4.4-3.31s-4.37,1.49-4.4,3.31c0,3.6,9.93,3,9.9,7.23,0,2.12-2.5,3.88-5.5,3.85s-5.49-1.73-5.49-3.85v-.27H508v.27c0,1.84,2.18,3.33,4.95,3.3s5-1.43,5-3.3c0-3.63-9.88-3-9.91-7.23,0-2.12,2.31-3.83,4.95-3.85S517.88,84.49,517.88,86.61Z"/><path class="cls-1" d="M0,40.08Q0,29.74,6.66,23.42t17.78-6.31q10.87,0,17.06,5.86t6.18,15.57a23.56,23.56,0,0,1-7.17,17.51q-7.18,7-18.09,7a23.75,23.75,0,0,1-11.76-2.77,19.66,19.66,0,0,1-7.79-8.08A25.08,25.08,0,0,1,0,40.08ZM6.38,37.5A29.11,29.11,0,0,0,8.82,49.87a18.06,18.06,0,0,0,6.52,7.89,16.93,16.93,0,0,0,9.35,2.62,16,16,0,0,0,8.52-2.23A15.19,15.19,0,0,0,39,51.49a25.21,25.21,0,0,0,2.09-10.78,25.59,25.59,0,0,0-2.32-11.39A16.24,16.24,0,0,0,32.4,22.2a18.31,18.31,0,0,0-9.54-2.39,17.12,17.12,0,0,0-8.68,2.1,14.6,14.6,0,0,0-5.72,6.18A20.35,20.35,0,0,0,6.38,37.5Z"/><path class="cls-1" d="M72.91,24.83V46.55c0,4.94.09,8.4.28,10.34a5,5,0,0,0,.74,2.72c.35.33,1.35.56,3,.71l2,.16v2c-2.28-.15-4.36-.22-6.2-.22-1.29,0-4.22.07-8.82.22v-2h2.26a4.26,4.26,0,0,0,2.67-.57,3.47,3.47,0,0,0,.79-2.23q.35-3.47.34-9.4V32.66q0-4.39-.09-8.7a5.47,5.47,0,0,0-.49-2.5,4,4,0,0,0-1.24-1.21,4.18,4.18,0,0,0-2.3-.54H64v-2c2.66.15,4.68.22,6.09.22s3.17-.07,5-.22q3.1,3.81,5.86,7.4c1.84,2.41,3.73,4.82,5.71,7.25l10.74,13.2q5.82,7.1,8.4,9.87V35.27q0-12.66-.46-13.84t-3.63-1.5l-2.35-.22v-2q5,.22,7.85.22t7.55-.22v2h-2.42c-2,0-3.08.65-3.37,1.95q-.28,1.29-.28,13.77V49.6q0,5.73.5,13.67a34.78,34.78,0,0,1-5-1,4.08,4.08,0,0,1-1.32-1q-3.49-3.87-7.32-8.58Z"/><path class="cls-1" d="M143.67,41.08V48.8l0,4.44c0,2.77,0,4.8.1,6.07,3.06.23,6.35.35,9.85.35a48.52,48.52,0,0,0,5.92-.31,15.27,15.27,0,0,0,3.28-.82q.78-2.76,1.6-6.92h2.07c-.56,4.61-.85,7.68-.85,9.21l.06,1.42q-3.6.32-7.1.31l-4.93-.09q-8.17-.23-12-.22c-2.45,0-5.7.07-9.77.22v-2h1c1.83,0,3-.18,3.44-.54a3.73,3.73,0,0,0,.95-2.51q.22-2,.23-8.74V31.44q0-4.25-.2-7a14.44,14.44,0,0,0-.44-3.22,1.84,1.84,0,0,0-.68-.8,8.35,8.35,0,0,0-2.7-.5l-2.42-.26v-2h3.39l3.34.11c1.86.08,3.27.11,4.24.11l12.07-.18,5.72,0c1.94,0,3.92.06,5.9.22a35.58,35.58,0,0,0-1.32,9.72h-2.13a39.75,39.75,0,0,0-.35-5.76,26.27,26.27,0,0,0-9.11-1.38c-2.87,0-5.88.13-9,.37q0,3-.07,5.91l-.06,4.83V38c2.08.14,3.91.22,5.5.22,5,0,7.82-.18,8.47-.53s1-1.41,1-3.21V32.44h2.14c-.14,3.17-.22,5.69-.22,7.58s.08,4.33.22,7h-2.14V45.23c0-2-.39-3.24-1.18-3.69s-3.55-.67-8.31-.67C147.38,40.87,145.56,40.94,143.67,41.08Z"/><line class="cls-1" x1="205.45" y1="19.14" x2="205.45" y2="55.25"/><path class="cls-2" d="M205.64,19.14c.3,3,.5,6,.76,9s.41,6,.57,9c.08,1.5.23,3,.36,4.51a29.53,29.53,0,0,1,0,4.51c-.11,1.51-.3,3-.56,4.52a27.65,27.65,0,0,1-1.15,4.51h-.38a25.75,25.75,0,0,1-1.15-4.51,43.61,43.61,0,0,1-.57-4.52,29.53,29.53,0,0,1,0-4.51c.13-1.5.28-3,.36-4.51q.24-4.52.57-9c.26-3,.46-6,.77-9Z"/><line class="cls-1" x1="205.45" y1="55.18" x2="230.33" y2="33.52"/><path class="cls-2" d="M205.32,55c1.87-2,3.82-4,5.72-6s3.88-3.92,5.85-5.85c1-1,1.92-2,2.87-3a24.34,24.34,0,0,1,3.1-2.72,34.17,34.17,0,0,1,3.48-2.28,22.91,22.91,0,0,1,3.86-1.85l.25.29a23.05,23.05,0,0,1-2.35,3.58,37.41,37.41,0,0,1-2.74,3.13,24.28,24.28,0,0,1-3.13,2.69c-1.12.81-2.25,1.6-3.34,2.44q-3.27,2.53-6.6,5c-2.24,1.61-4.45,3.26-6.72,4.84Z"/><line class="cls-1" x1="210.47" y1="60" x2="230.37" y2="42.66"/><path class="cls-2" d="M210.35,59.86c1.46-1.68,3-3.27,4.47-4.91s3.05-3.2,4.6-4.77c.78-.78,1.51-1.62,2.25-2.44a16,16,0,0,1,2.47-2.18A22.94,22.94,0,0,1,227,43.82a15.78,15.78,0,0,1,3.24-1.3l.25.28a14.93,14.93,0,0,1-1.73,3,23.12,23.12,0,0,1-2.11,2.59,15.51,15.51,0,0,1-2.5,2.15c-.92.63-1.85,1.24-2.73,1.9q-2.64,2-5.35,3.9c-1.82,1.26-3.61,2.55-5.47,3.76Z"/><line class="cls-1" x1="201.61" y1="60" x2="181.21" y2="43.24"/><path class="cls-2" d="M201.48,60.15c-1.89-1.16-3.72-2.41-5.58-3.6s-3.66-2.48-5.46-3.75c-.9-.64-1.84-1.22-2.78-1.82a16.51,16.51,0,0,1-2.56-2.08,25.49,25.49,0,0,1-2.19-2.53,16.1,16.1,0,0,1-1.82-3l.25-.29a15.12,15.12,0,0,1,3.27,1.21A22.38,22.38,0,0,1,187.52,46a15.06,15.06,0,0,1,2.54,2.11c.77.79,1.52,1.61,2.32,2.37,1.6,1.52,3.17,3.07,4.73,4.63s3.11,3.15,4.62,4.78Z"/><line class="cls-1" x1="205.45" y1="55.25" x2="180.69" y2="33.45"/><path class="cls-2" d="M205.32,55.4c-2.26-1.59-4.46-3.26-6.69-4.88s-4.4-3.33-6.57-5c-1.09-.84-2.22-1.64-3.33-2.45a24.36,24.36,0,0,1-3.11-2.71,34.14,34.14,0,0,1-2.72-3.15,22.4,22.4,0,0,1-2.34-3.59l.25-.28a21.85,21.85,0,0,1,3.86,1.86,37.23,37.23,0,0,1,3.47,2.3,25,25,0,0,1,3.08,2.74c.94,1,1.88,2,2.85,3q2.94,2.9,5.82,5.88c1.89,2,3.82,4,5.68,6Z"/><path class="cls-1" d="M260.56,20.6c-.22,3.13-.34,6.45-.34,9.93V48.44c0,6.67.16,10.34.5,11s1.53,1,3.59,1h2.35v2q-5.57-.23-9.43-.22t-9.36.22v-2h2.64a4.49,4.49,0,0,0,2.71-.55,3.34,3.34,0,0,0,.78-2.15c.2-2.45.31-5.62.31-9.49V30.34q0-5.31-.21-9.74h-3.2c-5.17,0-8,.11-8.54.36s-.87,1.17-1,2.81L240.89,28h-2l.06-3.74c0-1.51-.13-3.68-.37-6.5q17,.21,20,.22l17.38-.22q-.58,5.31-.68,10.24h-2L273,23.87a5.86,5.86,0,0,0-.54-2.54,2.36,2.36,0,0,0-1.54-.48q-3.45-.26-7.85-.25Z"/><path class="cls-1" d="M318.51,39.77q3.08,4.42,7.64,10.31l6,7.82a11.68,11.68,0,0,0,2.13,2.3,2.34,2.34,0,0,0,1.11.28h.82v2c-1.74-.15-3.27-.22-4.57-.22a33.27,33.27,0,0,0-3.76.22l-11.13-15c-2.08-2.77-4.29-5.47-6.67-8.11l.32-1.07c1.21.11,2.11.15,2.7.15,3.5,0,6.24-.89,8.22-2.7a9.3,9.3,0,0,0,3-7.23,8.1,8.1,0,0,0-2.52-6.33c-1.68-1.51-4.1-2.28-7.26-2.28a19.08,19.08,0,0,0-6.64,1.23q-.37,5-.37,10.68V47q0,11.09.53,12.3c.36.81,1.51,1.21,3.46,1.21H314v2q-5.22-.23-8.64-.22-2.7,0-9.78.22v-2h2.36c1.8,0,2.87-.39,3.21-1.18s.49-4.92.49-12.4V31.78c0-6.49-.19-10.13-.57-10.9s-1.66-1.16-3.79-1.16h-1.7v-2c3.9.14,6.87.22,8.93.22,1.39,0,3.37-.06,6-.16,3-.11,5.18-.16,6.51-.16a22.67,22.67,0,0,1,8.24,1.15,9.17,9.17,0,0,1,4.28,3.31A9.12,9.12,0,0,1,331,27.29a11.12,11.12,0,0,1-3.2,7.83Q324.57,38.51,318.51,39.77Z"/><path class="cls-1" d="M354.89,40.08q0-10.33,6.66-16.65t17.77-6.32q10.89,0,17.06,5.86t6.18,15.57a23.56,23.56,0,0,1-7.17,17.51q-7.17,7-18.08,7a23.66,23.66,0,0,1-11.77-2.77,19.63,19.63,0,0,1-7.79-8.07A25.26,25.26,0,0,1,354.89,40.08Zm6.37-2.57a29.09,29.09,0,0,0,2.45,12.36,17.94,17.94,0,0,0,6.52,7.89,16.93,16.93,0,0,0,9.34,2.63,16,16,0,0,0,8.53-2.24,15,15,0,0,0,5.74-6.66,25.21,25.21,0,0,0,2.09-10.78,25.73,25.73,0,0,0-2.31-11.39,16.32,16.32,0,0,0-6.34-7.12,18.38,18.38,0,0,0-9.54-2.39,17,17,0,0,0-8.68,2.11,14.49,14.49,0,0,0-5.71,6.17A20.36,20.36,0,0,0,361.26,37.51Z"/><path class="cls-1" d="M434.76,21.16c-.15,3-.22,6.23-.22,9.65V48.75q0,9.47.56,10.6c.38.75,1.62,1.13,3.72,1.13H441v2q-5.58-.23-8.77-.22-2.84,0-10,.22v-2H425a4.25,4.25,0,0,0,2.54-.49,3,3,0,0,0,.73-2c.1-1,.21-4,.34-9.13V32.1l-.09-6.5c0-2.71-.33-4.36-.87-5s-1.84-.91-3.9-.91h-1.58v-2q3.93.15,10,.15,3.54,0,7.88-.19c1.91-.08,3.36-.12,4.34-.12,5.08,0,8.75.92,11.06,2.76a9.11,9.11,0,0,1,3.43,7.48,12.23,12.23,0,0,1-2,6.59,14.35,14.35,0,0,1-5.61,5.08,16.43,16.43,0,0,1-7.75,1.91,24,24,0,0,1-4.71-.59l-.63-2.36a19.7,19.7,0,0,0,4.62.69,9.14,9.14,0,0,0,6.88-2.62,9.87,9.87,0,0,0,2.54-7.18,8.8,8.8,0,0,0-2.71-6.87C447.7,20.82,445,20,441.43,20A22,22,0,0,0,434.76,21.16Z"/><path class="cls-1" d="M478.31,60.48h2c2,0,3.12-.47,3.52-1.41s.58-5.47.58-13.55V34.86q0-12.55-.51-13.86c-.33-.85-1.34-1.28-3-1.28h-2.55v-2c3.48.14,6.92.22,10.33.22,2.83,0,5.4-.08,7.71-.22v2h-2.44c-1.49,0-2.43.17-2.81.53a4.42,4.42,0,0,0-.66,2.7q-.17,3.36-.16,12V45.77q0,12.23.54,13.47c.36.83,1.51,1.24,3.45,1.24h2.08v2c-2.58-.15-5.4-.22-8.44-.22q-5.32,0-9.6.22Z"/><path class="cls-1" d="M555.23,29.08,555,23.49a21.92,21.92,0,0,0-5.86-2.77,22.25,22.25,0,0,0-6.4-.91q-8.47,0-13.59,5.15T524,38.76a22.13,22.13,0,0,0,2.6,10.81A19.09,19.09,0,0,0,534,57.09a19.85,19.85,0,0,0,10.08,2.76,36,36,0,0,0,8.33-1,17.32,17.32,0,0,0,6.2-3l.66.63c-.44,1-.86,1.94-1.23,2.92a36.36,36.36,0,0,1-7.4,2.75,30.93,30.93,0,0,1-7.5.93,29.57,29.57,0,0,1-13.59-3,21.66,21.66,0,0,1-9-8.25A22.79,22.79,0,0,1,517.39,40a22.5,22.5,0,0,1,3.17-11.87,21.31,21.31,0,0,1,9-8.11,31.8,31.8,0,0,1,14.25-2.87,44.79,44.79,0,0,1,10.37,1.44c2,.46,3.58.81,4.81,1a27.83,27.83,0,0,0-1.63,9.49Z"/><path class="cls-1" d="M657.94,59.38c2.06.1,4.06.16,6,.16,3.94,0,7-.1,9.24-.32a32.65,32.65,0,0,0,4.81-.91l1.88-7.39h2q-.79,6-1.23,11.1a50.1,50.1,0,0,1-7.74.47l-15-.25c-2,0-5.14.12-9.39.35V60.92c1.68-.73,2.66-1.52,3-2.36s.46-4.16.46-10V31.31c0-6.28-.16-9.79-.46-10.51s-1.16-1.08-2.56-1.08h-3.44v-2c5,.14,8.31.22,9.94.22,2.18,0,5.13-.08,8.87-.22v2h-3.9c-1.11,0-1.81.31-2.11,1s-.44,3.3-.44,8v20l.1,8.87Z"/><path class="cls-1" d="M624.81,60a3.08,3.08,0,0,1-1.22-1.1,32.52,32.52,0,0,1-2.14-4.54l-15.9-37h-2.14q-1.26,3.52-4.72,11.32l-8.64,19.58q-2.32,5.24-4.56,9.77A4.56,4.56,0,0,1,584.12,60a6.8,6.8,0,0,1-2.84.46l-.94,0v2q3.42-.23,7.95-.22c2.51,0,4.78.07,6.79.22v-2l-3-.34a4.77,4.77,0,0,1-2-.51,1.21,1.21,0,0,1-.39-1c0-.75.69-2.8,2.1-6.16l2.12-5,1.18-2.59L603,25.92l7.91,18.87,1.18,2.59,3.45,8.73a12.34,12.34,0,0,1,.94,3A1.07,1.07,0,0,1,616,60a5.73,5.73,0,0,1-2,.34l-3.11.19v2q5.75-.23,9.21-.22,3.71,0,7.8.22v-2A10.07,10.07,0,0,1,624.81,60Z"/><path class="cls-1" d="M711.61,12.07A12.41,12.41,0,1,1,699.24,0,12.13,12.13,0,0,1,711.61,12.07Zm-21.71,0a9.35,9.35,0,0,0,9.42,9.64,9.25,9.25,0,0,0,9.2-9.56c0-5.38-3.91-9.72-9.28-9.72A9.37,9.37,0,0,0,689.9,12.07Zm7.43,6.33h-2.8V6.33A24.55,24.55,0,0,1,699.17,6a7.61,7.61,0,0,1,4.2.88,3.38,3.38,0,0,1,1.17,2.66,3.09,3.09,0,0,1-2.5,2.79v.15a3.53,3.53,0,0,1,2.2,2.94,9.34,9.34,0,0,0,.89,3h-3a10,10,0,0,1-1-2.95c-.23-1.32-1-1.91-2.5-1.91h-1.33Zm.07-6.85h1.33c1.55,0,2.79-.51,2.79-1.76,0-1.1-.81-1.84-2.57-1.84a6.37,6.37,0,0,0-1.55.15Z"/></g></g></svg>