<svg xmlns="http://www.w3.org/2000/svg" viewBox="0 0 100.32 70.82"><defs><style>.cls-1{fill:#317d3d;}</style></defs><title>Recurso 1</title><g id="Capa_2" data-name="Capa 2"><g id="Layer_1" data-name="Layer 1"><path class="cls-1" d="M88.55,56.49a15.23,15.23,0,0,0,2.2-14L88.34,35.9,79.7,39.07,70.93,15.18A8.38,8.38,0,0,0,74.56,5.07L72.7,0,55.44,6.34l1.86,5.07a8.4,8.4,0,0,0,9.32,5.36l8.77,23.88-8.64,3.17,2.42,6.58a15.46,15.46,0,0,0,6.36,7.52,18.25,18.25,0,0,0-6.11,5.27c-2.85-3.53-9-5.93-16.21-5.93H52.9c-.51,0-1,.06-1.55.09-1.36,0-2.81.31-4.26.51a19.6,19.6,0,0,0-8.6,3.76C35,58.05,28.31,55.73,20.62,55.73c-.52,0-1.14,0-1.5,0v-.13H19c-.68.05-1.37.08-2.06.1V56a29.85,29.85,0,0,0-4.48.88c-.46.18-.89.35-1.29.48a4.66,4.66,0,0,1-.79.17C4.19,59.71,0,63.73,0,67.62c0,5.13,100.32,3.21,100.32.37C100.32,62.56,93.86,57.93,88.55,56.49ZM68,11.53l-1.51.55a3.8,3.8,0,0,1-4.87-2.25l-.28-.76L70,5.9l.28.76A3.81,3.81,0,0,1,68,11.53Z"/><path class="cls-1" d="M17.92,56.67s-.09-1.45-.23-3.63-.26-5.09-.4-8c-.06-1.45-.2-2.91-.22-4.27a36.73,36.73,0,0,1,.22-3.72,25.2,25.2,0,0,1,.63-3.64h.18a23.61,23.61,0,0,1,.63,3.64A34,34,0,0,1,19,40.77c0,1.36-.16,2.82-.22,4.27-.14,2.91-.25,5.82-.4,8s-.23,3.63-.23,3.63Z"/><path class="cls-1" d="M18,51.18s.7-.75,1.77-1.85,2.53-2.54,4-4c.73-.72,1.4-1.5,2.11-2.14a17.91,17.91,0,0,1,2.12-1.55,12.86,12.86,0,0,1,2.34-1.2l.11.14a12.53,12.53,0,0,1-1.51,2.15A16.74,16.74,0,0,1,27,44.63c-.73.61-1.59,1.18-2.4,1.8-1.63,1.24-3.24,2.49-4.49,3.39s-2.08,1.5-2.08,1.5Z"/><path class="cls-1" d="M18,53.33s2.44-2.21,5-4.27c.64-.52,1.22-1.11,1.84-1.56a11.17,11.17,0,0,1,1.84-1,8.75,8.75,0,0,1,2-.65l.1.14a8.26,8.26,0,0,1-1.31,1.69A11.07,11.07,0,0,1,25.86,49c-.64.43-1.39.78-2.09,1.2-2.8,1.7-5.71,3.24-5.71,3.24Z"/><path class="cls-1" d="M17.58,52.85s-3.06-1.21-6-2.57c-.75-.34-1.53-.61-2.21-1A11.1,11.1,0,0,1,7.6,48.13,8.52,8.52,0,0,1,6.1,46.6l.09-.16a8.58,8.58,0,0,1,2.09.43,10.26,10.26,0,0,1,2,.81c.66.38,1.31.89,2,1.33,2.76,1.76,5.44,3.68,5.44,3.68Z"/><path class="cls-1" d="M18,51.35s-.83-.59-2.07-1.51S13,47.67,11.41,46.43c-.81-.63-1.67-1.2-2.39-1.82A15.83,15.83,0,0,1,7.2,42.72a12.59,12.59,0,0,1-1.5-2.16l.12-.13a12.7,12.7,0,0,1,2.33,1.21,17,17,0,0,1,2.1,1.57c.71.64,1.38,1.42,2.11,2.14,1.44,1.45,2.9,2.89,3.95,4s1.76,1.86,1.76,1.86Z"/><path class="cls-1" d="M50.55,59l-.15-2.17c-.1-1.3-.17-3-.27-4.76,0-.87-.13-1.74-.14-2.55a18.31,18.31,0,0,1,.14-2.22,14.57,14.57,0,0,1,.42-2.17h.12a13.15,13.15,0,0,1,.42,2.17,20.43,20.43,0,0,1,.15,2.22c0,.81-.11,1.68-.15,2.55-.09,1.73-.17,3.46-.26,4.76S50.67,59,50.67,59Z"/><path class="cls-1" d="M50.57,55.76l1-1.11c.62-.67,1.49-1.53,2.35-2.4.43-.43.83-.9,1.25-1.28a9.11,9.11,0,0,1,1.27-.92,7.21,7.21,0,0,1,1.43-.68l.08.09a7.43,7.43,0,0,1-.88,1.32A9.31,9.31,0,0,1,56,51.91c-.43.37-1,.69-1.44,1.06-1,.73-2,1.47-2.7,2l-1.25.88Z"/><path class="cls-1" d="M50.58,57l.91-.82c.54-.5,1.29-1.13,2-1.76.38-.31.72-.67,1.09-.94a5.75,5.75,0,0,1,1.1-.6A4.74,4.74,0,0,1,57,52.56l.07.1a4.76,4.76,0,0,1-.75,1.05,6.53,6.53,0,0,1-.94.83c-.38.25-.83.46-1.25.7-.86.49-1.7,1-2.35,1.33l-1.08.57Z"/><path class="cls-1" d="M50.35,56.77l-1.14-.45c-.69-.27-1.58-.66-2.48-1-.45-.19-.92-.35-1.33-.55a5.57,5.57,0,0,1-1-.73,4.71,4.71,0,0,1-.87-1l.06-.1a5,5,0,0,1,1.27.21,5.43,5.43,0,0,1,1.16.47c.4.23.78.54,1.19.81.81.55,1.63,1.08,2.22,1.51l1,.72Z"/><path class="cls-1" d="M50.57,55.88,49.33,55c-.75-.53-1.71-1.27-2.69-2-.48-.37-1-.7-1.43-1.07a9.34,9.34,0,0,1-1.08-1.14,7.22,7.22,0,0,1-.86-1.32l.08-.09a6.85,6.85,0,0,1,1.41.69A9.34,9.34,0,0,1,46,51c.42.39.82.86,1.25,1.29.85.88,1.71,1.74,2.33,2.41l1,1.13Z"/></g></g></svg>