<svg xmlns="http://www.w3.org/2000/svg" viewBox="0 0 90 69.22"><defs><style>.cls-1{fill:#317d3d;}</style></defs><title>Recurso 3</title><g id="Capa_2" data-name="Capa 2"><g id="Layer_1" data-name="Layer 1"><path class="cls-1" d="M77.36,58.65c-.6,0-1.21,0-1.77.08l-.32.05h0l-.9.06v0a15.31,15.31,0,0,0-7.36,3c-2.5-2.52-7.23-4.42-12.66-4.42H54c-.13,0-.27,0-.41,0-.41,0-.82,0-1.24,0h0a6,6,0,0,1-1.35.16,3.87,3.87,0,0,1-.49,0c-6.19,1-10.77,4.37-10.77,7.83,0,4.13,50.25,4.13,50.25,0S84.34,58.65,77.36,58.65Z"/><path class="cls-1" d="M76.24,61.18s-.09-1.32-.23-3.31-.26-4.64-.4-7.29c-.06-1.33-.2-2.65-.22-3.89a30.5,30.5,0,0,1,.22-3.4A20.82,20.82,0,0,1,76.24,40h.18a20.82,20.82,0,0,1,.63,3.31,30.5,30.5,0,0,1,.22,3.4c0,1.24-.16,2.56-.22,3.89-.14,2.65-.25,5.3-.4,7.29s-.23,3.31-.23,3.31Z"/><path class="cls-1" d="M76.27,56.17s2.54-2.75,5.2-5.36c.66-.66,1.27-1.37,1.92-2a14.34,14.34,0,0,1,1.94-1.4A10.31,10.31,0,0,1,87.5,46.4l.12.13a11,11,0,0,1-1.34,2,14.64,14.64,0,0,1-1.66,1.73c-.67.56-1.46,1.06-2.2,1.63-3,2.27-6,4.41-6,4.41Z"/><path class="cls-1" d="M76.28,58.13s2.2-2,4.51-3.94c.57-.48,1.1-1,1.66-1.44a9.75,9.75,0,0,1,1.69-.91A7.29,7.29,0,0,1,86,51.28l.11.15A7.32,7.32,0,0,1,85,53a9.74,9.74,0,0,1-1.44,1.28c-.58.39-1.27.7-1.91,1.08-2.57,1.53-5.24,2.91-5.24,2.91Z"/><path class="cls-1" d="M75.93,57.7s-2.81-1.06-5.53-2.29c-.68-.3-1.4-.53-2-.85a9.13,9.13,0,0,1-1.58-1.11A7.29,7.29,0,0,1,65.47,52l.09-.16a7.17,7.17,0,0,1,1.93.34,9.1,9.1,0,0,1,1.78.72c.61.35,1.19.83,1.82,1.24,2.51,1.62,4.93,3.4,4.93,3.4Z"/><path class="cls-1" d="M76.27,56.34s-3.06-2.15-6-4.45c-.74-.56-1.53-1.07-2.2-1.64a14.4,14.4,0,0,1-1.64-1.74,10.54,10.54,0,0,1-1.33-2l.12-.13a10.81,10.81,0,0,1,2.16,1.06,14.42,14.42,0,0,1,1.93,1.41c.65.59,1.25,1.31,1.91,2,2.65,2.63,5.17,5.4,5.17,5.4Z"/><path class="cls-1" d="M52.91,58.08s-.07-.87-.16-2.16-.17-3-.27-4.77c0-.87-.13-1.74-.14-2.55a18.31,18.31,0,0,1,.14-2.22,14.57,14.57,0,0,1,.42-2.17H53a13.72,13.72,0,0,1,.43,2.17,18.31,18.31,0,0,1,.14,2.22c0,.81-.11,1.68-.14,2.55-.1,1.73-.17,3.46-.27,4.77S53,58.08,53,58.08Z"/><path class="cls-1" d="M52.93,54.8l1-1.11c.63-.67,1.49-1.53,2.35-2.4.43-.43.83-.9,1.25-1.28a9.16,9.16,0,0,1,1.28-.92,7,7,0,0,1,1.42-.68l.08.09a7.68,7.68,0,0,1-.87,1.32A10.15,10.15,0,0,1,58.4,51c-.44.37-1,.69-1.45,1.06-1,.73-2,1.48-2.7,2L53,54.89Z"/><path class="cls-1" d="M52.93,56.08l.91-.82c.54-.5,1.29-1.12,2-1.76.37-.31.72-.67,1.08-.94a5.82,5.82,0,0,1,1.11-.6,5.14,5.14,0,0,1,1.24-.36l.06.1a4.76,4.76,0,0,1-.75,1,6,6,0,0,1-.94.83c-.38.26-.83.46-1.25.71-.85.48-1.69,1-2.35,1.32L53,56.18Z"/><path class="cls-1" d="M52.71,55.81l-1.15-.45c-.68-.26-1.58-.66-2.48-1-.44-.19-.92-.34-1.32-.55a5.66,5.66,0,0,1-1-.73,4.71,4.71,0,0,1-.87-1l.06-.1a5,5,0,0,1,1.27.21,5.43,5.43,0,0,1,1.16.47c.4.23.78.54,1.19.81.81.55,1.63,1.08,2.23,1.51l1,.72Z"/><path class="cls-1" d="M52.92,54.92,51.68,54C50.93,53.5,50,52.75,49,52c-.48-.37-1-.7-1.43-1.07a9.34,9.34,0,0,1-1.08-1.14,7.22,7.22,0,0,1-.86-1.32l.08-.09a7.05,7.05,0,0,1,1.42.69,10,10,0,0,1,1.26.92c.42.39.82.86,1.25,1.29.85.88,1.71,1.74,2.33,2.42l1,1.12Z"/><path class="cls-1" d="M31.81,18.27A9.14,9.14,0,1,1,41,9.14,9.13,9.13,0,0,1,31.81,18.27Z"/><path class="cls-1" d="M6.21,56.82h4.64a6.26,6.26,0,0,1-2-6.68L17.4,22.5a6.22,6.22,0,0,1,7.77-4.1A7.86,7.86,0,0,1,27.78,20c.18.14,20.08,17.17,20.29,17.46l.06-.08,0,.05a12.63,12.63,0,0,0,.83,1.5l-.09.13a5.18,5.18,0,0,1-8.32,5.46L27.15,33,22.26,48.78s11.67,5.88,11.83,6a7.83,7.83,0,0,1-4.16,14.46H6.21a6.2,6.2,0,1,1,0-12.4Z"/></g></g></svg>